<svg width="115" height="107" viewBox="0 0 115 107" fill="none" xmlns="http://www.w3.org/2000/svg">
<rect x="0.230835" y="0.952515" width="114.392" height="105.76" rx="12" fill="#853B18"/>
<mask id="mask0_344_2" style="mask-type:alpha" maskUnits="userSpaceOnUse" x="0" y="0" width="115" height="107">
<rect x="0.230835" y="0.952515" width="114.392" height="105.76" rx="12" fill="#853B18"/>
</mask>
<g mask="url(#mask0_344_2)">
<path d="M23.8245 48.1927C23.8245 48.1927 23.6401 48.2782 23.3432 48.4266C22.214 48.9935 19.4742 50.4871 19.1772 51.7917C18.8038 53.4428 15.8526 60.7669 15.5017 63.8396C15.1508 66.9123 14.0621 79.0096 13.9631 82.1183C13.8506 85.6589 15.5017 93.4059 14.6739 95.5833C13.8506 97.7562 12.2851 104.154 11.8982 105.377C11.0344 108.104 10.2471 125.874 9.90967 133.072C9.57226 140.27 8.44756 147.693 10.9219 149.434C10.9219 149.434 11.7677 151.742 14.1836 152.08C14.1836 152.08 15.1958 159.561 18.7409 157.312C18.7409 157.312 18.2325 155.175 17.9536 154.5C17.6746 153.825 17.1078 152.026 18.066 151.801C19.0243 151.576 21.1027 154.109 21.1027 154.109L22.2275 155.571C22.2275 155.571 24.1215 157.204 23.82 154.896C23.5186 152.588 23.5186 151.072 23.5186 150.226C23.5186 149.38 22.7313 145.736 22.0565 144.746C21.3817 143.761 18.7949 134.948 18.5699 133.076C18.345 131.2 18.9073 124.979 19.9196 122.167C20.9318 119.355 25.6556 107.771 25.0932 100.572C25.0932 100.572 25.3181 97.8732 26.3304 94.8365C27.3426 91.7998 28.9172 89.8878 29.1421 86.4012C29.3671 82.9146 29.9294 73.2421 29.9294 73.2421V71.3301C29.9294 71.3301 30.2669 73.2421 32.7412 72.9047C35.2156 72.5673 39.314 74.5918 44.8745 72.0409C50.4351 69.4901 52.833 69.6431 57.3318 67.6906C61.8306 65.7426 66.028 63.3402 66.028 63.3402L61.5112 38.4842L56.5805 42.947L48.3341 37.5485L41.2845 28.2494L36.3358 31.0971L33.488 37.6969L27.941 45.1965L23.6311 48.2782" fill="#F8BE89"/>
<path d="M23.8245 48.1927C23.8245 48.1927 23.6401 48.2782 23.3432 48.4266C22.214 48.9935 19.4742 50.4871 19.1772 51.7917C18.8038 53.4428 15.8526 60.7669 15.5017 63.8396C15.1508 66.9123 14.0621 79.0096 13.9631 82.1183C13.8506 85.6589 15.5017 93.4059 14.6739 95.5833C13.8506 97.7562 12.2851 104.154 11.8982 105.377C11.0344 108.104 10.2471 125.874 9.90967 133.072C9.57226 140.27 8.44756 147.693 10.9219 149.434C10.9219 149.434 11.7677 151.742 14.1836 152.08C14.1836 152.08 15.1958 159.561 18.7409 157.312C18.7409 157.312 18.2325 155.175 17.9536 154.5C17.6746 153.825 17.1078 152.026 18.066 151.801C19.0243 151.576 21.1027 154.109 21.1027 154.109L22.2275 155.571C22.2275 155.571 24.1215 157.204 23.82 154.896C23.5186 152.588 23.5186 151.072 23.5186 150.226C23.5186 149.38 22.7313 145.736 22.0565 144.746C21.3817 143.761 18.7949 134.948 18.5699 133.076C18.345 131.2 18.9073 124.979 19.9196 122.167C20.9318 119.355 25.6556 107.771 25.0932 100.572C25.0932 100.572 25.3181 97.8732 26.3304 94.8365C27.3426 91.7998 28.9172 89.8878 29.1421 86.4012C29.3671 82.9146 29.9294 73.2421 29.9294 73.2421V71.3301C29.9294 71.3301 30.2669 73.2421 32.7412 72.9047C35.2156 72.5673 39.314 74.5918 44.8745 72.0409C50.4351 69.4901 52.833 69.6431 57.3318 67.6906C61.8306 65.7426 66.028 63.3402 66.028 63.3402L61.5112 38.4842L56.5805 42.947L48.3341 37.5485L41.2845 28.2494L36.3358 31.0971L33.488 37.6969L27.941 45.1965L23.6311 48.2782" stroke="#24150B" stroke-width="0.5" stroke-miterlimit="10" stroke-linecap="round" stroke-linejoin="round"/>
<path d="M37.5056 46.1322C37.5056 46.1322 31.3152 45.0795 30.9058 45.309C30.4919 45.5384 26.398 45.7228 25.0213 47.0005C23.6402 48.2782 20.671 49.7493 20.464 50.1947C20.2571 50.6356 18.3091 53.7982 18.3091 53.7982L17.4093 56.4885L16.9684 58.3511C16.9684 58.3511 15.7492 62.4945 15.4568 65.3017C15.2589 67.2362 13.4459 83.0766 14.3591 86.3652C14.4401 87.2425 15.0609 92.0832 15.0249 93.5453C15.3084 94.895 11.8533 104.9 11.6238 106.763C11.3944 108.625 10.3462 126.387 10.2202 129.253C10.0942 132.123 9.53637 145.669 9.72082 146.587C9.90527 147.5 10.8815 141.89 11.4844 134.17C12.0827 126.445 16.883 105.908 17.9312 99.4928C18.9794 93.0775 18.5295 84.0618 18.3811 79.7969C18.2326 75.5321 21.4763 53.5508 26.9783 50.3701C32.4804 47.1895 38.3918 49.6053 41.658 47.8103C41.9144 47.6708 42.2158 46.7801 42.2158 46.7801L37.2761 46.2762" fill="#EDA06B"/>
<path d="M57.3768 13.6012C57.3768 13.6012 59.4462 18.8693 58.6904 20.7543C58.6904 20.7543 58.0426 22.1265 58.7264 23.0802C59.4282 24.052 62.7349 30.0174 60.8229 30.3548C58.9109 30.6922 58.8119 30.0939 58.506 29.9544L59.4687 33.0901C59.4687 33.0901 59.1268 32.9192 58.8434 33.0901C58.5599 33.2611 57.8851 33.6525 57.8851 33.6525C57.8851 33.6525 57.7142 34.7232 57.8266 35.1146C57.9391 35.506 57.5432 36.4102 58.8389 37.364C60.1345 38.3177 57.8266 40.0093 55.8022 39.222C53.7777 38.4347 49.5038 36.4102 48.2666 34.6647C47.0295 32.9192 43.3944 27.1652 43.3944 27.1652C43.3944 27.1652 44.78 21.4472 45.2299 19.4812C45.6798 17.5152 46.8045 16.332 47.0879 14.249C47.3714 12.1661 47.3129 9.97515 49.2834 9.52527C51.2539 9.07538 56.9314 10.8749 56.9314 10.8749C56.9314 10.8749 57.9931 12.3325 57.3768 13.6012Z" fill="#F8BE89" stroke="#24150B" stroke-width="0.5" stroke-miterlimit="10" stroke-linecap="round" stroke-linejoin="round"/>
<path d="M29.781 70.201L28.8047 67.5422C28.8047 67.5422 27.0052 74.2589 27.6035 75.3836C28.2019 76.5083 28.2784 78.5328 28.0534 80.8587C27.8285 83.1846 27.7745 86.4057 26.9782 88.3582C26.1819 90.3062 25.3181 95.9163 25.2417 96.4516C25.1652 96.9825 25.1472 99.1959 25.1472 99.1959C25.1472 99.1959 25.858 95.4259 26.9287 92.8391C27.9994 90.2522 29.1016 89.7079 29.0657 84.9076C29.0297 80.1074 29.7765 76.8817 29.7765 76.8817V71.0063V70.201H29.781Z" fill="#EDA06B"/>
<path d="M39.3949 32.2263C39.3949 32.2263 39.8943 35.407 40.0517 36.2483C43.7993 34.4577 45.2434 41.1295 45.6663 41.7323C46.512 42.9425 50.7319 45.5293 52.8509 45.2729C54.9698 45.0165 56.297 45.7138 56.297 46.834C56.297 47.9542 57.3587 49.7177 58.9018 49.6323C60.4494 49.5468 62.1904 49.3533 62.1904 49.3533C62.1904 49.3533 62.2804 51.5623 62.1904 52.6735C62.1005 53.7847 63.3376 62.4584 60.2829 64.4604C57.2282 66.4624 50.6645 68.7433 49.5398 68.7523C48.4151 68.7613 38.4681 71.735 36.1602 71.4291C33.8524 71.1231 32.2958 71.2446 32.2958 71.2446L30.1408 70.3089L29.4255 70.6823L31.1755 73.2196L45.0319 76.8726L60.175 71.8025C60.175 71.8025 65.5016 62.5034 65.7895 61.9186C66.0774 61.3337 66.8737 51.0944 66.8737 51.0944L61.7856 43.8783C61.7856 43.8783 53.0758 40.4052 52.8554 40.0993C52.6394 39.7933 42.5756 32.5952 42.5756 32.5952L39.3949 32.2263Z" fill="#EDA06B"/>
<path d="M56.6705 28.7892C56.6705 28.7892 55.8832 30.5618 55.5233 30.7867C55.1634 31.0117 54.0747 31.9699 53.9262 32.0239C53.7778 32.0824 53.0625 32.2668 53.0625 32.2668L54.925 33.45L57.3364 31.3671L58.0247 30.3368C58.0247 30.3368 58.1191 29.7385 58.0247 29.572C57.0889 29.878 56.6705 28.7892 56.6705 28.7892Z" fill="#EDA572"/>
<path d="M39.5794 33.0901C39.5794 33.0901 38.9451 45.6103 37.123 46.2851C35.301 46.96 42.0447 47.5043 42.2112 46.7755C42.3822 46.0467 39.5794 33.0901 39.5794 33.0901Z" fill="#EDA06B"/>
<path d="M37.7349 46.2493C37.7349 45.9388 37.9869 45.6914 38.2928 45.6914C38.5987 45.6914 38.8506 45.9433 38.8506 46.2493C38.8506 46.5597 38.5987 46.8071 38.2928 46.8071C37.9869 46.8071 37.7349 46.5552 37.7349 46.2493Z" fill="#F9AF77"/>
<path d="M38.1308 47.5134C38.1308 47.203 38.3827 46.9555 38.6886 46.9555C38.9945 46.9555 39.2465 47.2074 39.2465 47.5134C39.2465 47.8238 38.9945 48.0712 38.6886 48.0712C38.3827 48.0712 38.1308 47.8193 38.1308 47.5134Z" fill="#F9AF77"/>
<path d="M38.6887 48.7776C38.6887 48.4672 38.9406 48.2197 39.2465 48.2197C39.5569 48.2197 39.8044 48.4717 39.8044 48.7776C39.8044 49.088 39.5524 49.3354 39.2465 49.3354C38.9406 49.3354 38.6887 49.088 38.6887 48.7776Z" fill="#F9AF77"/>
<path d="M39.2511 50.0732C39.2511 49.7628 39.503 49.5154 39.809 49.5154C40.1194 49.5154 40.3668 49.7673 40.3668 50.0732C40.3668 50.3836 40.1149 50.6311 39.809 50.6311C39.4985 50.6311 39.2511 50.3792 39.2511 50.0732Z" fill="#F9AF77"/>
<path d="M39.8718 51.3644C39.8718 51.054 40.1237 50.8065 40.4297 50.8065C40.7401 50.8065 40.9875 51.0585 40.9875 51.3644C40.9875 51.6748 40.7356 51.9222 40.4297 51.9222C40.1192 51.9222 39.8718 51.6748 39.8718 51.3644Z" fill="#F9AF77"/>
<path d="M40.6277 52.4845C40.6277 52.1741 40.8796 51.9267 41.1856 51.9267C41.496 51.9267 41.7434 52.1786 41.7434 52.4845C41.7434 52.795 41.4915 53.0424 41.1856 53.0424C40.8796 53.0424 40.6277 52.795 40.6277 52.4845Z" fill="#F9AF77"/>
<path d="M41.3565 53.6048C41.3565 53.2944 41.6084 53.0469 41.9143 53.0469C42.2248 53.0469 42.4722 53.2989 42.4722 53.6048C42.4722 53.9107 42.2203 54.1626 41.9143 54.1626C41.6084 54.1626 41.3565 53.9107 41.3565 53.6048Z" fill="#F9AF77"/>
<path d="M42.2292 54.7249C42.2292 54.4145 42.4812 54.1671 42.7871 54.1671C43.0975 54.1671 43.345 54.419 43.345 54.7249C43.345 55.0353 43.093 55.2828 42.7871 55.2828C42.4767 55.2828 42.2292 55.0308 42.2292 54.7249Z" fill="#F9AF77"/>
<path d="M43.0165 55.8406C43.0165 55.5302 43.2685 55.2828 43.5744 55.2828C43.8848 55.2828 44.1322 55.5347 44.1322 55.8406C44.1322 56.151 43.8803 56.3985 43.5744 56.3985C43.264 56.403 43.0165 56.151 43.0165 55.8406Z" fill="#F9AF77"/>
<path d="M43.9433 56.6011C43.9433 56.2906 44.1952 56.0432 44.5012 56.0432C44.8116 56.0432 45.059 56.2951 45.059 56.6011C45.059 56.9115 44.8071 57.1589 44.5012 57.1589C44.1952 57.1589 43.9433 56.9115 43.9433 56.6011Z" fill="#F9AF77"/>
<path d="M45.0635 57.3073C45.0635 56.9969 45.3154 56.7495 45.6214 56.7495C45.9273 56.7495 46.1792 57.0014 46.1792 57.3073C46.1792 57.6177 45.9273 57.8652 45.6214 57.8652C45.3154 57.8652 45.0635 57.6177 45.0635 57.3073Z" fill="#F9AF77"/>
<path d="M46.1837 58.0541C46.1837 57.7437 46.4357 57.4963 46.7416 57.4963C47.0475 57.4963 47.2994 57.7482 47.2994 58.0541C47.2994 58.3646 47.0475 58.612 46.7416 58.612C46.4357 58.612 46.1837 58.3646 46.1837 58.0541Z" fill="#F9AF77"/>
<path d="M48.0057 59.1698C48.3138 59.1698 48.5636 58.92 48.5636 58.6119C48.5636 58.3038 48.3138 58.0541 48.0057 58.0541C47.6976 58.0541 47.4478 58.3038 47.4478 58.6119C47.4478 58.92 47.6976 59.1698 48.0057 59.1698Z" fill="#F9AF77"/>
<path d="M48.8246 58.9899C48.8246 58.6795 49.0765 58.4321 49.3824 58.4321C49.6883 58.4321 49.9403 58.684 49.9403 58.9899C49.9403 59.3003 49.6883 59.5478 49.3824 59.5478C49.0765 59.5478 48.8246 59.2958 48.8246 58.9899Z" fill="#F9AF77"/>
<path d="M50.2462 58.9899C50.2462 58.6795 50.4981 58.4321 50.804 58.4321C51.1099 58.4321 51.3619 58.684 51.3619 58.9899C51.3619 59.3003 51.1099 59.5478 50.804 59.5478C50.4981 59.5478 50.2462 59.2958 50.2462 58.9899Z" fill="#F9AF77"/>
<path d="M51.4789 58.4275C51.4789 58.1171 51.7308 57.8697 52.0367 57.8697C52.3472 57.8697 52.5946 58.1216 52.5946 58.4275C52.5946 58.7335 52.3427 58.9854 52.0367 58.9854C51.7308 58.9899 51.4789 58.738 51.4789 58.4275Z" fill="#F9AF77"/>
<path d="M52.3517 57.4963C52.3517 57.1858 52.6036 56.9384 52.9095 56.9384C53.2199 56.9384 53.4674 57.1903 53.4674 57.4963C53.4674 57.8067 53.2154 58.0541 52.9095 58.0541C52.5991 58.0541 52.3517 57.8022 52.3517 57.4963Z" fill="#F9AF77"/>
<path d="M53.1389 56.4031C53.1389 56.0926 53.3909 55.8452 53.6968 55.8452C54.0072 55.8452 54.2547 56.0971 54.2547 56.4031C54.2547 56.7135 54.0027 56.9609 53.6968 56.9609C53.3864 56.9609 53.1389 56.709 53.1389 56.4031Z" fill="#F9AF77"/>
<path d="M53.9262 55.2828C53.9262 54.9724 54.1782 54.725 54.4841 54.725C54.7945 54.725 55.0419 54.9769 55.0419 55.2828C55.0419 55.5932 54.79 55.8407 54.4841 55.8407C54.1737 55.8407 53.9262 55.5932 53.9262 55.2828Z" fill="#F9AF77"/>
<path d="M54.601 54.1627C54.601 53.8522 54.8529 53.6048 55.1589 53.6048C55.4693 53.6048 55.7167 53.8567 55.7167 54.1627C55.7167 54.4731 55.4648 54.7205 55.1589 54.7205C54.8484 54.725 54.601 54.4731 54.601 54.1627Z" fill="#F9AF77"/>
<path d="M55.1589 52.939C55.1589 52.6285 55.4109 52.3811 55.7168 52.3811C56.0272 52.3811 56.2746 52.633 56.2746 52.939C56.2746 53.2494 56.0227 53.4968 55.7168 53.4968C55.4109 53.4968 55.1589 53.2494 55.1589 52.939Z" fill="#F9AF77"/>
<path d="M55.5818 51.6478C55.5818 51.3374 55.8337 51.09 56.1396 51.09C56.4501 51.09 56.6975 51.3419 56.6975 51.6478C56.6975 51.9582 56.4456 52.2057 56.1396 52.2057C55.8337 52.2057 55.5818 51.9537 55.5818 51.6478Z" fill="#F9AF77"/>
<path d="M55.7213 50.3791C55.7213 50.0687 55.9732 49.8212 56.2791 49.8212C56.585 49.8212 56.837 50.0732 56.837 50.3791C56.837 50.6895 56.585 50.9369 56.2791 50.9369C55.9732 50.9369 55.7213 50.6895 55.7213 50.3791Z" fill="#F9AF77"/>
<path d="M55.7213 49.061C55.7213 48.7505 55.9732 48.5031 56.2791 48.5031C56.585 48.5031 56.837 48.755 56.837 49.061C56.837 49.3714 56.585 49.6188 56.2791 49.6188C55.9732 49.6188 55.7213 49.3669 55.7213 49.061Z" fill="#F9AF77"/>
<path d="M55.5818 47.6574C55.5818 47.347 55.8337 47.0995 56.1396 47.0995C56.4501 47.0995 56.6975 47.3515 56.6975 47.6574C56.6975 47.9633 56.4456 48.2153 56.1396 48.2153C55.8337 48.2198 55.5818 47.9678 55.5818 47.6574Z" fill="#F9AF77"/>
<path d="M55.3029 46.3932C55.3029 46.0828 55.5549 45.8354 55.8608 45.8354C56.1712 45.8354 56.4187 46.0873 56.4187 46.3932C56.4187 46.7037 56.1667 46.9511 55.8608 46.9511C55.5549 46.9511 55.3029 46.7037 55.3029 46.3932Z" fill="#F9AF77"/>
<path d="M54.7451 45.0121C54.7451 44.7017 54.997 44.4542 55.3029 44.4542C55.6133 44.4542 55.8608 44.7062 55.8608 45.0121C55.8608 45.3225 55.6088 45.5699 55.3029 45.5699C54.9925 45.5699 54.7451 45.318 54.7451 45.0121Z" fill="#F9AF77"/>
<path d="M37.8834 45.9838C37.8834 45.6734 38.1353 45.426 38.4412 45.426C38.7517 45.426 38.9991 45.6779 38.9991 45.9838C38.9991 46.2897 38.7472 46.5417 38.4412 46.5417C38.1353 46.5462 37.8834 46.2942 37.8834 45.9838Z" fill="#2F1C0F" stroke="#24150B" stroke-width="0.5" stroke-miterlimit="10" stroke-linecap="round" stroke-linejoin="round"/>
<path d="M38.2792 47.2479C38.2792 46.9375 38.5312 46.6901 38.8371 46.6901C39.1475 46.6901 39.3949 46.942 39.3949 47.2479C39.3949 47.5583 39.143 47.8058 38.8371 47.8058C38.5312 47.8103 38.2792 47.5583 38.2792 47.2479Z" fill="#2F1C0F" stroke="#24150B" stroke-width="0.5" stroke-miterlimit="10" stroke-linecap="round" stroke-linejoin="round"/>
<path d="M38.8371 48.5166C38.8371 48.2062 39.0891 47.9587 39.395 47.9587C39.7009 47.9587 39.9528 48.2107 39.9528 48.5166C39.9528 48.827 39.7009 49.0745 39.395 49.0745C39.0891 49.0745 38.8371 48.8225 38.8371 48.5166Z" fill="#2F1C0F" stroke="#24150B" stroke-width="0.5" stroke-miterlimit="10" stroke-linecap="round" stroke-linejoin="round"/>
<path d="M39.3994 49.8077C39.3994 49.4973 39.6514 49.2499 39.9573 49.2499C40.2677 49.2499 40.5152 49.5018 40.5152 49.8077C40.5152 50.1181 40.2632 50.3656 39.9573 50.3656C39.6469 50.3701 39.3994 50.1181 39.3994 49.8077Z" fill="#2F1C0F" stroke="#24150B" stroke-width="0.5" stroke-miterlimit="10" stroke-linecap="round" stroke-linejoin="round"/>
<path d="M40.0203 51.1034C40.0203 50.793 40.2722 50.5455 40.5781 50.5455C40.884 50.5455 41.136 50.7975 41.136 51.1034C41.136 51.4138 40.884 51.6612 40.5781 51.6612C40.2722 51.6612 40.0203 51.4093 40.0203 51.1034Z" fill="#2F1C0F" stroke="#24150B" stroke-width="0.5" stroke-miterlimit="10" stroke-linecap="round" stroke-linejoin="round"/>
<path d="M40.7806 52.219C40.7806 51.9086 41.0325 51.6612 41.3384 51.6612C41.6444 51.6612 41.8963 51.9131 41.8963 52.219C41.8963 52.5295 41.6444 52.7769 41.3384 52.7769C41.0325 52.7769 40.7806 52.5295 40.7806 52.219Z" fill="#2F1C0F" stroke="#24150B" stroke-width="0.5" stroke-miterlimit="10" stroke-linecap="round" stroke-linejoin="round"/>
<path d="M41.5049 53.3394C41.5049 53.029 41.7569 52.7816 42.0628 52.7816C42.3732 52.7816 42.6207 53.0335 42.6207 53.3394C42.6207 53.6498 42.3687 53.8973 42.0628 53.8973C41.7569 53.9018 41.5049 53.6498 41.5049 53.3394Z" fill="#2F1C0F" stroke="#24150B" stroke-width="0.5" stroke-miterlimit="10" stroke-linecap="round" stroke-linejoin="round"/>
<path d="M42.3776 54.4595C42.3776 54.1491 42.6295 53.9017 42.9354 53.9017C43.2459 53.9017 43.4933 54.1536 43.4933 54.4595C43.4933 54.7699 43.2414 55.0174 42.9354 55.0174C42.6295 55.0219 42.3776 54.7699 42.3776 54.4595Z" fill="#2F1C0F" stroke="#24150B" stroke-width="0.5" stroke-miterlimit="10" stroke-linecap="round" stroke-linejoin="round"/>
<path d="M43.1649 55.5798C43.1649 55.2694 43.4168 55.0219 43.7227 55.0219C44.0331 55.0219 44.2806 55.2739 44.2806 55.5798C44.2806 55.8902 44.0286 56.1376 43.7227 56.1376C43.4168 56.1376 43.1649 55.8902 43.1649 55.5798Z" fill="#2F1C0F" stroke="#24150B" stroke-width="0.5" stroke-miterlimit="10" stroke-linecap="round" stroke-linejoin="round"/>
<path d="M44.0918 56.34C44.0918 56.0296 44.3437 55.7822 44.6496 55.7822C44.96 55.7822 45.2075 56.0341 45.2075 56.34C45.2075 56.6504 44.9555 56.8979 44.6496 56.8979C44.3437 56.8979 44.0918 56.6459 44.0918 56.34Z" fill="#2F1C0F" stroke="#24150B" stroke-width="0.5" stroke-miterlimit="10" stroke-linecap="round" stroke-linejoin="round"/>
<path d="M45.212 57.0464C45.212 56.736 45.4639 56.4885 45.7698 56.4885C46.0803 56.4885 46.3277 56.7405 46.3277 57.0464C46.3277 57.3568 46.0758 57.6042 45.7698 57.6042C45.4639 57.6042 45.212 57.3568 45.212 57.0464Z" fill="#2F1C0F" stroke="#24150B" stroke-width="0.5" stroke-miterlimit="10" stroke-linecap="round" stroke-linejoin="round"/>
<path d="M46.3322 57.7931C46.3322 57.4827 46.5842 57.2353 46.8901 57.2353C47.2005 57.2353 47.4479 57.4872 47.4479 57.7931C47.4479 58.1036 47.196 58.351 46.8901 58.351C46.5842 58.351 46.3322 58.0991 46.3322 57.7931Z" fill="#2F1C0F" stroke="#24150B" stroke-width="0.5" stroke-miterlimit="10" stroke-linecap="round" stroke-linejoin="round"/>
<path d="M47.5963 58.351C47.5963 58.0406 47.8483 57.7932 48.1542 57.7932C48.4646 57.7932 48.712 58.0451 48.712 58.351C48.712 58.6614 48.4601 58.9089 48.1542 58.9089C47.8483 58.9089 47.5963 58.6614 47.5963 58.351Z" fill="#2F1C0F" stroke="#24150B" stroke-width="0.5" stroke-miterlimit="10" stroke-linecap="round" stroke-linejoin="round"/>
<path d="M48.973 58.7244C48.973 58.414 49.225 58.1666 49.5309 58.1666C49.8413 58.1666 50.0887 58.4185 50.0887 58.7244C50.0887 59.0348 49.8368 59.2823 49.5309 59.2823C49.225 59.2868 48.973 59.0348 48.973 58.7244Z" fill="#2F1C0F" stroke="#24150B" stroke-width="0.5" stroke-miterlimit="10" stroke-linecap="round" stroke-linejoin="round"/>
<path d="M50.3945 58.7244C50.3945 58.414 50.6464 58.1666 50.9524 58.1666C51.2583 58.1666 51.5102 58.4185 51.5102 58.7244C51.5102 59.0348 51.2583 59.2823 50.9524 59.2823C50.6464 59.2823 50.3945 59.0348 50.3945 58.7244Z" fill="#2F1C0F" stroke="#24150B" stroke-width="0.5" stroke-miterlimit="10" stroke-linecap="round" stroke-linejoin="round"/>
<path d="M51.6273 58.1666C51.6273 57.8561 51.8792 57.6087 52.1852 57.6087C52.4956 57.6087 52.743 57.8606 52.743 58.1666C52.743 58.477 52.4911 58.7244 52.1852 58.7244C51.8792 58.7244 51.6273 58.477 51.6273 58.1666Z" fill="#2F1C0F" stroke="#24150B" stroke-width="0.5" stroke-miterlimit="10" stroke-linecap="round" stroke-linejoin="round"/>
<path d="M52.5 57.2308C52.5 56.9204 52.7519 56.673 53.0578 56.673C53.3683 56.673 53.6157 56.9249 53.6157 57.2308C53.6157 57.5412 53.3638 57.7887 53.0578 57.7887C52.7519 57.7932 52.5 57.5412 52.5 57.2308Z" fill="#2F1C0F" stroke="#24150B" stroke-width="0.5" stroke-miterlimit="10" stroke-linecap="round" stroke-linejoin="round"/>
<path d="M53.2873 56.1376C53.2873 55.8272 53.5392 55.5798 53.8451 55.5798C54.1556 55.5798 54.403 55.8317 54.403 56.1376C54.403 56.448 54.1511 56.6955 53.8451 56.6955C53.5392 56.7 53.2873 56.448 53.2873 56.1376Z" fill="#2F1C0F" stroke="#24150B" stroke-width="0.5" stroke-miterlimit="10" stroke-linecap="round" stroke-linejoin="round"/>
<path d="M54.0747 55.0219C54.0747 54.7115 54.3266 54.4641 54.6326 54.4641C54.943 54.4641 55.1904 54.716 55.1904 55.0219C55.1904 55.3278 54.9385 55.5798 54.6326 55.5798C54.3266 55.5798 54.0747 55.3278 54.0747 55.0219Z" fill="#2F1C0F" stroke="#24150B" stroke-width="0.5" stroke-miterlimit="10" stroke-linecap="round" stroke-linejoin="round"/>
<path d="M54.7495 53.9017C54.7495 53.5912 55.0014 53.3438 55.3074 53.3438C55.6178 53.3438 55.8652 53.5957 55.8652 53.9017C55.8652 54.2121 55.6133 54.4595 55.3074 54.4595C55.0014 54.4595 54.7495 54.2076 54.7495 53.9017Z" fill="#2F1C0F" stroke="#24150B" stroke-width="0.5" stroke-miterlimit="10" stroke-linecap="round" stroke-linejoin="round"/>
<path d="M55.3073 52.678C55.3073 52.3676 55.5592 52.1202 55.8651 52.1202C56.171 52.1202 56.423 52.3721 56.423 52.678C56.423 52.9884 56.171 53.2359 55.8651 53.2359C55.5592 53.2359 55.3073 52.9839 55.3073 52.678Z" fill="#2F1C0F" stroke="#24150B" stroke-width="0.5" stroke-miterlimit="10" stroke-linecap="round" stroke-linejoin="round"/>
<path d="M55.7346 51.3824C55.7346 51.072 55.9866 50.8245 56.2925 50.8245C56.6029 50.8245 56.8504 51.0765 56.8504 51.3824C56.8504 51.6928 56.5984 51.9402 56.2925 51.9402C55.9821 51.9447 55.7346 51.6928 55.7346 51.3824Z" fill="#2F1C0F" stroke="#24150B" stroke-width="0.5" stroke-miterlimit="10" stroke-linecap="round" stroke-linejoin="round"/>
<path d="M55.8696 50.1182C55.8696 49.8078 56.1215 49.5604 56.4275 49.5604C56.7379 49.5604 56.9853 49.8123 56.9853 50.1182C56.9853 50.4286 56.7334 50.6761 56.4275 50.6761C56.117 50.6761 55.8696 50.4286 55.8696 50.1182Z" fill="#2F1C0F" stroke="#24150B" stroke-width="0.5" stroke-miterlimit="10" stroke-linecap="round" stroke-linejoin="round"/>
<path d="M55.8696 48.7956C55.8696 48.4852 56.1215 48.2377 56.4275 48.2377C56.7379 48.2377 56.9853 48.4897 56.9853 48.7956C56.9853 49.106 56.7334 49.3534 56.4275 49.3534C56.117 49.3579 55.8696 49.106 55.8696 48.7956Z" fill="#2F1C0F" stroke="#24150B" stroke-width="0.5" stroke-miterlimit="10" stroke-linecap="round" stroke-linejoin="round"/>
<path d="M55.7346 47.3964C55.7346 47.0859 55.9866 46.8385 56.2925 46.8385C56.6029 46.8385 56.8504 47.0904 56.8504 47.3964C56.8504 47.7023 56.5984 47.9542 56.2925 47.9542C55.9821 47.9542 55.7346 47.7068 55.7346 47.3964Z" fill="#2F1C0F" stroke="#24150B" stroke-width="0.5" stroke-miterlimit="10" stroke-linecap="round" stroke-linejoin="round"/>
<path d="M55.4513 46.0467C55.4513 45.7363 55.7032 45.4889 56.0091 45.4889C56.3196 45.4889 56.567 45.7408 56.567 46.0467C56.567 46.3572 56.3151 46.6046 56.0091 46.6046C55.7032 46.6046 55.4513 46.3572 55.4513 46.0467Z" fill="#2F1C0F" stroke="#24150B" stroke-width="0.5" stroke-miterlimit="10" stroke-linecap="round" stroke-linejoin="round"/>
<path d="M54.8934 44.7466C54.8934 44.4362 55.1453 44.1888 55.4512 44.1888C55.7616 44.1888 56.0091 44.4407 56.0091 44.7466C56.0091 45.0526 55.7571 45.3045 55.4512 45.3045C55.1408 45.309 54.8934 45.0571 54.8934 44.7466Z" fill="#2F1C0F" stroke="#24150B" stroke-width="0.5" stroke-miterlimit="10" stroke-linecap="round" stroke-linejoin="round"/>
<path opacity="0.6" d="M57.6961 21.834C57.6961 21.834 58.1955 20.8488 57.0708 20.5968C55.9461 20.3449 54.1465 20.3449 53.2738 20.5968C52.401 20.8488 51.3798 21.2177 51.1053 21.5236C50.8309 21.834 49.5172 23.0487 49.3958 23.1837C48.8604 23.7595 49.4633 24.5783 49.8547 24.9697C50.2461 25.3611 56.5849 27.4261 57.6961 25.4781C58.146 24.6908 58.1235 22.1444 57.6961 21.834Z" fill="#EDA572"/>
<path d="M62.3255 38.1198C62.3255 38.1198 60.5709 36.8691 60.1975 38.4347C60.1975 38.4347 61.0478 42.3352 60.7509 43.9188C60.4585 45.5024 63.4592 48.3681 63.2837 49.2454C63.1128 50.1227 63.6751 58.9539 63.6751 60.3035C63.6751 61.6532 63.7336 61.7162 62.4919 63.7901C61.2502 65.8641 54.484 69.0402 51.4878 69.1887C48.4916 69.3372 36.7182 74.2139 32.5927 71.9645C28.4673 69.7151 29.52 70.8398 29.52 70.8398C29.52 70.8398 28.3189 73.5571 30.0059 74.7402C30.0059 74.7402 28.5078 76.8907 29.781 78.5418C29.781 78.5418 28.9937 79.8419 29.9699 82.4647C29.9699 82.4647 28.7687 84.7141 30.5683 85.6904C30.5683 85.6904 29.2186 88.1647 31.3915 88.988C31.3915 88.988 30.0554 89.6224 31.4005 92.3172C31.4455 92.4071 31.4905 92.4926 31.54 92.5871C33.1146 95.5113 29.592 95.2099 29.9654 96.7125C29.9654 96.7125 28.9262 99.3353 29.3131 101.697C29.3131 101.697 21.7146 107.658 23.4016 131.502C23.4016 131.502 27.563 155.796 27.1132 162.094C26.6633 168.392 29.1376 171.991 29.8125 173.116C30.4873 174.241 47.5783 162.917 51.4788 152.421C55.3793 141.926 58.344 137.125 61.5112 129.927C64.6783 122.729 65.8031 128.69 67.3776 131.389C67.3776 131.389 70.7518 136.226 72.7762 137.35C74.8007 138.475 75.4755 136.788 76.1504 137.463C76.8252 138.138 80.7617 143.986 83.5734 139.037C86.3852 134.089 86.1602 125.653 85.2605 121.604C84.3607 117.556 83.3485 107.01 82.6737 105.422C81.9988 103.834 78.8497 88.7631 78.6247 86.7386C78.3998 84.7141 77.9499 81.565 77.9499 81.565C77.9499 81.565 83.182 81.1421 84.7566 82.0418C86.3312 82.9416 85.4359 93.1089 82.8986 94.3866C80.3568 95.6688 87.8473 124.754 87.8473 124.754C87.8473 124.754 90.74 134.233 92.3146 133.193C95.3423 131.196 94.3706 124.304 96.3951 113.732C98.4195 103.159 99.9941 90.3377 98.4195 85.164C96.845 79.9904 92.7195 70.3944 92.2696 66.9438C91.8198 63.4932 90.3217 59.7951 87.3209 57.3703C87.3209 57.3703 88.0722 53.4473 85.0715 51.4948C85.0715 51.4948 82.9706 50.5951 82.3722 49.6953C81.7739 48.7955 81.7739 43.9953 77.1221 42.9471C77.1221 42.9471 74.7242 38.4482 69.3256 40.0993C69.3346 40.0948 65.9605 36.1403 62.3255 38.1198Z" fill="#C65E28" stroke="#24150B" stroke-width="0.5" stroke-miterlimit="10" stroke-linecap="round" stroke-linejoin="round"/>
<path d="M35.2111 159.237C32.8627 157.438 31.504 154.99 31.504 154.99C31.504 154.99 32.6602 148.103 32.4173 147.9C32.1744 147.698 33.0022 142.569 30.1364 134.948C27.2751 127.322 30.2039 121.227 32.4173 115.9C34.6262 110.578 35.598 104.806 35.1571 104.585C34.7207 104.365 36.4977 95.3358 36.6057 93.4778C36.7137 91.6198 35.7194 90.0812 35.2066 86.5181C34.6937 82.955 38.1443 83.8953 42.4317 81.097C46.7191 78.3033 57.6512 71.1771 61.0658 68.9277C64.4804 66.6783 62.5414 66.1339 62.5414 66.1339L62.7439 63.4661C62.7034 63.5336 62.7619 63.7225 62.7169 63.7945C61.4752 65.8685 54.664 69.1256 51.6678 69.2741C48.6716 69.4226 36.7542 74.3533 32.6332 72.1039C28.5078 69.8544 29.6055 70.8172 29.6055 70.8172C29.6055 70.8172 28.4448 73.4355 30.1319 74.6142C30.1319 74.6142 28.6338 76.7646 29.907 78.4157C29.907 78.4157 29.1197 79.7159 30.0959 82.3387C30.0959 82.3387 28.8947 84.5881 30.6943 85.5644C30.6943 85.5644 29.3446 88.0387 31.5175 88.862C31.5175 88.862 30.1814 89.4963 31.5265 92.1911C31.5715 92.2766 31.6165 92.3666 31.666 92.461C33.1911 95.3223 29.9115 95.3943 30.0914 96.5865C30.0914 96.5865 29.0522 99.2093 29.4391 101.571C29.4391 101.571 21.8451 107.532 23.5321 131.376C23.5321 131.376 27.8285 155.539 27.3786 161.837C26.9287 168.136 29.2681 171.861 29.943 172.986C30.3074 173.593 35.5305 170.277 40.8121 165.711C38.9631 163.07 36.4842 160.213 35.2111 159.237Z" fill="#BC5127"/>
<path d="M56.6524 35.4475C56.3375 35.5779 55.9056 35.4025 55.6357 35.3035C54.1691 34.7546 53.0534 33.7289 51.9691 32.6447C51.3393 32.0148 51.0334 31.1331 50.3766 30.5347C49.6748 29.8914 48.4556 27.4395 48.1361 26.8997C47.6638 26.0989 48.1407 21.816 48.577 20.6013C48.9819 19.4766 49.9042 18.199 50.2641 17.0383C50.4665 16.3904 51.1414 15.6571 51.3663 15.0228C51.5598 14.4604 51.7577 13.8396 52.1581 13.3762C52.8599 12.5664 54.0746 12.5709 55.0104 12.9218C55.4422 13.0838 55.8066 13.3897 56.198 13.6192C56.5939 13.8486 57.0393 14.0061 57.4577 14.2085C57.4757 14.2175 57.4622 14.204 57.5207 14.24C57.3677 13.8036 57.3767 13.6057 57.3767 13.6057C57.9976 12.3415 56.9269 10.8794 56.9269 10.8794C56.9269 10.8794 51.2448 9.07984 49.2789 9.52972C47.3129 9.97961 47.3668 12.175 47.0834 14.2535C46.8 16.3319 45.6753 17.5151 45.2254 19.4856C44.7755 21.4561 43.3899 27.1696 43.3899 27.1696C43.3899 27.1696 47.0249 32.9236 48.2621 34.6691C49.4993 36.4147 53.7732 38.4392 55.7977 39.2265C57.8221 40.0138 60.13 38.3267 58.8344 37.3684C57.5387 36.4102 57.8266 35.5599 57.7141 35.1685C57.6647 35.0021 57.6557 34.6691 57.6737 34.3947C57.4712 34.4757 57.4082 34.5972 57.2463 34.7591C57.0618 34.9391 56.9044 35.3395 56.6524 35.4475Z" fill="#EDA572"/>
<path opacity="0.5" d="M31.4321 73.5751C31.4321 73.5751 33.3081 76.0495 36.4573 75.4871C36.4573 75.4871 40.2453 77.1382 43.093 75.2622C43.093 75.2622 36.3088 81.4481 31.4321 77.2867C31.4321 77.2867 30.1184 75.937 33.3081 76.3104C36.4933 76.6838 36.4933 76.4994 36.4933 76.4994C36.4933 76.4994 31.4726 76.5354 31.4321 73.5751Z" fill="#F58553"/>
<path opacity="0.5" d="M62.186 38.4887C62.186 38.4887 61.9925 38.1738 61.5202 38.4842C61.0478 38.7901 61.7631 40.1398 61.8531 41.116C61.9476 42.0923 60.8678 42.2407 61.5202 42.6906C62.1725 43.1405 63.1712 44.7151 63.5716 45.4664C63.972 46.2177 65.5466 48.989 65.2452 50.9415C64.9438 52.8895 64.8583 61.3607 64.8448 62.265C64.8313 63.1648 64.3364 68.7343 64.3364 68.7343C64.3364 68.7343 64.9078 74.0339 64.8448 75.3881C64.7818 76.7422 64.8898 86.9681 63.8685 89.051C63.8685 89.051 64.3724 100.658 64.242 103.236C64.1115 105.814 65.2857 115.081 65.2857 115.081L66.7658 99.1239C66.7658 99.1239 66.4959 72.8372 66.7658 70.2054C67.0357 67.5736 66.7838 54.509 66.8783 51.9537C66.9727 49.3984 65.5106 42.5916 64.8358 41.8313C64.1565 41.0665 62.186 38.4887 62.186 38.4887Z" fill="#F58553"/>
<path opacity="0.5" d="M31.621 79.8733C31.7965 80.3907 33.0471 80.4177 33.488 80.4897C34.7792 80.7056 35.8904 80.7146 37.1636 80.5931C38.2883 80.4897 39.3185 80.0758 40.3982 79.8958C41.4329 79.7203 42.3867 79.5359 43.3584 79.113C45.9588 77.9793 48.955 76.9896 51.0199 74.9516C50.9435 76.5577 49.4139 78.1233 48.1902 79.0005C46.2332 80.3997 43.5519 81.4389 41.1585 81.8483C38.6212 82.2847 36.0074 82.1812 33.542 81.6279C32.9167 81.4884 32.3273 81.3579 31.8055 80.944C31.4591 80.6696 31.0047 80.0173 31.8415 80.0443" fill="#F58553"/>
<path d="M33.1955 83.8863C35.1255 83.7783 37.1815 84.0347 39.1385 84.0347C41.2169 84.0347 43.0615 83.3824 45.0499 82.8156C47.5153 82.1137 51.1503 80.9575 52.8464 78.8791C52.7879 79.9588 51.3798 81.3354 50.624 82.0328C49.4993 83.0675 48.2171 83.6163 46.8495 84.2642C45.5043 84.8985 44.1997 85.2089 42.7735 85.6678C41.2709 86.1447 39.7998 86.5721 38.1982 86.5856C36.6506 86.5991 34.9456 86.869 33.6634 85.9872C33.254 85.7038 31.4545 83.5758 32.7412 83.3644" fill="#BC5127"/>
<path opacity="0.5" d="M33.947 87.7103C34.0685 88.4616 35.1662 88.4976 35.787 88.5965C37.699 88.889 39.8944 89.3568 41.8379 89.0059C43.1381 88.772 44.1863 88.5155 45.32 87.8497C46.0353 87.4313 46.6922 86.905 47.439 86.5361C46.9441 87.9667 45.0726 89.7392 43.7679 90.4186C42.3463 91.1609 40.1104 90.9809 38.5358 91.0124C36.5743 91.0529 33.974 89.8157 33.875 87.5618" fill="#F58553"/>
<path opacity="0.5" d="M33.758 93.8737C33.2226 94.6925 35.9264 95.3493 36.3673 95.4528C37.9689 95.8217 39.7459 95.7542 41.379 95.5922C43.3315 95.3988 45.3199 94.8274 47.169 94.1391C48.4196 93.6712 49.8638 93.2483 50.9165 92.3801C50.8715 93.5138 49.5983 94.6475 48.811 95.3538C48.0147 96.0691 47.1015 96.411 46.0712 96.7034C44.0243 97.2793 42.0673 97.7562 39.9169 97.7562C38.4682 97.7562 36.2548 98.2061 35.2156 97.0004C34.4733 96.1366 34.0594 95.1828 33.7535 94.1031" fill="#F58553"/>
<path d="M33.4205 97.9812C33.9559 99.0024 34.7431 99.2993 35.8634 99.4613C38.0003 99.7762 40.2182 99.6187 42.3822 99.6322C43.3449 99.6367 44.1322 99.3848 44.9915 99.0384C45.8013 98.7145 46.647 98.4985 47.4613 98.1341C48.9324 97.4773 50.4306 96.6 51.9242 96.1006C51.3618 97.4413 49.7782 98.2196 48.667 98.9979C47.5558 99.7762 46.6245 100.509 45.3019 100.964C43.156 101.697 40.6861 102.152 38.4412 102.332C36.4977 102.489 34.5902 102.768 33.497 100.995C32.8941 100.019 32.8177 99.0564 32.8177 97.9047" fill="#BC5127"/>
<path opacity="0.5" d="M30.0914 99.6862C30.0914 104.707 33.497 107.627 38.3287 108.31C41.172 108.715 43.8668 108.261 46.3726 106.691C48.2396 105.521 49.7603 103.794 51.6138 102.588C50.7095 105.346 49.5668 108.337 47.5513 110.506C45.3199 112.904 43.2909 112.323 40.2542 112.521C41.046 113.826 42.8006 113.399 44.1097 113.399C46.2557 113.399 47.5963 113.412 49.4723 112.499C52.0097 111.266 54.1826 109.476 55.7527 107.154C55.5727 108.319 54.5515 109.219 53.9307 110.168C53.2288 111.248 52.5045 112.202 51.6633 113.183C50.3406 114.721 49.0314 116.021 47.1104 116.867C45.9632 117.371 44.6316 117.7 43.3944 117.897C41.3834 118.221 38.9811 118.5 36.9431 118.347C35.472 118.235 34.1853 117.506 33.0471 116.575C30.8067 114.744 30.4153 112.224 29.8664 109.575C29.4256 107.447 30.0779 105.382 29.8754 103.195C29.7855 102.215 28.5258 98.9214 30.4333 99.3398L30.0914 99.6862Z" fill="#F58553"/>
<path opacity="0.4" d="M79.331 96.1006C79.331 96.1006 76.1819 96.2941 75.0572 96.519C73.9324 96.744 70.8643 96.519 70.8643 96.519C70.8643 96.519 70.4099 99.3668 70.1849 103.042C69.96 106.718 69.96 115.716 69.7351 117.362C69.5101 119.013 68.8353 119.238 68.1605 116.089C67.4856 112.94 67.6701 100.892 67.7106 98.9169C67.7106 98.9169 67.0358 98.692 66.5859 98.692C66.136 98.692 65.3802 116.912 65.9875 119.611C66.5949 122.311 67.8995 127.597 70.2614 129.509C72.6233 131.421 76.4473 133.67 78.3593 129.509C80.2713 125.347 81.396 115.882 81.0586 113.979C80.7167 112.076 79.331 96.1006 79.331 96.1006Z" fill="#F58553"/>
<path d="M57.3768 13.6011C57.3768 13.6011 57.4353 11.8871 56.0271 11.4912C54.619 11.0953 53.3279 10.6454 52.0322 10.6454C50.7365 10.6454 49.3869 11.3787 48.937 11.7701C48.4871 12.1615 48.2622 12.7284 48.2622 15.0318C48.2622 17.3352 48.2037 19.7016 47.1915 20.2639C46.1792 20.8263 45.6709 21.1097 45.4459 23.0757C45.221 25.0417 44.7261 28.9511 45.4459 29.599C46.1657 30.2468 46.7416 31.6234 47.3579 32.0193C47.9742 32.4152 49.4409 33.0901 50.0032 33.9313C50.5656 34.7726 51.9737 36.0143 51.9737 36.0143C51.9737 36.0143 53.6248 34.7006 53.5123 33.5759L54.5065 33.9898C54.5065 33.9898 54.3356 35.3395 54.5065 36.0143C54.6775 36.6891 55.6897 38.3762 56.477 37.8138C57.2643 37.2515 56.1396 36.5182 56.4185 36.0143C56.6975 35.5104 56.9269 34.8896 57.3768 35.0021C57.8267 35.1145 59.3428 36.2977 59.7387 37.31C60.1346 38.3222 61.5157 39.4199 61.0118 40.7695C60.508 42.1192 61.9071 43.9097 62.186 44.7555C62.465 45.6013 62.1231 47.7247 62.7979 47.7787C62.7979 47.7787 57.3768 49.3488 56.9269 46.816C56.477 44.2831 55.1274 45.2414 54.4526 43.8917C53.7777 42.5421 48.2667 45.6373 46.4087 39.9553C44.5506 34.2732 42.3012 32.8696 42.3012 32.8696L39.548 33.8279C39.548 33.8279 40.3937 44.6835 38.5177 45.5833C36.6417 46.4831 39.0441 45.4348 34.3923 45.8082C29.745 46.1816 29.817 46.1816 28.7688 46.7845C27.7205 47.3828 25.8445 48.8089 24.5714 49.4838C23.2982 50.1586 21.4402 49.6322 20.0366 52.1651C18.6329 54.6979 17.4272 57.4557 17.0853 57.4782C16.4285 57.5232 17.5082 56.0431 18.237 53.0648C18.9658 50.0866 19.8701 48.5075 20.9948 47.1579C22.1195 45.8082 23.6401 44.2336 25.3812 42.1507C27.1222 40.0677 29.1512 38.5516 29.9925 36.5811C30.8337 34.6107 31.2296 33.261 31.4006 31.349C31.5715 29.437 30.2174 27.6375 30.2174 27.6375C30.2174 27.6375 27.2347 19.931 31.2881 14.6449C35.3416 9.35876 37.7664 8.34652 40.1508 7.89664C40.1508 7.89664 40.6772 6.77193 41.5229 6.71344C42.3687 6.65496 49.5084 5.81368 51.9287 6.71344C54.3491 7.61321 55.6403 8.59396 56.486 9.45323C57.3183 10.308 58.5555 12.8948 57.3768 13.6011Z" fill="#2F1C0F" stroke="#24150B" stroke-width="0.5" stroke-miterlimit="10" stroke-linecap="round" stroke-linejoin="round"/>
<path d="M40.3218 23.908C39.359 23.4716 36.6822 24.052 36.4933 26.4903C36.3043 28.9287 37.654 30.7282 38.3288 32.0374C39.0036 33.351 40.3173 34.6197 41.3295 34.1338C42.3417 33.648 42.3777 32.3343 42.5667 31.8664C42.7556 31.3985 42.4137 29.4281 42.3372 29.3156C42.3372 29.3156 41.6849 28.0874 41.6174 27.3766C41.5544 26.6613 41.6174 24.4929 40.3218 23.908Z" fill="#F8BE89" stroke="#24150B" stroke-width="0.5" stroke-miterlimit="10" stroke-linecap="round" stroke-linejoin="round"/>
<path d="M64.7728 38.3627C64.7728 38.3627 62.6359 37.6879 62.3569 38.3627C62.078 39.0376 63.8775 39.8833 64.7728 42.3577C65.6726 44.832 67.1932 47.9272 66.9682 50.4016C66.7433 52.8759 66.6938 61.4822 66.9907 66.8043C67.2876 72.1264 67.2876 72.1264 67.2876 72.1264C67.2876 72.1264 67.7015 63.1647 68.039 60.128C68.3764 57.0913 69.951 53.1549 69.726 49.8932C69.5011 46.6316 69.609 41.5659 64.7728 38.3627Z" fill="#B04C26"/>
<path d="M72.5378 39.9552C72.5378 39.9552 71.3681 39.4064 70.0904 40.0812C68.8172 40.756 70.7202 43.4418 71.3951 45.9162C72.0699 48.3905 72.6682 66.5748 71.8809 70.1739C71.0936 73.7729 70.9542 76.2113 71.1926 78.0828C71.4311 79.9588 71.431 76.8546 72.4433 73.1206C73.4555 69.3866 73.7929 65.9 74.0179 60.9513C74.2428 56.0026 75.1246 47.8282 72.5378 39.9552Z" fill="#B04C26"/>
<path d="M85.9308 84.3992C85.9308 84.3992 85.4449 84.9345 85.4269 85.7488C85.4089 86.5631 84.6891 87.7463 81.4184 92.0922C81.4184 92.0922 80.2443 95.5967 80.5367 96.9194C80.8246 98.2375 84.3202 120.052 84.5451 123.426C84.7701 126.801 85.6158 128.263 85.6158 128.263C85.6158 128.263 86.7226 123.782 86.3851 116.921C86.0477 110.06 88.0407 100.626 87.8653 100.105C87.6943 99.5827 92.8679 112.404 92.0806 117.241C92.0806 117.241 94.1321 96.8834 86.3042 83.9493" fill="#B04C26"/>
<path d="M93.4303 89.384C93.4303 89.384 97.8842 104.46 97.1194 108.859C97.1149 108.855 100.556 94.8141 93.4303 89.384Z" fill="#B04C26"/>
<path d="M70.4818 99.4883L68.9297 98.7055L67.7061 99.1194L67.9265 118.829L69.78 123.098L70.4818 99.4883Z" fill="#B04C26"/>
<path d="M63.7112 61.8781C63.7112 61.8781 66.127 83.4635 63.8641 89.042C63.8641 89.042 64.1341 92.2722 64.368 95.6238C64.431 96.5191 64.4355 97.6708 64.404 98.9754C64.323 102.556 63.9856 107.316 63.8641 111.271C63.6977 116.669 63.5672 126.238 63.5672 126.238L62.7979 120.705C62.7979 120.705 62.0556 90.6301 62.204 89.7033C62.3525 88.7766 63.1578 83.8684 63.5042 81.4525C63.8506 79.0321 62.204 64.339 62.204 64.339L63.7112 61.8781Z" fill="#B04C26"/>
<path d="M63.2747 51.2384C63.2747 51.2384 63.7291 57.3883 63.7831 58.8415C63.8326 60.2946 63.8326 60.2946 63.6706 61.7657C63.0138 62.8364 64.089 66.9393 63.9945 67.3307C63.9001 67.7266 63.999 70.201 63.999 70.201C63.999 70.201 64.8673 67.0968 64.8358 63.8396C64.7998 60.5825 64.8718 57.2849 64.8358 55.9532C64.7998 54.6216 64.1745 47.5944 64.0665 47.4234C63.9586 47.2525 62.2985 44.3282 62.2985 44.3282C62.2985 44.3282 62.24 46.9781 62.8024 47.7654C63.6526 48.6561 63.2747 51.2384 63.2747 51.2384Z" fill="#B04C26"/>
<path d="M75.4396 45.0165C75.4396 45.0165 75.6106 55.9531 75.4396 60.326C75.2731 64.6989 76.5103 71.4471 75.4396 74.5963C74.3734 77.7455 74.3734 80.2198 74.4859 80.7822C74.5983 81.3445 75.4396 82.7167 75.4396 82.7167L77.5361 82.1588C77.5361 82.1588 79.4301 78.4248 80.3298 77.525C81.2296 76.6252 85.5035 75.2711 87.0781 75.5545C87.0781 75.5545 90.7131 74.5648 85.9174 73.5885C85.9174 73.5885 84.2663 72.2389 83.3665 72.9902C82.4668 73.7415 84.7162 68.7928 87.0421 67.965C87.0421 67.965 83.443 66.089 81.7919 69.4631C80.1409 72.8372 83.5915 63.6146 84.9411 62.9398C84.9411 62.9398 82.5432 62.0401 80.8922 65.5626C80.8922 65.5626 80.2938 64.0645 80.1409 63.3897C79.9924 62.7149 79.3176 60.9918 79.1646 60.0156C79.0162 59.0393 78.9397 56.3401 77.7385 52.9659C76.5463 49.5918 76.8072 44.4182 75.4396 45.0165Z" fill="#B04C26"/>
<path d="M58.4116 29.8959C58.2406 29.797 58.0742 29.3876 57.6243 29.8959C57.1744 30.4043 56.3871 31.2186 55.9642 31.4705C55.5414 31.7225 55.006 32.7347 53.8813 32.6222C52.7566 32.5098 51.8838 31.9024 51.2945 31.5245C50.7051 31.1466 51.8433 32.3703 51.8433 32.3703C51.8433 32.3703 52.5316 34.5927 54.3762 34.1428C56.2162 33.6885 56.7245 33.7469 57.5118 33.3825C58.2991 33.0181 59.2214 33.0901 59.2214 33.0901C59.2214 33.0901 60.1706 33.4545 59.8062 31.6865C59.6938 31.1286 59.2844 30.4178 58.4116 29.8959Z" fill="#2F1C0F" stroke="#24150B" stroke-width="0.5" stroke-miterlimit="10" stroke-linecap="round" stroke-linejoin="round"/>
<path opacity="0.5" d="M65.1912 38.6507C65.1912 38.6507 69.3931 41.0261 69.6406 48.5301C69.8925 56.0342 67.9895 57.3793 68.057 59.9482C68.1245 62.517 67.2112 67.9516 67.2607 71.6631C67.3102 75.3746 68.5429 84.8986 68.5429 84.8986C68.5429 84.8986 68.4079 66.0846 69.0917 63.4572C69.78 60.8299 71.8045 55.3099 71.2421 49.0205C70.6798 42.7357 69.0107 38.2773 65.1912 38.6507Z" fill="#F58553"/>
<path opacity="0.5" d="M75.9165 41.5839C75.9165 41.5839 73.9595 39.8383 72.5334 39.9553C72.5334 39.9553 75.7186 51.4588 74.3419 59.7096C72.9653 67.956 74.0765 67.8705 73.1092 70.2009C72.142 72.5313 71.3772 78.5372 71.3772 78.5372C71.3907 79.9543 71.3772 84.5296 71.3772 84.5296C71.3772 84.5296 71.7641 84.6601 72.2905 82.1183C72.8168 79.5809 72.1015 77.7814 73.4332 74.0294C74.7648 70.2818 75.867 69.2921 75.6961 66.6738C75.5251 64.0555 75.5476 48.7235 75.4306 47.2254C75.3317 45.9837 75.7186 46.0422 75.9165 41.5839Z" fill="#F58553"/>
<path d="M77.9454 81.3715C77.1896 82.7572 73.2261 85.7939 71.71 86.8601C70.1894 87.9308 70.0635 89.6044 68.1695 90.954C66.7748 91.9483 69.1772 92.7715 70.6078 92.4116C71.3276 92.2272 72.0654 91.0395 72.0654 91.0395C72.0654 91.0395 70.8822 93.7073 68.6328 95.5248C67.5171 96.4246 66.6623 96.4741 66.6084 97.3199C66.5544 98.1656 67.6656 99.3083 69.4066 98.4671C69.4066 98.4671 70.9272 100.253 72.3894 99.0069C72.3894 99.0069 74.5263 99.7267 75.2596 98.9979C75.2596 98.9979 76.8927 99.7312 78.4673 98.2646C80.0419 96.798 82.0933 93.8288 82.7546 92.992C83.6544 91.8538 86.8981 88.3942 86.2997 84.2193C86.2997 84.2193 86.5517 83.9494 84.5587 81.8439C83.308 80.5257 78.6517 80.0759 77.9454 81.3715Z" fill="#F8BE89" stroke="#24150B" stroke-width="0.5" stroke-miterlimit="10" stroke-linecap="round" stroke-linejoin="round"/>
<path d="M62.2355 82.4062C62.2355 82.4062 53.4493 91.6648 46.0218 91.1609C46.0218 91.1564 57.4533 93.2214 62.2355 82.4062Z" fill="#BC5127"/>
<path d="M62.2356 88.8351C62.2356 88.8351 53.3729 103.605 50.0753 104.055C50.0753 104.055 58.0607 100.573 62.5955 94.7601L62.2356 88.8351Z" fill="#BC5127"/>
<path d="M63.1847 71.1142C63.1847 71.1142 54.3221 85.8838 51.0244 86.3337C51.0244 86.3337 59.0098 82.8516 63.5446 77.0391L63.1847 71.1142Z" fill="#BC5127"/>
<path d="M62.2355 99.6323C62.2355 99.6323 58.0381 110.092 54.1286 112.004C54.1286 112.004 57.1968 113.016 60.346 109.98C60.346 109.98 55.0959 135.173 43.102 139.82C43.102 139.82 57.3273 134.102 62.24 119.724C62.5954 118.676 62.2355 99.6323 62.2355 99.6323Z" fill="#BC5127"/>
<path d="M62.5954 67.0157C62.5954 67.0157 60.5349 71.6765 56.333 73.2241C56.333 73.2241 60.346 73.3141 62.5954 70.6148V67.0157Z" fill="#BC5127"/>
<path opacity="0.5" d="M75.678 41.3859C75.678 41.3859 76.9062 42.4656 77.0007 43.01C77.0007 43.01 79.4975 43.4059 80.7797 45.7363C82.0573 48.0712 81.9449 49.2499 82.1878 49.5738C82.1878 49.5738 82.9481 50.6985 84.9456 51.5983C86.9431 52.498 87.5054 55.6382 87.168 57.2668C87.168 57.2668 90.6366 60.4025 91.3114 63.4392C91.3114 63.4392 91.9772 65.4456 91.9503 65.9225C91.9233 66.3994 93.6373 73.1251 94.5371 74.2903C94.5371 74.2903 92.3417 72.6438 91.6128 70.5653C90.884 68.4868 88.4637 61.4552 86.9431 59.7681C85.4225 58.0811 83.9603 57.1813 80.7572 52.1741C77.554 47.1669 77.1896 45.9702 76.4833 44.967C75.7725 43.9637 74.3553 43.118 74.3553 43.118L75.678 41.3859Z" fill="#F58553"/>
<path opacity="0.5" d="M80.4423 80.1792C80.4423 80.1792 89.9123 76.0268 93.8083 82.712C93.8128 82.7165 90.3937 71.483 80.4423 80.1792Z" fill="#F58553"/>
<path opacity="0.5" d="M80.5367 80.1298C80.5367 80.1298 90.857 79.473 92.2292 87.0895C92.2247 87.0895 92.8635 75.3655 80.5367 80.1298Z" fill="#F58553"/>
<path d="M39.278 59.2868C39.278 58.9764 39.5299 58.7289 39.8359 58.7289C40.1418 58.7289 40.3937 58.9809 40.3937 59.2868C40.3937 59.5972 40.1418 59.8446 39.8359 59.8446C39.5299 59.8446 39.278 59.5927 39.278 59.2868Z" fill="#2F1C0F" stroke="#24150B" stroke-width="0.5" stroke-miterlimit="10" stroke-linecap="round" stroke-linejoin="round"/>
<path d="M36.1558 46.2762C36.1558 45.9658 36.4078 45.7183 36.7137 45.7183C37.0241 45.7183 37.2715 45.9703 37.2715 46.2762C37.2715 46.5866 37.0196 46.834 36.7137 46.834C36.4033 46.834 36.1558 46.5866 36.1558 46.2762Z" fill="#2F1C0F" stroke="#24150B" stroke-width="0.5" stroke-miterlimit="10" stroke-linecap="round" stroke-linejoin="round"/>
<path d="M36.1558 47.3964C36.1558 47.0859 36.4078 46.8385 36.7137 46.8385C37.0241 46.8385 37.2715 47.0904 37.2715 47.3964C37.2715 47.7023 37.0196 47.9542 36.7137 47.9542C36.4033 47.9542 36.1558 47.7068 36.1558 47.3964Z" fill="#2F1C0F" stroke="#24150B" stroke-width="0.5" stroke-miterlimit="10" stroke-linecap="round" stroke-linejoin="round"/>
<path d="M38.8371 58.1666C38.8371 57.8561 39.0891 57.6087 39.395 57.6087C39.7009 57.6087 39.9528 57.8606 39.9528 58.1666C39.9528 58.477 39.7009 58.7244 39.395 58.7244C39.0891 58.7244 38.8371 58.477 38.8371 58.1666Z" fill="#2F1C0F" stroke="#24150B" stroke-width="0.5" stroke-miterlimit="10" stroke-linecap="round" stroke-linejoin="round"/>
<path d="M38.2792 57.0464C38.2792 56.736 38.5312 56.4885 38.8371 56.4885C39.1475 56.4885 39.3949 56.7405 39.3949 57.0464C39.3949 57.3568 39.143 57.6042 38.8371 57.6042C38.5312 57.6042 38.2792 57.3568 38.2792 57.0464Z" fill="#2F1C0F" stroke="#24150B" stroke-width="0.5" stroke-miterlimit="10" stroke-linecap="round" stroke-linejoin="round"/>
<path d="M37.7169 55.8273C37.7169 55.5168 37.9688 55.2694 38.2748 55.2694C38.5807 55.2694 38.8326 55.5213 38.8326 55.8273C38.8326 56.1377 38.5807 56.3851 38.2748 56.3851C37.9688 56.3851 37.7169 56.1377 37.7169 55.8273Z" fill="#2F1C0F" stroke="#24150B" stroke-width="0.5" stroke-miterlimit="10" stroke-linecap="round" stroke-linejoin="round"/>
<path d="M37.3255 54.5315C37.3255 54.2211 37.5774 53.9736 37.8833 53.9736C38.1892 53.9736 38.4412 54.2256 38.4412 54.5315C38.4412 54.8419 38.1892 55.0893 37.8833 55.0893C37.5774 55.0893 37.3255 54.8419 37.3255 54.5315Z" fill="#2F1C0F" stroke="#24150B" stroke-width="0.5" stroke-miterlimit="10" stroke-linecap="round" stroke-linejoin="round"/>
<path d="M36.8306 53.3394C36.8306 53.029 37.0826 52.7816 37.3885 52.7816C37.6944 52.7816 37.9463 53.0335 37.9463 53.3394C37.9463 53.6498 37.6944 53.8973 37.3885 53.8973C37.0826 53.8973 36.8306 53.6498 36.8306 53.3394Z" fill="#2F1C0F" stroke="#24150B" stroke-width="0.5" stroke-miterlimit="10" stroke-linecap="round" stroke-linejoin="round"/>
<path d="M36.3852 52.1157C36.3852 51.8053 36.6371 51.5579 36.943 51.5579C37.2535 51.5579 37.5009 51.8098 37.5009 52.1157C37.5009 52.4261 37.249 52.6736 36.943 52.6736C36.6371 52.6781 36.3852 52.4261 36.3852 52.1157Z" fill="#2F1C0F" stroke="#24150B" stroke-width="0.5" stroke-miterlimit="10" stroke-linecap="round" stroke-linejoin="round"/>
<path d="M36.1558 50.928C36.1558 50.6176 36.4078 50.3702 36.7137 50.3702C37.0241 50.3702 37.2715 50.6221 37.2715 50.928C37.2715 51.2385 37.0196 51.4859 36.7137 51.4859C36.4033 51.4859 36.1558 51.2385 36.1558 50.928Z" fill="#2F1C0F" stroke="#24150B" stroke-width="0.5" stroke-miterlimit="10" stroke-linecap="round" stroke-linejoin="round"/>
<path d="M36.0208 49.6323C36.0208 49.3219 36.2727 49.0745 36.5786 49.0745C36.8891 49.0745 37.1365 49.3264 37.1365 49.6323C37.1365 49.9427 36.8846 50.1902 36.5786 50.1902C36.2727 50.1947 36.0208 49.9427 36.0208 49.6323Z" fill="#2F1C0F" stroke="#24150B" stroke-width="0.5" stroke-miterlimit="10" stroke-linecap="round" stroke-linejoin="round"/>
<path d="M36.0208 48.5166C36.0208 48.2062 36.2727 47.9587 36.5786 47.9587C36.8891 47.9587 37.1365 48.2107 37.1365 48.5166C37.1365 48.827 36.8846 49.0745 36.5786 49.0745C36.2727 49.0745 36.0208 48.8225 36.0208 48.5166Z" fill="#2F1C0F" stroke="#24150B" stroke-width="0.5" stroke-miterlimit="10" stroke-linecap="round" stroke-linejoin="round"/>
<path d="M39.8403 60.5914C39.8403 60.281 40.0923 60.0336 40.3982 60.0336C40.7086 60.0336 40.956 60.2855 40.956 60.5914C40.956 60.9018 40.7041 61.1493 40.3982 61.1493C40.0923 61.1493 39.8403 60.8973 39.8403 60.5914Z" fill="#2F1C0F" stroke="#24150B" stroke-width="0.5" stroke-miterlimit="10" stroke-linecap="round" stroke-linejoin="round"/>
<path d="M40.3982 61.7656C40.3982 61.4552 40.6501 61.2078 40.9561 61.2078C41.262 61.2078 41.5139 61.4597 41.5139 61.7656C41.5139 62.0715 41.262 62.3235 40.9561 62.3235C40.6501 62.3235 40.3982 62.076 40.3982 61.7656Z" fill="#2F1C0F" stroke="#24150B" stroke-width="0.5" stroke-miterlimit="10" stroke-linecap="round" stroke-linejoin="round"/>
<path d="M41.0955 62.8903C41.0955 62.5799 41.3474 62.3325 41.6533 62.3325C41.9637 62.3325 42.2112 62.5844 42.2112 62.8903C42.2112 63.2007 41.9592 63.4482 41.6533 63.4482C41.3474 63.4482 41.0955 63.2007 41.0955 62.8903Z" fill="#2F1C0F" stroke="#24150B" stroke-width="0.5" stroke-miterlimit="10" stroke-linecap="round" stroke-linejoin="round"/>
<path d="M41.6579 64.1095C41.6579 63.7991 41.9098 63.5517 42.2158 63.5517C42.5262 63.5517 42.7736 63.8036 42.7736 64.1095C42.7736 64.42 42.5217 64.6674 42.2158 64.6674C41.9053 64.6674 41.6579 64.4155 41.6579 64.1095Z" fill="#2F1C0F" stroke="#24150B" stroke-width="0.5" stroke-miterlimit="10" stroke-linecap="round" stroke-linejoin="round"/>
<path d="M42.2157 65.3017C42.2157 64.9913 42.4676 64.7438 42.7735 64.7438C43.0795 64.7438 43.3314 64.9958 43.3314 65.3017C43.3314 65.6121 43.0795 65.8595 42.7735 65.8595C42.4676 65.8595 42.2157 65.6121 42.2157 65.3017Z" fill="#2F1C0F" stroke="#24150B" stroke-width="0.5" stroke-miterlimit="10" stroke-linecap="round" stroke-linejoin="round"/>
<path d="M42.9714 66.4219C42.9714 66.1115 43.2234 65.8641 43.5293 65.8641C43.8352 65.8641 44.0871 66.116 44.0871 66.4219C44.0871 66.7324 43.8352 66.9798 43.5293 66.9798C43.2234 66.9798 42.9714 66.7324 42.9714 66.4219Z" fill="#2F1C0F" stroke="#24150B" stroke-width="0.5" stroke-miterlimit="10" stroke-linecap="round" stroke-linejoin="round"/>
<path d="M43.6553 67.5421C43.6553 67.2317 43.9072 66.9843 44.2132 66.9843C44.5236 66.9843 44.771 67.2362 44.771 67.5421C44.771 67.8525 44.5191 68.1 44.2132 68.1C43.9027 68.1 43.6553 67.8525 43.6553 67.5421Z" fill="#2F1C0F" stroke="#24150B" stroke-width="0.5" stroke-miterlimit="10" stroke-linecap="round" stroke-linejoin="round"/>
<path d="M44.2132 68.7524C44.2132 68.4419 44.4652 68.1945 44.7711 68.1945C45.0815 68.1945 45.3289 68.4464 45.3289 68.7524C45.3289 69.0628 45.077 69.3102 44.7711 69.3102C44.4652 69.3147 44.2132 69.0628 44.2132 68.7524Z" fill="#2F1C0F" stroke="#24150B" stroke-width="0.5" stroke-miterlimit="10" stroke-linecap="round" stroke-linejoin="round"/>
<path d="M45.5808 70.4303C45.8889 70.4303 46.1387 70.1806 46.1387 69.8725C46.1387 69.5644 45.8889 69.3146 45.5808 69.3146C45.2727 69.3146 45.0229 69.5644 45.0229 69.8725C45.0229 70.1806 45.2727 70.4303 45.5808 70.4303Z" fill="#2F1C0F" stroke="#24150B" stroke-width="0.5" stroke-miterlimit="10" stroke-linecap="round" stroke-linejoin="round"/>
<path d="M45.8958 70.8713C45.8958 70.5608 46.1477 70.3134 46.4536 70.3134C46.7595 70.3134 47.0115 70.5653 47.0115 70.8713C47.0115 71.1817 46.7595 71.4291 46.4536 71.4291C46.1477 71.4291 45.8958 71.1817 45.8958 70.8713Z" fill="#2F1C0F" stroke="#24150B" stroke-width="0.5" stroke-miterlimit="10" stroke-linecap="round" stroke-linejoin="round"/>
<path d="M46.8765 71.5641C46.8765 71.2537 47.1284 71.0063 47.4343 71.0063C47.7448 71.0063 47.9922 71.2582 47.9922 71.5641C47.9922 71.8701 47.7403 72.122 47.4343 72.122C47.1284 72.122 46.8765 71.8701 46.8765 71.5641Z" fill="#2F1C0F" stroke="#24150B" stroke-width="0.5" stroke-miterlimit="10" stroke-linecap="round" stroke-linejoin="round"/>
<path d="M47.9967 71.9914C47.9967 71.681 48.2486 71.4335 48.5546 71.4335C48.865 71.4335 49.1124 71.6855 49.1124 71.9914C49.1124 72.3018 48.8605 72.5492 48.5546 72.5492C48.2486 72.5492 47.9967 72.3018 47.9967 71.9914Z" fill="#2F1C0F" stroke="#24150B" stroke-width="0.5" stroke-miterlimit="10" stroke-linecap="round" stroke-linejoin="round"/>
<path d="M49.2024 72.3649C49.2024 72.0545 49.4543 71.8071 49.7602 71.8071C50.0662 71.8071 50.3181 72.059 50.3181 72.3649C50.3181 72.6753 50.0662 72.9228 49.7602 72.9228C49.4543 72.9228 49.2024 72.6753 49.2024 72.3649Z" fill="#2F1C0F" stroke="#24150B" stroke-width="0.5" stroke-miterlimit="10" stroke-linecap="round" stroke-linejoin="round"/>
<path d="M50.426 72.5493C50.426 72.2388 50.678 71.9914 50.9839 71.9914C51.2943 71.9914 51.5417 72.2433 51.5417 72.5493C51.5417 72.8597 51.2898 73.1071 50.9839 73.1071C50.6735 73.1116 50.426 72.8597 50.426 72.5493Z" fill="#2F1C0F" stroke="#24150B" stroke-width="0.5" stroke-miterlimit="10" stroke-linecap="round" stroke-linejoin="round"/>
<path d="M51.6453 72.3649C51.6453 72.0545 51.8972 71.8071 52.2031 71.8071C52.5135 71.8071 52.761 72.059 52.761 72.3649C52.761 72.6753 52.509 72.9228 52.2031 72.9228C51.8927 72.9273 51.6453 72.6753 51.6453 72.3649Z" fill="#2F1C0F" stroke="#24150B" stroke-width="0.5" stroke-miterlimit="10" stroke-linecap="round" stroke-linejoin="round"/>
<path d="M52.8779 72.122C52.8779 71.8116 53.1299 71.5641 53.4358 71.5641C53.7462 71.5641 53.9936 71.8161 53.9936 72.122C53.9936 72.4279 53.7417 72.6798 53.4358 72.6798C53.1254 72.6798 52.8779 72.4324 52.8779 72.122Z" fill="#2F1C0F" stroke="#24150B" stroke-width="0.5" stroke-miterlimit="10" stroke-linecap="round" stroke-linejoin="round"/>
<path d="M53.9037 71.4335C53.9037 71.1231 54.1557 70.8757 54.4616 70.8757C54.772 70.8757 55.0194 71.1276 55.0194 71.4335C55.0194 71.7439 54.7675 71.9914 54.4616 71.9914C54.1512 71.9914 53.9037 71.7394 53.9037 71.4335Z" fill="#2F1C0F" stroke="#24150B" stroke-width="0.5" stroke-miterlimit="10" stroke-linecap="round" stroke-linejoin="round"/>
<path d="M54.9834 70.7949C54.9834 70.4844 55.2354 70.237 55.5413 70.237C55.8517 70.237 56.0991 70.4889 56.0991 70.7949C56.0991 71.1053 55.8472 71.3527 55.5413 71.3527C55.2354 71.3527 54.9834 71.1053 54.9834 70.7949Z" fill="#2F1C0F" stroke="#24150B" stroke-width="0.5" stroke-miterlimit="10" stroke-linecap="round" stroke-linejoin="round"/>
<path d="M55.9957 70.2009C55.9957 69.8905 56.2476 69.643 56.5536 69.643C56.864 69.643 57.1114 69.8949 57.1114 70.2009C57.1114 70.5113 56.8595 70.7587 56.5536 70.7587C56.2476 70.7587 55.9957 70.5113 55.9957 70.2009Z" fill="#2F1C0F" stroke="#24150B" stroke-width="0.5" stroke-miterlimit="10" stroke-linecap="round" stroke-linejoin="round"/>
<path d="M56.7245 69.1752C56.7245 68.8648 56.9764 68.6174 57.2823 68.6174C57.5882 68.6174 57.8402 68.8693 57.8402 69.1752C57.8402 69.4812 57.5882 69.7331 57.2823 69.7331C56.9764 69.7331 56.7245 69.4857 56.7245 69.1752Z" fill="#2F1C0F" stroke="#24150B" stroke-width="0.5" stroke-miterlimit="10" stroke-linecap="round" stroke-linejoin="round"/>
<path d="M57.0618 68.1C57.0618 67.7896 57.3138 67.5422 57.6197 67.5422C57.9301 67.5422 58.1775 67.7941 58.1775 68.1C58.1775 68.4104 57.9256 68.6579 57.6197 68.6579C57.3138 68.6624 57.0618 68.4104 57.0618 68.1Z" fill="#2F1C0F" stroke="#24150B" stroke-width="0.5" stroke-miterlimit="10" stroke-linecap="round" stroke-linejoin="round"/>
<path d="M57.5253 66.8763C57.5253 66.5659 57.7772 66.3185 58.0831 66.3185C58.389 66.3185 58.641 66.5704 58.641 66.8763C58.641 67.1868 58.389 67.4342 58.0831 67.4342C57.7772 67.4342 57.5253 67.1868 57.5253 66.8763Z" fill="#2F1C0F" stroke="#24150B" stroke-width="0.5" stroke-miterlimit="10" stroke-linecap="round" stroke-linejoin="round"/>
<path d="M57.7051 65.7561C57.7051 65.4457 57.957 65.1982 58.2629 65.1982C58.5689 65.1982 58.8208 65.4502 58.8208 65.7561C58.8208 66.0665 58.5689 66.3139 58.2629 66.3139C57.957 66.3139 57.7051 66.0665 57.7051 65.7561Z" fill="#2F1C0F" stroke="#24150B" stroke-width="0.5" stroke-miterlimit="10" stroke-linecap="round" stroke-linejoin="round"/>
<path d="M57.8447 64.4649C57.8447 64.1545 58.0966 63.907 58.4025 63.907C58.7129 63.907 58.9604 64.159 58.9604 64.4649C58.9604 64.7753 58.7084 65.0228 58.4025 65.0228C58.0966 65.0228 57.8447 64.7753 57.8447 64.4649Z" fill="#2F1C0F" stroke="#24150B" stroke-width="0.5" stroke-miterlimit="10" stroke-linecap="round" stroke-linejoin="round"/>
<path d="M58.0156 63.2007C58.0156 62.8903 58.2675 62.6429 58.5734 62.6429C58.8838 62.6429 59.1313 62.8948 59.1313 63.2007C59.1313 63.5112 58.8793 63.7586 58.5734 63.7586C58.2675 63.7586 58.0156 63.5067 58.0156 63.2007Z" fill="#2F1C0F" stroke="#24150B" stroke-width="0.5" stroke-miterlimit="10" stroke-linecap="round" stroke-linejoin="round"/>
<path d="M58.182 61.9231C58.182 61.6127 58.4339 61.3652 58.7399 61.3652C59.0458 61.3652 59.2977 61.6172 59.2977 61.9231C59.2977 62.229 59.0458 62.4809 58.7399 62.4809C58.4339 62.4809 58.182 62.2335 58.182 61.9231Z" fill="#2F1C0F" stroke="#24150B" stroke-width="0.5" stroke-miterlimit="10" stroke-linecap="round" stroke-linejoin="round"/>
<path d="M58.182 57.0464C58.182 56.736 58.4339 56.4885 58.7399 56.4885C59.0458 56.4885 59.2977 56.7405 59.2977 57.0464C59.2977 57.3568 59.0458 57.6042 58.7399 57.6042C58.4339 57.6042 58.182 57.3568 58.182 57.0464Z" fill="#2F1C0F" stroke="#24150B" stroke-width="0.5" stroke-miterlimit="10" stroke-linecap="round" stroke-linejoin="round"/>
<path d="M58.2675 58.2791C58.2675 57.9686 58.5195 57.7212 58.8254 57.7212C59.1313 57.7212 59.3832 57.9731 59.3832 58.2791C59.3832 58.5895 59.1313 58.8369 58.8254 58.8369C58.5195 58.8369 58.2675 58.5895 58.2675 58.2791Z" fill="#2F1C0F" stroke="#24150B" stroke-width="0.5" stroke-miterlimit="10" stroke-linecap="round" stroke-linejoin="round"/>
<path d="M58.3395 59.4712C58.3395 59.1608 58.5914 58.9134 58.8974 58.9134C59.2078 58.9134 59.4552 59.1653 59.4552 59.4712C59.4552 59.7817 59.2033 60.0291 58.8974 60.0291C58.5914 60.0291 58.3395 59.7817 58.3395 59.4712Z" fill="#2F1C0F" stroke="#24150B" stroke-width="0.5" stroke-miterlimit="10" stroke-linecap="round" stroke-linejoin="round"/>
<path d="M58.2675 60.6904C58.2675 60.38 58.5195 60.1326 58.8254 60.1326C59.1313 60.1326 59.3832 60.3845 59.3832 60.6904C59.3832 61.0008 59.1313 61.2483 58.8254 61.2483C58.5195 61.2483 58.2675 61.0008 58.2675 60.6904Z" fill="#2F1C0F" stroke="#24150B" stroke-width="0.5" stroke-miterlimit="10" stroke-linecap="round" stroke-linejoin="round"/>
<path d="M58.182 55.8273C58.182 55.5168 58.4339 55.2694 58.7399 55.2694C59.0458 55.2694 59.2977 55.5213 59.2977 55.8273C59.2977 56.1377 59.0458 56.3851 58.7399 56.3851C58.4339 56.3851 58.182 56.1377 58.182 55.8273Z" fill="#2F1C0F" stroke="#24150B" stroke-width="0.5" stroke-miterlimit="10" stroke-linecap="round" stroke-linejoin="round"/>
<path d="M58.1281 54.5315C58.1281 54.2211 58.38 53.9736 58.6859 53.9736C58.9918 53.9736 59.2438 54.2256 59.2438 54.5315C59.2438 54.8419 58.9918 55.0893 58.6859 55.0893C58.38 55.0893 58.1281 54.8419 58.1281 54.5315Z" fill="#2F1C0F" stroke="#24150B" stroke-width="0.5" stroke-miterlimit="10" stroke-linecap="round" stroke-linejoin="round"/>
<path d="M57.4307 48.0983C57.4307 47.7878 57.6826 47.5404 57.9885 47.5404C58.2989 47.5404 58.5464 47.7923 58.5464 48.0983C58.5464 48.4087 58.2944 48.6561 57.9885 48.6561C57.6826 48.6561 57.4307 48.4042 57.4307 48.0983Z" fill="#2F1C0F" stroke="#24150B" stroke-width="0.5" stroke-miterlimit="10" stroke-linecap="round" stroke-linejoin="round"/>
<path d="M57.7051 49.3578C57.7051 49.0474 57.957 48.8 58.2629 48.8C58.5689 48.8 58.8208 49.0519 58.8208 49.3578C58.8208 49.6683 58.5689 49.9157 58.2629 49.9157C57.957 49.9157 57.7051 49.6638 57.7051 49.3578Z" fill="#2F1C0F" stroke="#24150B" stroke-width="0.5" stroke-miterlimit="10" stroke-linecap="round" stroke-linejoin="round"/>
<path d="M57.8627 50.676C57.8627 50.3655 58.1146 50.1181 58.4206 50.1181C58.731 50.1181 58.9784 50.37 58.9784 50.676C58.9784 50.9864 58.7265 51.2338 58.4206 51.2338C58.1146 51.2383 57.8627 50.9864 57.8627 50.676Z" fill="#2F1C0F" stroke="#24150B" stroke-width="0.5" stroke-miterlimit="10" stroke-linecap="round" stroke-linejoin="round"/>
<path d="M57.9931 51.9447C57.9931 51.6343 58.245 51.3868 58.551 51.3868C58.8614 51.3868 59.1088 51.6388 59.1088 51.9447C59.1088 52.2551 58.8569 52.5026 58.551 52.5026C58.2405 52.5026 57.9931 52.2506 57.9931 51.9447Z" fill="#2F1C0F" stroke="#24150B" stroke-width="0.5" stroke-miterlimit="10" stroke-linecap="round" stroke-linejoin="round"/>
<path d="M58.0695 53.2359C58.0695 52.9255 58.3215 52.678 58.6274 52.678C58.9333 52.678 59.1852 52.93 59.1852 53.2359C59.1852 53.5463 58.9333 53.7938 58.6274 53.7938C58.3215 53.7938 58.0695 53.5463 58.0695 53.2359Z" fill="#2F1C0F" stroke="#24150B" stroke-width="0.5" stroke-miterlimit="10" stroke-linecap="round" stroke-linejoin="round"/>
<path d="M51.0244 65.3016C51.0244 65.3016 49.1709 69.7465 47.5963 69.6385C46.0217 69.5305 53.8452 68.0999 53.8452 68.0999C53.8452 68.0999 51.5508 67.2361 50.9524 65.1982" fill="#EDA06B"/>
<path d="M77.2392 91.7054C77.2392 91.7054 75.6061 98.1657 72.3309 98.836C72.3309 98.836 76.7578 97.7113 77.2392 91.7054Z" fill="#EDA06B"/>
<path d="M79.1241 92.992C79.1241 92.992 78.0354 98.4761 75.2596 98.9934C75.2596 98.9934 78.9307 99.1644 79.1241 92.992Z" fill="#EDA06B"/>
<path d="M39.6514 25.2171C38.8956 25.3296 37.2311 25.9145 37.2671 26.8907C37.303 27.8669 37.7124 29.5225 38.3558 30.6067C38.9991 31.6954 40.0383 32.7122 40.7671 32.0643C41.4959 31.421 42.3102 31.0521 41.6129 29.707C40.9876 28.5013 40.4117 29.6215 40.0968 28.6497C39.7819 27.6735 40.6817 27.6195 40.7851 27.0572C40.8931 26.4948 40.4117 25.1047 39.6514 25.2171Z" fill="#EDA572"/>
<path d="M49.8548 22.5583C49.8548 22.5583 52.6936 19.4631 54.718 19.6611C56.7425 19.859 57.6153 20.8128 57.6153 20.8128C57.6153 20.8128 57.8672 21.6586 57.4758 21.4336C57.0844 21.2087 55.2264 20.2504 53.9892 20.5878C52.752 20.9253 49.8548 22.5583 49.8548 22.5583Z" fill="#2F1C0F" stroke="#24150B" stroke-width="0.5" stroke-miterlimit="10" stroke-linecap="round" stroke-linejoin="round"/>
<path d="M56.0136 12.1841C56.2026 12.3235 56.648 19.9041 58.6859 19.6521" stroke="#C65E28" stroke-width="0.5" stroke-miterlimit="10" stroke-linecap="round" stroke-linejoin="round"/>
<path d="M52.5945 24.4928L52.9589 24.0025C52.9589 24.0025 54.5515 22.2479 55.6942 22.2794C55.9236 22.2884 56.5669 22.5538 56.5669 22.5538L52.5945 24.4928Z" fill="#DB915D"/>
<path d="M56.504 24.6324C56.504 24.6324 54.61 24.8393 53.1974 24.151C53.1974 24.151 54.5605 25.0598 56.5175 24.9428C56.6795 24.8483 56.7155 24.6144 56.504 24.6324Z" fill="#271C0F"/>
<path d="M56.504 24.6324C56.504 24.6324 57.2463 23.3952 56.2836 22.9003L53.1974 24.151C53.1974 24.151 54.4886 24.8843 56.504 24.6324Z" fill="white"/>
<path d="M56.2835 22.9003C56.2835 22.9003 55.9866 22.8868 55.8157 23.0893C55.5052 23.4582 55.2578 24.3355 56.0316 24.6594C56.2116 24.7358 56.387 24.7179 56.504 24.6324C56.504 24.6324 57.2688 23.4312 56.2835 22.9003Z" fill="#271C0F"/>
<path d="M56.5895 23.8225C56.5895 24.1374 56.4455 24.3803 56.2611 24.3624C56.0766 24.3489 55.9237 24.0789 55.9237 23.764C55.9192 23.4491 56.0676 23.2061 56.2521 23.2241C56.4365 23.2376 56.585 23.5076 56.5895 23.8225Z" fill="black"/>
<path d="M53.1973 24.151C53.3728 24.1105 56.369 22.8778 56.7649 22.6979C56.7649 22.6979 56.9493 22.5539 56.5669 22.5584C56.1845 22.5584 52.9769 24.2005 53.1973 24.151Z" fill="#271C0F"/>
<path d="M54.574 23.9845C54.574 23.9845 55.6312 24.07 55.7707 23.9261C55.9101 23.7821 55.9506 24.178 55.8426 24.295C55.7347 24.4164 54.5965 24.196 54.574 23.9845Z" fill="white"/>
<path opacity="0.4" d="M53.1974 24.151C53.1974 24.151 54.6685 23.6426 54.889 23.6741C55.1094 23.7056 55.1814 24.4164 55.0014 24.4389C54.817 24.4614 54.1062 24.4704 53.7777 24.3894C53.5033 24.3264 53.1974 24.151 53.1974 24.151Z" fill="#D8D8D8"/>
<path d="M56.8145 25.1406C56.8145 25.1406 55.6673 26.3238 54.1646 25.7165C54.1602 25.7165 56.1441 26.7692 56.8145 25.1406Z" fill="#F8BE89"/>
<path d="M57.6242 28.0874C57.3993 28.0874 57.0439 28.0739 56.8864 28.2674C56.7425 28.4383 56.684 28.7487 56.756 28.9602C56.9314 29.4955 57.5703 29.6215 58.0651 29.59C58.0966 29.59 58.1596 29.7205 58.1911 29.7115" stroke="#24150B" stroke-width="0.5" stroke-miterlimit="10" stroke-linecap="round" stroke-linejoin="round"/>
<path d="M39.6874 25.2441C39.6874 25.2441 37.5819 26.1394 38.0048 27.2056C38.4277 28.2718 38.6527 30.1569 39.188 30.5797C39.7234 31.0026 40.5287 31.9294 41.307 31.3131L41.8333 30.9172C41.8333 30.9172 41.3969 32.6312 39.9753 32.1408C38.5537 31.6505 37.5639 28.8117 37.429 28.0334C37.2985 27.2506 36.6192 25.775 39.6874 25.2441Z" fill="#DD9869"/>
<path d="M78.4897 95.0209C78.3457 95.7003 77.9003 96.3076 77.5314 96.888C77.257 97.3198 77.0096 97.7562 76.6676 98.1386C76.2807 98.5705 75.7634 98.7999 75.2325 98.9709" stroke="#24150B" stroke-width="0.5" stroke-miterlimit="10" stroke-linecap="round" stroke-linejoin="round"/>
<path d="M71.548 91.8538C71.9844 91.2914 72.3533 90.3692 72.8932 89.9553L71.548 91.8538Z" fill="#F8BE89"/>
<path d="M71.548 91.8538C71.9844 91.2914 72.3533 90.3692 72.8932 89.9553" stroke="#24150B" stroke-width="0.5" stroke-miterlimit="10" stroke-linecap="round" stroke-linejoin="round"/>
<path d="M76.5462 93.7028C76.4697 93.7433 76.3753 93.9728 76.3123 94.0762C76.1503 94.3507 76.0154 94.6206 75.8849 94.913C75.651 95.4394 75.327 95.9747 74.9491 96.4111C74.5263 96.897 74.1618 97.4368 73.694 97.8822C73.2441 98.3141 72.8032 98.5301 72.3893 98.9979" stroke="#24150B" stroke-width="0.5" stroke-miterlimit="10" stroke-linecap="round" stroke-linejoin="round"/>
<path d="M53.6202 77.5834C52.356 79.2705 50.759 80.4852 49.0674 81.7763C47.4883 82.9775 45.9812 84.3856 44.0557 85.0515C41.2035 86.0412 38.2387 86.5631 35.346 85.5688C35.139 85.4969 34.9861 85.3754 34.7791 85.3439" stroke="#24150B" stroke-width="0.5" stroke-miterlimit="10" stroke-linecap="round" stroke-linejoin="round"/>
<path d="M29.3086 101.463C29.3131 102.822 30.1904 104.689 31.2161 105.638C33.1866 107.469 35.9624 107.46 38.4907 107.46C42.4362 107.46 46.5526 105.917 49.7333 103.753C51.4608 102.579 53.5168 101.679 54.8754 100.037" stroke="#24150B" stroke-width="0.5" stroke-miterlimit="10" stroke-linecap="round" stroke-linejoin="round"/>
<path d="M33.506 96.2896C33.398 96.8654 33.8209 97.9361 34.1808 98.395C34.7477 99.1238 35.6205 99.4117 36.4437 99.7582C38.4637 100.604 41.0326 100.707 43.2145 100.397C44.906 100.159 46.6111 99.1688 48.1812 98.5075C49.7963 97.8282 51.8972 97.6662 53.3098 96.6495C53.9352 96.2041 54.601 95.6372 55.1679 95.1649" stroke="#24150B" stroke-width="0.5" stroke-miterlimit="10" stroke-linecap="round" stroke-linejoin="round"/>
<path d="M63.3512 62.2515C63.5267 63.8306 63.8866 65.3332 64.0305 66.8943C64.1745 68.5093 63.9765 70.1784 64.1025 71.7845C64.4489 76.1843 64.8403 80.5662 64.3994 85.047C64.2959 86.0907 64.1565 86.8915 63.8776 87.8948C63.6346 88.772 63.5851 89.6988 63.7336 90.6391C63.972 92.1777 64.4894 93.7972 64.5524 95.3718C64.6289 97.2028 64.7818 99.0609 64.7008 100.937C64.6424 102.296 64.1655 103.623 64.2465 104.995C64.4174 107.82 65.4971 110.929 65.3847 113.844C65.4701 113.803 65.5196 113.723 65.5241 113.615" stroke="#24150B" stroke-width="0.5" stroke-miterlimit="10" stroke-linecap="round" stroke-linejoin="round"/>
<path d="M78.5348 103.677C79.9069 105.022 80.0464 106.574 80.5817 108.346C81.1576 110.249 81.6344 112.134 81.9674 114.082C82.5927 117.749 83.1371 121.276 83.1506 125.015C83.155 127.228 82.7457 129.262 81.9089 131.25C81.3195 132.654 80.1048 135.488 78.2018 135.168" stroke="#24150B" stroke-width="0.5" stroke-miterlimit="10" stroke-linecap="round" stroke-linejoin="round"/>
<path d="M74.8233 104.352C76.0469 105.917 75.9435 109.057 76.1459 110.978C76.3574 112.962 76.8117 115.14 76.4878 117.178C76.2809 118.487 75.624 119.576 74.9627 120.66C74.3014 121.739 73.0687 122.774 72.6863 123.921" stroke="#24150B" stroke-width="0.5" stroke-miterlimit="10" stroke-linecap="round" stroke-linejoin="round"/>
<path d="M62.2985 38.1828C62.2085 38.8171 62.6044 39.438 62.8429 40.0048C63.1173 40.6527 63.3108 41.3005 63.5717 41.9708C64.1025 43.3385 64.6469 44.6116 65.0878 45.9793C65.8076 48.2422 66.7614 50.667 66.9503 53.0064C67.3912 58.4995 66.9998 64.0151 67.2427 69.5351C67.3237 71.3886 67.7736 73.1342 67.7736 75.0012C67.7736 75.9909 67.4722 77.597 67.8636 78.5103C67.976 78.5598 67.976 78.4788 68.075 78.4473" stroke="#24150B" stroke-width="0.5" stroke-miterlimit="10" stroke-linecap="round" stroke-linejoin="round"/>
<path d="M69.6495 43.4284C69.645 44.3822 70.1894 45.3134 70.3468 46.2447C70.5133 47.2209 70.6347 48.2062 70.8057 49.1914C71.1251 51.0494 71.4175 52.9614 71.6515 54.8419C71.9979 57.6132 72.3488 60.272 72.3488 63.0703C72.3488 67.8525 71.3725 72.5628 71.3725 77.3225C71.3725 79.0141 71.3321 80.7102 71.5075 82.3747C71.584 83.117 71.5075 84.8176 71.9664 85.371C72.1463 85.191 72.2273 84.9301 72.1958 84.6691" stroke="#24150B" stroke-width="0.5" stroke-miterlimit="10" stroke-linecap="round" stroke-linejoin="round"/>
<path d="M76.3213 51.2293C76.3213 54.9633 76.2943 58.6659 76.8252 62.3504C77.2661 65.3916 78.1254 68.4508 78.2738 71.5325C78.3593 73.305 78.2423 75.0011 77.689 76.6702C77.2346 78.0378 76.3123 79.3919 76.3168 80.8631C76.2268 80.9081 76.1549 80.8766 76.0964 80.7731" stroke="#24150B" stroke-width="0.5" stroke-miterlimit="10" stroke-linecap="round" stroke-linejoin="round"/>
<path d="M78.8723 76.9446C79.3941 76.6387 79.6191 76.0808 80.0914 75.7614C80.8652 75.2395 81.9944 75.0596 82.9032 74.8841C83.6365 74.7402 85.526 74.2408 86.0704 74.9966" stroke="#24150B" stroke-width="0.5" stroke-miterlimit="10" stroke-linecap="round" stroke-linejoin="round"/>
<path d="M80.5187 74.0204C80.1003 73.2421 82.3857 71.2896 83.1415 71.0961" stroke="#24150B" stroke-width="0.5" stroke-miterlimit="10" stroke-linecap="round" stroke-linejoin="round"/>
<path d="M82.4712 94.0582C82.2507 96.681 82.6421 103.281 82.6961 105.931C82.7456 108.319 83.5509 110.384 84.2437 112.589C84.6216 113.799 84.9995 114.933 85.3099 116.075C85.5439 116.935 85.6833 118.689 86.2997 119.198" stroke="#24150B" stroke-width="0.5" stroke-miterlimit="10" stroke-linecap="round" stroke-linejoin="round"/>
<path d="M80.2218 80.1702C82.2193 79.4369 83.8479 78.7666 86.1873 79.0455C88.9721 79.3739 90.6186 81.8753 91.6938 84.2192" stroke="#24150B" stroke-width="0.5" stroke-miterlimit="10" stroke-linecap="round" stroke-linejoin="round"/>
<path d="M87.5324 89.9553C88.9091 90.2432 90.1147 93.4598 90.3487 94.706C90.6186 96.1501 90.7086 97.6392 90.893 99.0879C91.3474 102.601 91.2439 106.214 91.2439 109.809C91.2439 112.8 91.0145 115.913 91.4104 118.86C91.6128 120.358 91.7928 121.874 92.0087 123.373C92.1212 124.164 91.7748 125.64 92.3686 126.063" stroke="#24150B" stroke-width="0.5" stroke-miterlimit="10" stroke-linecap="round" stroke-linejoin="round"/>
<path d="M88.9945 86.6935C89.2015 88.1377 91.2574 88.565 92.0357 89.7392C92.3371 90.1891 92.6071 90.7515 92.85 91.2823C93.5698 92.8569 93.8802 94.2876 94.4201 95.8891C95.0049 97.6257 95.2074 99.2858 95.2929 101.09C95.3558 102.421 95.0859 104.392 95.5178 105.589" stroke="#24150B" stroke-width="0.5" stroke-miterlimit="10" stroke-linecap="round" stroke-linejoin="round"/>
<path d="M81.9088 50.5906C81.8459 53.3304 82.4037 56.5785 81.9088 59.6197C81.5939 61.5407 80.9596 63.6867 79.8844 65.3242" stroke="#24150B" stroke-width="0.5" stroke-miterlimit="10" stroke-linecap="round" stroke-linejoin="round"/>
<path d="M23.6086 97.0768C23.9055 97.1533 24.5758 98.0261 24.7558 98.296C25.0302 98.7144 25.0707 99.1418 25.0707 99.6277" stroke="#24150B" stroke-width="0.5" stroke-miterlimit="10" stroke-linecap="round" stroke-linejoin="round"/>
<path d="M40.3217 8.5625C39.2195 9.12935 38.1803 9.79968 37.1501 10.4925C35.391 11.6802 33.614 12.9489 32.5882 14.8654C31.477 16.9438 30.7752 19.3327 30.8112 21.6991C30.8472 24.1149 31.9314 26.1844 32.4938 28.4788C32.7277 29.4325 32.8312 30.5393 32.6062 31.5065C32.1564 33.4545 32.1519 37.2965 29.7765 38.6281C27.4011 39.9598 22.5604 46.717 21.9575 47.8102C21.3592 48.9035 20.0455 50.541 20.0455 50.541C20.0455 50.541 21.6291 49.6368 23.2892 47.8102C24.9537 45.9792 26.3034 44.3327 28.8542 42.0832C31.4051 39.8338 33.6545 35.182 34.2528 31.8844C34.5812 30.0849 34.3743 28.2404 33.9649 26.4723C33.596 24.8617 32.9347 23.3456 32.5298 21.7486C32.2508 20.6508 32.0844 19.4632 32.3858 18.3519C32.7232 17.1103 33.623 16.062 34.3968 15.0678C35.364 13.8261 36.3808 12.6204 37.4335 11.4552C37.7439 11.1133 38.0633 10.7174 38.4367 10.443C39.0576 9.98863 40.3217 8.5625 40.3217 8.5625Z" fill="#391F12"/>
<path d="M35.4945 28.2494C35.4945 28.2494 35.9803 32.2578 35.4945 33.2341C35.0086 34.2103 33.5285 37.5035 32.8042 38.6282C32.0799 39.7574 30.5817 43.1315 29.7944 43.8063C29.0072 44.4811 26.9062 46.6136 26.9062 46.6901C26.9062 46.7665 25.858 48.4716 25.4801 48.4986C25.1022 48.5256 27.3921 47.1939 28.2918 46.6046C29.1916 46.0152 32.1518 44.8905 32.7907 43.1675C33.4295 41.4444 33.8794 40.6481 34.7791 38.6282C35.6789 36.6082 36.4212 35.8029 36.3807 33.45C36.3447 31.0971 35.4945 28.2494 35.4945 28.2494Z" fill="#391F12"/>
<path d="M37.6989 32.0869C37.6989 32.0869 38.8506 33.5535 38.8551 34.7457C38.8596 35.9378 38.7336 39.5099 38.4457 40.7471C38.1578 41.9843 38.1758 43.9593 37.7034 44.4496C37.231 44.94 35.0671 45.6103 34.8421 45.5698C34.6172 45.5293 33.0966 45.4979 32.6197 45.5698C32.1428 45.6418 34.8871 45.5293 36.1558 43.8693C37.4245 42.2092 37.4425 39.2715 37.5054 37.5619C37.5684 35.8569 37.8923 32.5367 37.6989 32.0869Z" fill="#391F12"/>
<path d="M42.9355 9.76367C42.9355 9.76367 33.9378 14.8249 35.5124 25.595L36.0208 27.1426C36.0208 27.1381 33.1505 18.5364 42.9355 9.76367Z" fill="#391F12"/>
<path d="M42.9355 14.0015C42.9355 14.0015 37.8519 16.8583 38.7426 22.9317L39.0305 23.8045C39.0305 23.8045 37.4065 18.9502 42.9355 14.0015Z" fill="#391F12"/>
<path d="M47.079 12.1841C47.079 12.1841 47.7898 15.6887 47.079 17.0383C46.3682 18.388 44.1458 20.7408 43.7769 22.2839C43.408 23.827 43.6599 25.0822 43.7769 25.5771C43.8939 26.0765 42.8681 25.3027 42.9356 23.1117C43.0076 20.9208 45.6349 18.9683 46.5347 16.9438C47.4344 14.9194 46.9081 14.375 46.6651 13.5517C46.4717 12.8949 47.079 12.1841 47.079 12.1841Z" fill="#391F12"/>
<path d="M44.5282 15.9226C44.5282 15.9226 41.5185 19.7376 41.6174 20.8623C41.7164 21.987 41.55 22.8868 41.6129 23.8046C41.6759 24.7223 41.4555 24.3489 41.3025 23.3547C41.1496 22.3604 40.8796 20.4124 41.6129 19.2113C42.3508 18.0101 44.5237 15.7247 44.5237 15.7247" fill="#391F12"/>
<path d="M43.9792 32.6807C43.9792 32.6807 47.7762 38.5382 47.6637 39.42C47.5513 40.3017 48.5365 42.974 50.2236 42.9156C51.9106 42.8571 54.2095 42.6051 54.5784 43.1675C54.9473 43.7298 55.5817 43.9143 55.9236 44.1887C56.2655 44.4631 57.3047 45.1875 57.2777 45.5699C57.2507 45.9523 57.8356 46.6541 57.993 46.834C58.1505 47.0185 59.4731 47.7158 60.2334 47.3919C60.9937 47.0725 58.6993 47.3604 58.272 46.5416C57.8446 45.7228 57.4082 45.6373 56.9943 44.5981C56.5804 43.5589 55.8516 43.0505 55.0058 42.6591C54.16 42.2632 51.5732 42.3487 50.561 41.8718C49.5487 41.395 48.397 40.5492 48.0596 38.8351C47.7222 37.1211 44.7395 33.0901 44.7395 33.0901L43.9792 32.6807Z" fill="#391F12"/>
<path d="M86.1557 84.3137C86.1557 84.3137 86.4301 83.9943 84.4867 81.9248C83.2675 80.6292 78.6922 80.2378 78.0038 81.5109C77.266 82.8741 73.3206 85.8478 71.8359 86.896C70.3513 87.9488 70.0859 89.4559 68.4528 90.936C66.7973 91.8492 69.2131 92.704 70.7877 92.2226C70.9407 92.1776 71.6065 91.4353 71.7595 91.3229C71.557 91.2374 70.9947 91.7233 70.6708 91.6963C70.2029 91.6558 69.9869 91.4219 69.9779 90.9495C69.9599 90.3196 70.3693 89.8158 70.7157 89.3254C71.0127 88.9115 71.2871 88.4616 71.629 88.0837C73.0326 86.5631 74.8322 85.4114 76.6137 84.3902C77.3065 83.9898 78.2243 80.9666 80.1498 81.178C85.2919 81.7404 85.3999 84.3182 85.3819 85.2135C85.3729 85.7623 84.905 87.2964 84.7611 87.8273C84.5001 88.8035 83.8883 89.1949 83.3889 90.0767C82.993 90.774 82.5701 91.4488 82.1563 92.1372C81.6704 92.9469 81.144 93.8107 80.7976 94.6835C80.6447 95.0749 80.5502 95.4888 80.4557 95.9117C81.4274 94.679 82.3047 93.4283 82.6916 92.9335C83.5734 91.8222 86.7451 88.4166 86.1557 84.3137Z" fill="#EDA06B"/>
<path d="M56.8504 36.5317C56.8504 36.5317 56.7965 35.4835 57.4308 35.7085C58.0651 35.9334 58.587 35.9694 58.9829 36.7567C59.3788 37.544 60.283 38.4437 60.2785 38.8396C60.274 39.2355 60.337 40.1353 60.382 40.9586C60.427 41.7819 61.3403 44.0493 61.4078 44.4542C61.4752 44.8591 61.9251 47.104 61.9251 47.104C61.9251 47.104 61.6597 46.5821 61.1153 45.5924C60.571 44.6026 59.7882 42.2003 59.6757 41.0396C59.5632 39.8789 59.9816 39.339 58.686 38.0703C57.3903 36.7927 56.8504 36.5317 56.8504 36.5317Z" fill="#391F12"/>
<path d="M48.3927 34.2418C48.3927 34.2418 49.5759 38.1648 50.4442 38.8396C51.3124 39.5144 53.6833 39.5729 54.0747 40.2747C54.4661 40.9766 56.2027 41.4264 56.5716 42.1328C56.9405 42.8346 58.803 43.8828 58.8255 44.4542C58.8525 45.0255 59.5543 45.9883 59.5543 45.9883C59.5543 45.9883 60.7375 46.2042 59.3023 44.3372C57.8672 42.4702 57.7008 42.0473 56.2926 41.0935C54.8845 40.1353 55.3074 40.3602 53.6788 39.5459C52.0502 38.7317 51.7668 39.7799 50.921 38.1873C50.0753 36.5947 49.4004 35.8614 49.036 35.1866C48.6716 34.5118 48.3927 34.2418 48.3927 34.2418Z" fill="#391F12"/>
<path d="M43.9792 7.73924C43.9792 7.73924 51.7487 5.48982 56.2565 10.2136C56.2565 10.2136 52.401 6.69101 43.9792 7.73924Z" fill="#391F12"/>
<path d="M53.6382 35.0696C53.4312 35.5734 53.1793 36.0683 52.9094 36.5362C52.6754 36.9321 52.6799 36.7701 53.0308 36.9051C53.2558 36.9951 53.5257 37.175 53.6877 37.328C53.8721 37.4989 53.9441 37.7464 54.2365 37.7194C54.187 37.1615 53.9081 36.6757 53.8271 36.1583C53.7821 35.8659 53.8631 35.1776 53.5257 35.0696" fill="#391F12"/>
<path d="M58.1911 30.3278C58.1911 30.3278 59.8826 31.8259 59.6037 32.3163C59.3203 32.8022 59.2168 32.8247 59.2168 32.8247C59.2168 32.8247 59.3698 32.7662 58.9154 32.3748C58.461 31.9789 57.8986 31.0611 57.8986 31.0071C57.8986 30.9531 57.7277 30.1614 57.7277 30.1614C57.7277 30.1614 57.8132 30.1389 58.1911 30.3278Z" fill="#391F12"/>
<path d="M57.5297 29.4325C57.5297 29.4325 58.1325 29.0816 58.416 29.707C58.416 29.707 57.8671 29.5405 57.5297 29.5225" fill="#C47944"/>
<path d="M69.5371 101.369C69.5371 106.619 69.5956 111.878 69.5956 117.124C69.5956 117.645 69.7846 121.523 71.0038 121.218" stroke="#24150B" stroke-width="0.5" stroke-miterlimit="10" stroke-linecap="round" stroke-linejoin="round"/>
<path d="M74.6838 91.6288C74.6883 91.8493 74.6118 92.0337 74.5443 92.2362C74.4138 92.6276 74.3059 93.019 74.1484 93.3969C73.8785 94.0267 73.5051 94.634 73.0912 95.1739C72.6098 95.7947 72.0339 96.3031 71.4176 96.789C70.9857 97.1309 70.5628 97.4773 70.1354 97.8237C69.8475 98.0577 69.5281 98.2601 69.2582 98.521" stroke="#24150B" stroke-width="0.5" stroke-miterlimit="10" stroke-linecap="round" stroke-linejoin="round"/>
<path d="M69.2536 97.6528C69.1681 97.6483 69.0512 97.4189 68.9792 97.3424C68.9162 97.2794 68.8352 97.2029 68.7543 97.167C68.6283 97.1085 68.4798 97.086 68.3674 97.167C68.2549 97.2434 68.1604 97.3694 68.0614 97.4549C67.859 97.6348 67.6071 97.7743 67.3866 97.9273C67.2292 98.0397 67.0627 98.1657 67.0897 98.3906" stroke="#24150B" stroke-width="0.5" stroke-miterlimit="10" stroke-linecap="round" stroke-linejoin="round"/>
<path d="M71.8539 98.2285C71.6965 98.233 71.5255 98.188 71.3726 98.1701C71.1926 98.1476 70.9992 98.1926 70.8372 98.2915C70.6573 98.3995 70.4908 98.5165 70.3513 98.6739C70.2614 98.7774 70.1534 98.9439 70.0409 99.0113" stroke="#24150B" stroke-width="0.5" stroke-miterlimit="10" stroke-linecap="round" stroke-linejoin="round"/>
<path d="M75.1562 98.3276C74.8322 98.2331 74.2789 98.1296 73.9685 98.3276C73.82 98.422 73.793 98.629 73.6851 98.7639C73.5861 98.8899 73.4646 99.0384 73.4376 99.2048" stroke="#24150B" stroke-width="0.5" stroke-miterlimit="10" stroke-linecap="round" stroke-linejoin="round"/>
<path d="M77.428 98.6335C77.32 98.683 77.0636 98.3366 76.8657 98.4851C76.7577 98.5661 76.6542 98.5885 76.5462 98.665C76.3618 98.7955 76.2718 98.9799 76.1234 99.1554" stroke="#24150B" stroke-width="0.5" stroke-miterlimit="10" stroke-linecap="round" stroke-linejoin="round"/>
<path d="M69.2537 89.9553C69.4517 89.9688 69.6046 90.3916 69.5371 90.5896C69.4472 90.8415 69.2177 90.9495 69.0378 91.1385C68.7544 91.4354 68.1605 91.5613 67.7556 91.5613" fill="#F8BE89"/>
<path d="M69.2537 89.9553C69.4517 89.9688 69.6046 90.3916 69.5371 90.5896C69.4472 90.8415 69.2177 90.9495 69.0378 91.1385C68.7544 91.4354 68.1605 91.5613 67.7556 91.5613" stroke="#24150B" stroke-width="0.5" stroke-miterlimit="10" stroke-linecap="round" stroke-linejoin="round"/>
<path d="M71.4221 94.508C71.4356 94.5035 71.4266 94.4855 71.449 94.49C71.5975 94.787 71.9619 95.0344 72.3038 95.0119" stroke="#24150B" stroke-width="0.5" stroke-miterlimit="10" stroke-linecap="round" stroke-linejoin="round"/>
<path d="M73.6985 95.7452C73.865 95.8711 74.0674 96.0736 74.2879 96.0826" stroke="#24150B" stroke-width="0.5" stroke-miterlimit="10" stroke-linecap="round" stroke-linejoin="round"/>
<path d="M75.9614 96.645C76.0741 96.8118 76.241 96.8569 76.3853 96.9696" stroke="#24150B" stroke-width="0.5" stroke-miterlimit="10" stroke-linecap="round" stroke-linejoin="round"/>
<path d="M78.0578 97.4503C78.1976 97.5269 78.2743 97.7253 78.4681 97.7027" stroke="#24150B" stroke-width="0.5" stroke-miterlimit="10" stroke-linecap="round" stroke-linejoin="round"/>
<path d="M70.9137 87.6069C71.0039 87.6655 71.1662 87.9135 71.1662 88.0172" stroke="#24150B" stroke-width="0.5" stroke-miterlimit="10" stroke-linecap="round" stroke-linejoin="round"/>
<path d="M71.0982 87.4539C71.3007 87.4719 71.3951 87.7733 71.3951 87.9443" stroke="#24150B" stroke-width="0.5" stroke-miterlimit="10" stroke-linecap="round" stroke-linejoin="round"/>
<g opacity="0.8">
<g opacity="0.8">
<path opacity="0.8" d="M21.8226 56.3761C20.212 58.36 18.417 60.479 17.9221 63.0658C17.6477 64.4964 17.6837 66.4264 19.1773 67.1822C20.4189 67.8121 21.6651 67.0068 22.1375 65.7876C22.5874 64.6314 22.3309 63.3312 22.0745 62.1705C21.6381 60.2001 21.3007 58.576 22.0745 56.619C22.1555 56.4165 21.8271 56.3311 21.7506 56.529C21.2647 57.7662 21.0848 58.8909 21.2782 60.2046C21.5257 61.9051 23.0912 65.2522 21.2917 66.5389C18.7589 68.3519 18.1021 65.4457 18.129 64.159C18.1515 63.0703 18.5294 61.9726 18.9973 61.0053C19.7801 59.3948 20.9408 58.0001 22.0655 56.619C22.196 56.448 21.9575 56.2096 21.8226 56.3761Z" fill="#BA7547"/>
</g>
</g>
<g opacity="0.8">
<g opacity="0.8">
<path opacity="0.8" d="M20.4503 59.7141C20.2389 60.4834 20.3694 61.1672 20.5763 61.923C20.7248 62.4584 20.9047 63.0073 20.8957 63.5651C20.8777 64.5279 20.2389 65.6076 19.1637 65.4951C18.9477 65.4726 18.9477 65.81 19.1637 65.8325C20.1894 65.9405 20.8822 65.2297 21.1431 64.2759C21.5615 62.7373 20.3514 61.3292 20.7742 59.7996C20.8327 59.5927 20.5088 59.5027 20.4503 59.7141Z" fill="#BA7547"/>
</g>
</g>
</g>
</svg>
