<svg width="120" height="107" viewBox="0 0 120 107" fill="none" xmlns="http://www.w3.org/2000/svg">
  <rect x="0.230835" y="0.952515" width="114.392" height="105.76" rx="12" fill="#853B18"/>
  <mask id="mask0_85_5969" style="mask-type:alpha" maskUnits="userSpaceOnUse" x="5" y="0" width="115" height="107">
    <rect x="5.35132" y="0.952515" width="114.392" height="105.76" rx="12" fill="#853B18"/>
  </mask>
  <g mask="url(#mask0_85_5969)">
    <path d="M28.9451 48.1927C28.9451 48.1927 28.7606 48.2782 28.4637 48.4266C27.3345 48.9935 24.5947 50.4871 24.2978 51.7917C23.9244 53.4428 20.9732 60.7669 20.6223 63.8396C20.2713 66.9123 19.1826 79.0096 19.0837 82.1183C18.9712 85.6589 20.6223 93.4059 19.7945 95.5833C18.9712 97.7562 17.4056 104.154 17.0187 105.377C16.1549 108.104 15.3676 125.874 15.0302 133.072C14.6928 140.27 13.5681 147.693 16.0425 149.434C16.0425 149.434 16.8882 151.742 19.3041 152.08C19.3041 152.08 20.3163 159.561 23.8614 157.312C23.8614 157.312 23.353 155.175 23.0741 154.5C22.7952 153.825 22.2283 152.026 23.1866 151.801C24.1448 151.576 26.2233 154.109 26.2233 154.109L27.348 155.571C27.348 155.571 29.242 157.204 28.9406 154.896C28.6392 152.588 28.6392 151.072 28.6392 150.226C28.6392 149.38 27.8519 145.736 27.177 144.746C26.5022 143.761 23.9154 134.948 23.6905 133.076C23.4655 131.2 24.0279 124.979 25.0401 122.167C26.0523 119.355 30.7761 107.771 30.2137 100.572C30.2137 100.572 30.4387 97.8732 31.4509 94.8365C32.4632 91.7998 34.0378 89.8878 34.2627 86.4012C34.4876 82.9146 35.05 73.2421 35.05 73.2421V71.3301C35.05 71.3301 35.3874 73.2421 37.8618 72.9047C40.3361 72.5673 44.4345 74.5918 49.9951 72.0409C55.5556 69.4901 57.9535 69.6431 62.4523 67.6906C66.9511 65.7426 71.1486 63.3402 71.1486 63.3402L66.6317 38.4842L61.701 42.947L53.4547 37.5485L46.405 28.2494L41.4563 31.0971L38.6086 37.6969L33.0615 45.1965L28.7516 48.2782" fill="#F8BE89"/>
    <path d="M28.9451 48.1927C28.9451 48.1927 28.7606 48.2782 28.4637 48.4266C27.3345 48.9935 24.5947 50.4871 24.2978 51.7917C23.9244 53.4428 20.9732 60.7669 20.6223 63.8396C20.2713 66.9123 19.1826 79.0096 19.0837 82.1183C18.9712 85.6589 20.6223 93.4059 19.7945 95.5833C18.9712 97.7562 17.4056 104.154 17.0187 105.377C16.1549 108.104 15.3676 125.874 15.0302 133.072C14.6928 140.27 13.5681 147.693 16.0425 149.434C16.0425 149.434 16.8882 151.742 19.3041 152.08C19.3041 152.08 20.3163 159.561 23.8614 157.312C23.8614 157.312 23.353 155.175 23.0741 154.5C22.7952 153.825 22.2283 152.026 23.1866 151.801C24.1448 151.576 26.2233 154.109 26.2233 154.109L27.348 155.571C27.348 155.571 29.242 157.204 28.9406 154.896C28.6392 152.588 28.6392 151.072 28.6392 150.226C28.6392 149.38 27.8519 145.736 27.177 144.746C26.5022 143.761 23.9154 134.948 23.6905 133.076C23.4655 131.2 24.0279 124.979 25.0401 122.167C26.0523 119.355 30.7761 107.771 30.2138 100.572C30.2138 100.572 30.4387 97.8732 31.4509 94.8365C32.4632 91.7998 34.0378 89.8878 34.2627 86.4012C34.4876 82.9146 35.05 73.2421 35.05 73.2421V71.3301C35.05 71.3301 35.3874 73.2421 37.8618 72.9047C40.3361 72.5673 44.4345 74.5918 49.9951 72.0409C55.5556 69.4901 57.9535 69.6431 62.4523 67.6906C66.9511 65.7426 71.1486 63.3402 71.1486 63.3402L66.6317 38.4842L61.701 42.947L53.4547 37.5485L46.405 28.2494L41.4563 31.0971L38.6086 37.6969L33.0615 45.1965L28.7516 48.2782" stroke="#24150B" stroke-width="0.5" stroke-miterlimit="10" stroke-linecap="round" stroke-linejoin="round"/>
    <path d="M42.6261 46.1322C42.6261 46.1322 36.4357 45.0795 36.0263 45.309C35.6124 45.5384 31.5185 45.7228 30.1419 47.0005C28.7607 48.2782 25.7915 49.7493 25.5846 50.1947C25.3776 50.6356 23.4296 53.7982 23.4296 53.7982L22.5299 56.4885L22.089 58.3511C22.089 58.3511 20.8698 62.4945 20.5774 65.3017C20.3794 67.2362 18.5664 83.0766 19.4797 86.3652C19.5606 87.2425 20.1815 92.0832 20.1455 93.5453C20.4289 94.895 16.9738 104.9 16.7444 106.763C16.5149 108.625 15.4667 126.387 15.3407 129.253C15.2148 132.123 14.6569 145.669 14.8414 146.587C15.0258 147.5 16.0021 141.89 16.6049 134.17C17.2033 126.445 22.0035 105.908 23.0517 99.4928C24.0999 93.0775 23.6501 84.0618 23.5016 79.7969C23.3531 75.5321 26.5968 53.5508 32.0989 50.3701C37.6009 47.1895 43.5124 49.6053 46.7785 47.8103C47.035 47.6708 47.3364 46.7801 47.3364 46.7801L42.3967 46.2762" fill="#EDA06B"/>
    <path d="M62.4973 13.6012C62.4973 13.6012 64.5668 18.8693 63.811 20.7543C63.811 20.7543 63.1631 22.1265 63.8469 23.0802C64.5488 24.052 67.8554 30.0174 65.9434 30.3548C64.0314 30.6922 63.9324 30.0939 63.6265 29.9544L64.5893 33.0901C64.5893 33.0901 64.2473 32.9192 63.9639 33.0901C63.6805 33.2611 63.0057 33.6525 63.0057 33.6525C63.0057 33.6525 62.8347 34.7232 62.9472 35.1146C63.0597 35.506 62.6638 36.4102 63.9594 37.364C65.2551 38.3177 62.9472 40.0093 60.9227 39.222C58.8982 38.4347 54.6244 36.4102 53.3872 34.6647C52.15 32.9192 48.515 27.1652 48.515 27.1652C48.515 27.1652 49.9006 21.4472 50.3505 19.4812C50.8004 17.5152 51.9251 16.332 52.2085 14.249C52.4919 12.1661 52.4334 9.97515 54.4039 9.52527C56.3744 9.07538 62.0519 10.8749 62.0519 10.8749C62.0519 10.8749 63.1136 12.3325 62.4973 13.6012Z" fill="#F8BE89" stroke="#24150B" stroke-width="0.5" stroke-miterlimit="10" stroke-linecap="round" stroke-linejoin="round"/>
    <path d="M34.9015 70.201L33.9253 67.5422C33.9253 67.5422 32.1257 74.2589 32.7241 75.3836C33.3224 76.5083 33.3989 78.5328 33.174 80.8587C32.949 83.1846 32.895 86.4057 32.0987 88.3582C31.3025 90.3062 30.4387 95.9163 30.3622 96.4516C30.2857 96.9825 30.2677 99.1959 30.2677 99.1959C30.2677 99.1959 30.9785 95.4259 32.0493 92.8391C33.12 90.2522 34.2222 89.7079 34.1862 84.9076C34.1502 80.1074 34.897 76.8817 34.897 76.8817V71.0063V70.201H34.9015Z" fill="#EDA06B"/>
    <path d="M44.5154 32.2263C44.5154 32.2263 45.0148 35.407 45.1723 36.2483C48.9198 34.4577 50.3639 41.1295 50.7868 41.7323C51.6326 42.9425 55.8525 45.5293 57.9714 45.2729C60.0904 45.0165 61.4175 45.7138 61.4175 46.834C61.4175 47.9542 62.4793 49.7177 64.0224 49.6323C65.57 49.5468 67.311 49.3533 67.311 49.3533C67.311 49.3533 67.401 51.5623 67.311 52.6735C67.221 53.7847 68.4582 62.4584 65.4035 64.4604C62.3488 66.4624 55.785 68.7433 54.6603 68.7523C53.5356 68.7613 43.5887 71.735 41.2808 71.4291C38.9729 71.1231 37.4163 71.2446 37.4163 71.2446L35.2614 70.3089L34.5461 70.6823L36.2961 73.2196L50.1525 76.8726L65.2955 71.8025C65.2955 71.8025 70.6221 62.5034 70.9101 61.9186C71.198 61.3337 71.9943 51.0944 71.9943 51.0944L66.9061 43.8783C66.9061 43.8783 58.1964 40.4052 57.9759 40.0993C57.76 39.7933 47.6961 32.5952 47.6961 32.5952L44.5154 32.2263Z" fill="#EDA06B"/>
    <path d="M61.7911 28.7892C61.7911 28.7892 61.0038 30.5618 60.6439 30.7867C60.284 31.0117 59.1952 31.9699 59.0468 32.0239C58.8983 32.0824 58.183 32.2668 58.183 32.2668L60.0455 33.45L62.4569 31.3671L63.1452 30.3368C63.1452 30.3368 63.2397 29.7385 63.1452 29.572C62.2095 29.878 61.7911 28.7892 61.7911 28.7892Z" fill="#EDA572"/>
    <path d="M44.6999 33.0901C44.6999 33.0901 44.0656 45.6103 42.2436 46.2851C40.4215 46.96 47.1653 47.5043 47.3317 46.7755C47.5027 46.0467 44.6999 33.0901 44.6999 33.0901Z" fill="#EDA06B"/>
    <path d="M42.8555 46.2493C42.8555 45.9388 43.1074 45.6914 43.4133 45.6914C43.7192 45.6914 43.9712 45.9433 43.9712 46.2493C43.9712 46.5597 43.7192 46.8071 43.4133 46.8071C43.1074 46.8071 42.8555 46.5552 42.8555 46.2493Z" fill="#F9AF77"/>
    <path d="M43.2513 47.5134C43.2513 47.203 43.5032 46.9555 43.8092 46.9555C44.1151 46.9555 44.367 47.2074 44.367 47.5134C44.367 47.8238 44.1151 48.0712 43.8092 48.0712C43.5032 48.0712 43.2513 47.8193 43.2513 47.5134Z" fill="#F9AF77"/>
    <path d="M43.8092 48.7776C43.8092 48.4672 44.0611 48.2197 44.3671 48.2197C44.6775 48.2197 44.9249 48.4717 44.9249 48.7776C44.9249 49.088 44.673 49.3354 44.3671 49.3354C44.0611 49.3354 43.8092 49.088 43.8092 48.7776Z" fill="#F9AF77"/>
    <path d="M44.3716 50.0732C44.3716 49.7628 44.6236 49.5154 44.9295 49.5154C45.2399 49.5154 45.4874 49.7673 45.4874 50.0732C45.4874 50.3836 45.2354 50.6311 44.9295 50.6311C44.6191 50.6311 44.3716 50.3792 44.3716 50.0732Z" fill="#F9AF77"/>
    <path d="M44.9923 51.3644C44.9923 51.054 45.2443 50.8065 45.5502 50.8065C45.8606 50.8065 46.108 51.0585 46.108 51.3644C46.108 51.6748 45.8561 51.9222 45.5502 51.9222C45.2398 51.9222 44.9923 51.6748 44.9923 51.3644Z" fill="#F9AF77"/>
    <path d="M45.7483 52.4845C45.7483 52.1741 46.0002 51.9267 46.3061 51.9267C46.6165 51.9267 46.864 52.1786 46.864 52.4845C46.864 52.795 46.612 53.0424 46.3061 53.0424C46.0002 53.0424 45.7483 52.795 45.7483 52.4845Z" fill="#F9AF77"/>
    <path d="M46.477 53.6048C46.477 53.2944 46.729 53.0469 47.0349 53.0469C47.3453 53.0469 47.5927 53.2989 47.5927 53.6048C47.5927 53.9107 47.3408 54.1626 47.0349 54.1626C46.729 54.1626 46.477 53.9107 46.477 53.6048Z" fill="#F9AF77"/>
    <path d="M47.3498 54.7249C47.3498 54.4145 47.6017 54.1671 47.9076 54.1671C48.2181 54.1671 48.4655 54.419 48.4655 54.7249C48.4655 55.0353 48.2136 55.2828 47.9076 55.2828C47.5972 55.2828 47.3498 55.0308 47.3498 54.7249Z" fill="#F9AF77"/>
    <path d="M48.1371 55.8406C48.1371 55.5302 48.389 55.2828 48.6949 55.2828C49.0054 55.2828 49.2528 55.5347 49.2528 55.8406C49.2528 56.151 49.0009 56.3985 48.6949 56.3985C48.3845 56.403 48.1371 56.151 48.1371 55.8406Z" fill="#F9AF77"/>
    <path d="M49.0638 56.6011C49.0638 56.2906 49.3158 56.0432 49.6217 56.0432C49.9321 56.0432 50.1795 56.2951 50.1795 56.6011C50.1795 56.9115 49.9276 57.1589 49.6217 57.1589C49.3158 57.1589 49.0638 56.9115 49.0638 56.6011Z" fill="#F9AF77"/>
    <path d="M50.1841 57.3073C50.1841 56.9969 50.436 56.7495 50.7419 56.7495C51.0478 56.7495 51.2998 57.0014 51.2998 57.3073C51.2998 57.6177 51.0478 57.8652 50.7419 57.8652C50.436 57.8652 50.1841 57.6177 50.1841 57.3073Z" fill="#F9AF77"/>
    <path d="M51.3043 58.0541C51.3043 57.7437 51.5562 57.4963 51.8621 57.4963C52.168 57.4963 52.42 57.7482 52.42 58.0541C52.42 58.3646 52.168 58.612 51.8621 58.612C51.5562 58.612 51.3043 58.3646 51.3043 58.0541Z" fill="#F9AF77"/>
    <path d="M53.1262 59.1698C53.4343 59.1698 53.6841 58.92 53.6841 58.6119C53.6841 58.3038 53.4343 58.0541 53.1262 58.0541C52.8182 58.0541 52.5684 58.3038 52.5684 58.6119C52.5684 58.92 52.8182 59.1698 53.1262 59.1698Z" fill="#F9AF77"/>
    <path d="M53.9451 58.9899C53.9451 58.6795 54.197 58.4321 54.5029 58.4321C54.8089 58.4321 55.0608 58.684 55.0608 58.9899C55.0608 59.3003 54.8089 59.5478 54.5029 59.5478C54.197 59.5478 53.9451 59.2958 53.9451 58.9899Z" fill="#F9AF77"/>
    <path d="M55.3667 58.9899C55.3667 58.6795 55.6186 58.4321 55.9246 58.4321C56.2305 58.4321 56.4824 58.684 56.4824 58.9899C56.4824 59.3003 56.2305 59.5478 55.9246 59.5478C55.6186 59.5478 55.3667 59.2958 55.3667 58.9899Z" fill="#F9AF77"/>
    <path d="M56.5994 58.4275C56.5994 58.1171 56.8514 57.8697 57.1573 57.8697C57.4677 57.8697 57.7151 58.1216 57.7151 58.4275C57.7151 58.7335 57.4632 58.9854 57.1573 58.9854C56.8514 58.9899 56.5994 58.738 56.5994 58.4275Z" fill="#F9AF77"/>
    <path d="M57.4722 57.4963C57.4722 57.1858 57.7241 56.9384 58.03 56.9384C58.3405 56.9384 58.5879 57.1903 58.5879 57.4963C58.5879 57.8067 58.336 58.0541 58.03 58.0541C57.7196 58.0541 57.4722 57.8022 57.4722 57.4963Z" fill="#F9AF77"/>
    <path d="M58.2595 56.4031C58.2595 56.0926 58.5114 55.8452 58.8173 55.8452C59.1278 55.8452 59.3752 56.0971 59.3752 56.4031C59.3752 56.7135 59.1233 56.9609 58.8173 56.9609C58.5069 56.9609 58.2595 56.709 58.2595 56.4031Z" fill="#F9AF77"/>
    <path d="M59.0468 55.2828C59.0468 54.9724 59.2987 54.725 59.6046 54.725C59.9151 54.725 60.1625 54.9769 60.1625 55.2828C60.1625 55.5932 59.9106 55.8407 59.6046 55.8407C59.2942 55.8407 59.0468 55.5932 59.0468 55.2828Z" fill="#F9AF77"/>
    <path d="M59.7216 54.1627C59.7216 53.8522 59.9735 53.6048 60.2794 53.6048C60.5898 53.6048 60.8373 53.8567 60.8373 54.1627C60.8373 54.4731 60.5853 54.7205 60.2794 54.7205C59.969 54.725 59.7216 54.4731 59.7216 54.1627Z" fill="#F9AF77"/>
    <path d="M60.2795 52.939C60.2795 52.6285 60.5314 52.3811 60.8373 52.3811C61.1478 52.3811 61.3952 52.633 61.3952 52.939C61.3952 53.2494 61.1433 53.4968 60.8373 53.4968C60.5314 53.4968 60.2795 53.2494 60.2795 52.939Z" fill="#F9AF77"/>
    <path d="M60.7023 51.6478C60.7023 51.3374 60.9543 51.09 61.2602 51.09C61.5706 51.09 61.818 51.3419 61.818 51.6478C61.818 51.9582 61.5661 52.2057 61.2602 52.2057C60.9543 52.2057 60.7023 51.9537 60.7023 51.6478Z" fill="#F9AF77"/>
    <path d="M60.8418 50.3791C60.8418 50.0687 61.0937 49.8212 61.3997 49.8212C61.7056 49.8212 61.9575 50.0732 61.9575 50.3791C61.9575 50.6895 61.7056 50.9369 61.3997 50.9369C61.0937 50.9369 60.8418 50.6895 60.8418 50.3791Z" fill="#F9AF77"/>
    <path d="M60.8418 49.061C60.8418 48.7505 61.0937 48.5031 61.3997 48.5031C61.7056 48.5031 61.9575 48.755 61.9575 49.061C61.9575 49.3714 61.7056 49.6188 61.3997 49.6188C61.0937 49.6188 60.8418 49.3669 60.8418 49.061Z" fill="#F9AF77"/>
    <path d="M60.7023 47.6574C60.7023 47.347 60.9543 47.0995 61.2602 47.0995C61.5706 47.0995 61.818 47.3515 61.818 47.6574C61.818 47.9633 61.5661 48.2153 61.2602 48.2153C60.9543 48.2198 60.7023 47.9678 60.7023 47.6574Z" fill="#F9AF77"/>
    <path d="M60.4235 46.3932C60.4235 46.0828 60.6754 45.8354 60.9813 45.8354C61.2918 45.8354 61.5392 46.0873 61.5392 46.3932C61.5392 46.7037 61.2873 46.9511 60.9813 46.9511C60.6754 46.9511 60.4235 46.7037 60.4235 46.3932Z" fill="#F9AF77"/>
    <path d="M59.8656 45.0121C59.8656 44.7017 60.1175 44.4542 60.4235 44.4542C60.7339 44.4542 60.9813 44.7062 60.9813 45.0121C60.9813 45.3225 60.7294 45.5699 60.4235 45.5699C60.113 45.5699 59.8656 45.318 59.8656 45.0121Z" fill="#F9AF77"/>
    <path d="M43.0039 45.9838C43.0039 45.6734 43.2559 45.426 43.5618 45.426C43.8722 45.426 44.1196 45.6779 44.1196 45.9838C44.1196 46.2897 43.8677 46.5417 43.5618 46.5417C43.2559 46.5462 43.0039 46.2942 43.0039 45.9838Z" fill="#2F1C0F" stroke="#24150B" stroke-width="0.5" stroke-miterlimit="10" stroke-linecap="round" stroke-linejoin="round"/>
    <path d="M43.3998 47.2479C43.3998 46.9375 43.6517 46.6901 43.9576 46.6901C44.268 46.6901 44.5155 46.942 44.5155 47.2479C44.5155 47.5583 44.2636 47.8058 43.9576 47.8058C43.6517 47.8103 43.3998 47.5583 43.3998 47.2479Z" fill="#2F1C0F" stroke="#24150B" stroke-width="0.5" stroke-miterlimit="10" stroke-linecap="round" stroke-linejoin="round"/>
    <path d="M43.9577 48.5166C43.9577 48.2062 44.2096 47.9587 44.5155 47.9587C44.8214 47.9587 45.0734 48.2107 45.0734 48.5166C45.0734 48.827 44.8214 49.0745 44.5155 49.0745C44.2096 49.0745 43.9577 48.8225 43.9577 48.5166Z" fill="#2F1C0F" stroke="#24150B" stroke-width="0.5" stroke-miterlimit="10" stroke-linecap="round" stroke-linejoin="round"/>
    <path d="M44.52 49.8077C44.52 49.4973 44.7719 49.2499 45.0778 49.2499C45.3883 49.2499 45.6357 49.5018 45.6357 49.8077C45.6357 50.1181 45.3838 50.3656 45.0778 50.3656C44.7674 50.3701 44.52 50.1181 44.52 49.8077Z" fill="#2F1C0F" stroke="#24150B" stroke-width="0.5" stroke-miterlimit="10" stroke-linecap="round" stroke-linejoin="round"/>
    <path d="M45.1408 51.1034C45.1408 50.793 45.3927 50.5455 45.6987 50.5455C46.0046 50.5455 46.2565 50.7975 46.2565 51.1034C46.2565 51.4138 46.0046 51.6612 45.6987 51.6612C45.3927 51.6612 45.1408 51.4093 45.1408 51.1034Z" fill="#2F1C0F" stroke="#24150B" stroke-width="0.5" stroke-miterlimit="10" stroke-linecap="round" stroke-linejoin="round"/>
    <path d="M45.9011 52.219C45.9011 51.9086 46.1531 51.6612 46.459 51.6612C46.7649 51.6612 47.0168 51.9131 47.0168 52.219C47.0168 52.5295 46.7649 52.7769 46.459 52.7769C46.1531 52.7769 45.9011 52.5295 45.9011 52.219Z" fill="#2F1C0F" stroke="#24150B" stroke-width="0.5" stroke-miterlimit="10" stroke-linecap="round" stroke-linejoin="round"/>
    <path d="M46.6255 53.3394C46.6255 53.029 46.8774 52.7816 47.1833 52.7816C47.4938 52.7816 47.7412 53.0335 47.7412 53.3394C47.7412 53.6498 47.4893 53.8973 47.1833 53.8973C46.8774 53.9018 46.6255 53.6498 46.6255 53.3394Z" fill="#2F1C0F" stroke="#24150B" stroke-width="0.5" stroke-miterlimit="10" stroke-linecap="round" stroke-linejoin="round"/>
    <path d="M47.4981 54.4595C47.4981 54.1491 47.7501 53.9017 48.056 53.9017C48.3664 53.9017 48.6138 54.1536 48.6138 54.4595C48.6138 54.7699 48.3619 55.0174 48.056 55.0174C47.7501 55.0219 47.4981 54.7699 47.4981 54.4595Z" fill="#2F1C0F" stroke="#24150B" stroke-width="0.5" stroke-miterlimit="10" stroke-linecap="round" stroke-linejoin="round"/>
    <path d="M48.2854 55.5798C48.2854 55.2694 48.5373 55.0219 48.8433 55.0219C49.1537 55.0219 49.4011 55.2739 49.4011 55.5798C49.4011 55.8902 49.1492 56.1376 48.8433 56.1376C48.5373 56.1376 48.2854 55.8902 48.2854 55.5798Z" fill="#2F1C0F" stroke="#24150B" stroke-width="0.5" stroke-miterlimit="10" stroke-linecap="round" stroke-linejoin="round"/>
    <path d="M49.2123 56.34C49.2123 56.0296 49.4642 55.7822 49.7702 55.7822C50.0806 55.7822 50.328 56.0341 50.328 56.34C50.328 56.6504 50.0761 56.8979 49.7702 56.8979C49.4642 56.8979 49.2123 56.6459 49.2123 56.34Z" fill="#2F1C0F" stroke="#24150B" stroke-width="0.5" stroke-miterlimit="10" stroke-linecap="round" stroke-linejoin="round"/>
    <path d="M50.3325 57.0464C50.3325 56.736 50.5845 56.4885 50.8904 56.4885C51.2008 56.4885 51.4482 56.7405 51.4482 57.0464C51.4482 57.3568 51.1963 57.6042 50.8904 57.6042C50.5845 57.6042 50.3325 57.3568 50.3325 57.0464Z" fill="#2F1C0F" stroke="#24150B" stroke-width="0.5" stroke-miterlimit="10" stroke-linecap="round" stroke-linejoin="round"/>
    <path d="M51.4528 57.7931C51.4528 57.4827 51.7047 57.2353 52.0106 57.2353C52.321 57.2353 52.5685 57.4872 52.5685 57.7931C52.5685 58.1036 52.3165 58.351 52.0106 58.351C51.7047 58.351 51.4528 58.0991 51.4528 57.7931Z" fill="#2F1C0F" stroke="#24150B" stroke-width="0.5" stroke-miterlimit="10" stroke-linecap="round" stroke-linejoin="round"/>
    <path d="M52.7169 58.351C52.7169 58.0406 52.9688 57.7932 53.2747 57.7932C53.5851 57.7932 53.8326 58.0451 53.8326 58.351C53.8326 58.6614 53.5806 58.9089 53.2747 58.9089C52.9688 58.9089 52.7169 58.6614 52.7169 58.351Z" fill="#2F1C0F" stroke="#24150B" stroke-width="0.5" stroke-miterlimit="10" stroke-linecap="round" stroke-linejoin="round"/>
    <path d="M54.0936 58.7244C54.0936 58.414 54.3455 58.1666 54.6514 58.1666C54.9618 58.1666 55.2093 58.4185 55.2093 58.7244C55.2093 59.0348 54.9573 59.2823 54.6514 59.2823C54.3455 59.2868 54.0936 59.0348 54.0936 58.7244Z" fill="#2F1C0F" stroke="#24150B" stroke-width="0.5" stroke-miterlimit="10" stroke-linecap="round" stroke-linejoin="round"/>
    <path d="M55.515 58.7244C55.515 58.414 55.767 58.1666 56.0729 58.1666C56.3788 58.1666 56.6308 58.4185 56.6308 58.7244C56.6308 59.0348 56.3788 59.2823 56.0729 59.2823C55.767 59.2823 55.515 59.0348 55.515 58.7244Z" fill="#2F1C0F" stroke="#24150B" stroke-width="0.5" stroke-miterlimit="10" stroke-linecap="round" stroke-linejoin="round"/>
    <path d="M56.7479 58.1666C56.7479 57.8561 56.9998 57.6087 57.3057 57.6087C57.6161 57.6087 57.8636 57.8606 57.8636 58.1666C57.8636 58.477 57.6116 58.7244 57.3057 58.7244C56.9998 58.7244 56.7479 58.477 56.7479 58.1666Z" fill="#2F1C0F" stroke="#24150B" stroke-width="0.5" stroke-miterlimit="10" stroke-linecap="round" stroke-linejoin="round"/>
    <path d="M57.6205 57.2308C57.6205 56.9204 57.8725 56.673 58.1784 56.673C58.4888 56.673 58.7363 56.9249 58.7363 57.2308C58.7363 57.5412 58.4843 57.7887 58.1784 57.7887C57.8725 57.7932 57.6205 57.5412 57.6205 57.2308Z" fill="#2F1C0F" stroke="#24150B" stroke-width="0.5" stroke-miterlimit="10" stroke-linecap="round" stroke-linejoin="round"/>
    <path d="M58.4078 56.1376C58.4078 55.8272 58.6598 55.5798 58.9657 55.5798C59.2761 55.5798 59.5235 55.8317 59.5235 56.1376C59.5235 56.448 59.2716 56.6955 58.9657 56.6955C58.6598 56.7 58.4078 56.448 58.4078 56.1376Z" fill="#2F1C0F" stroke="#24150B" stroke-width="0.5" stroke-miterlimit="10" stroke-linecap="round" stroke-linejoin="round"/>
    <path d="M59.1953 55.0219C59.1953 54.7115 59.4472 54.4641 59.7531 54.4641C60.0635 54.4641 60.311 54.716 60.311 55.0219C60.311 55.3278 60.059 55.5798 59.7531 55.5798C59.4472 55.5798 59.1953 55.3278 59.1953 55.0219Z" fill="#2F1C0F" stroke="#24150B" stroke-width="0.5" stroke-miterlimit="10" stroke-linecap="round" stroke-linejoin="round"/>
    <path d="M59.8701 53.9017C59.8701 53.5912 60.122 53.3438 60.4279 53.3438C60.7383 53.3438 60.9858 53.5957 60.9858 53.9017C60.9858 54.2121 60.7338 54.4595 60.4279 54.4595C60.122 54.4595 59.8701 54.2076 59.8701 53.9017Z" fill="#2F1C0F" stroke="#24150B" stroke-width="0.5" stroke-miterlimit="10" stroke-linecap="round" stroke-linejoin="round"/>
    <path d="M60.4278 52.678C60.4278 52.3676 60.6797 52.1202 60.9857 52.1202C61.2916 52.1202 61.5435 52.3721 61.5435 52.678C61.5435 52.9884 61.2916 53.2359 60.9857 53.2359C60.6797 53.2359 60.4278 52.9839 60.4278 52.678Z" fill="#2F1C0F" stroke="#24150B" stroke-width="0.5" stroke-miterlimit="10" stroke-linecap="round" stroke-linejoin="round"/>
    <path d="M60.8552 51.3824C60.8552 51.072 61.1071 50.8245 61.413 50.8245C61.7235 50.8245 61.9709 51.0765 61.9709 51.3824C61.9709 51.6928 61.719 51.9402 61.413 51.9402C61.1026 51.9447 60.8552 51.6928 60.8552 51.3824Z" fill="#2F1C0F" stroke="#24150B" stroke-width="0.5" stroke-miterlimit="10" stroke-linecap="round" stroke-linejoin="round"/>
    <path d="M60.9901 50.1182C60.9901 49.8078 61.2421 49.5604 61.548 49.5604C61.8584 49.5604 62.1059 49.8123 62.1059 50.1182C62.1059 50.4286 61.8539 50.6761 61.548 50.6761C61.2376 50.6761 60.9901 50.4286 60.9901 50.1182Z" fill="#2F1C0F" stroke="#24150B" stroke-width="0.5" stroke-miterlimit="10" stroke-linecap="round" stroke-linejoin="round"/>
    <path d="M60.9901 48.7956C60.9901 48.4852 61.2421 48.2377 61.548 48.2377C61.8584 48.2377 62.1059 48.4897 62.1059 48.7956C62.1059 49.106 61.8539 49.3534 61.548 49.3534C61.2376 49.3579 60.9901 49.106 60.9901 48.7956Z" fill="#2F1C0F" stroke="#24150B" stroke-width="0.5" stroke-miterlimit="10" stroke-linecap="round" stroke-linejoin="round"/>
    <path d="M60.8552 47.3964C60.8552 47.0859 61.1071 46.8385 61.413 46.8385C61.7235 46.8385 61.9709 47.0904 61.9709 47.3964C61.9709 47.7023 61.719 47.9542 61.413 47.9542C61.1026 47.9542 60.8552 47.7068 60.8552 47.3964Z" fill="#2F1C0F" stroke="#24150B" stroke-width="0.5" stroke-miterlimit="10" stroke-linecap="round" stroke-linejoin="round"/>
    <path d="M60.5718 46.0467C60.5718 45.7363 60.8238 45.4889 61.1297 45.4889C61.4401 45.4889 61.6875 45.7408 61.6875 46.0467C61.6875 46.3572 61.4356 46.6046 61.1297 46.6046C60.8238 46.6046 60.5718 46.3572 60.5718 46.0467Z" fill="#2F1C0F" stroke="#24150B" stroke-width="0.5" stroke-miterlimit="10" stroke-linecap="round" stroke-linejoin="round"/>
    <path d="M60.0139 44.7466C60.0139 44.4362 60.2659 44.1888 60.5718 44.1888C60.8822 44.1888 61.1296 44.4407 61.1296 44.7466C61.1296 45.0526 60.8777 45.3045 60.5718 45.3045C60.2614 45.309 60.0139 45.0571 60.0139 44.7466Z" fill="#2F1C0F" stroke="#24150B" stroke-width="0.5" stroke-miterlimit="10" stroke-linecap="round" stroke-linejoin="round"/>
    <path opacity="0.6" d="M62.8167 21.834C62.8167 21.834 63.316 20.8488 62.1913 20.5968C61.0666 20.3449 59.2671 20.3449 58.3943 20.5968C57.5215 20.8488 56.5003 21.2177 56.2259 21.5236C55.9515 21.834 54.6378 23.0487 54.5163 23.1837C53.981 23.7595 54.5838 24.5783 54.9752 24.9697C55.3666 25.3611 61.7054 27.4261 62.8167 25.4781C63.2665 24.6908 63.244 22.1444 62.8167 21.834Z" fill="#EDA572"/>
    <path d="M67.446 38.1198C67.446 38.1198 65.6915 36.8691 65.3181 38.4347C65.3181 38.4347 66.1683 42.3352 65.8714 43.9188C65.579 45.5024 68.5797 48.3681 68.4043 49.2454C68.2333 50.1227 68.7957 58.9539 68.7957 60.3035C68.7957 61.6532 68.8541 61.7162 67.6125 63.7901C66.3708 65.8641 59.6046 69.0402 56.6083 69.1887C53.6121 69.3372 41.8387 74.2139 37.7133 71.9645C33.5879 69.7151 34.6406 70.8398 34.6406 70.8398C34.6406 70.8398 33.4394 73.5571 35.1265 74.7402C35.1265 74.7402 33.6283 76.8907 34.9015 78.5418C34.9015 78.5418 34.1142 79.8419 35.0905 82.4647C35.0905 82.4647 33.8893 84.7141 35.6888 85.6904C35.6888 85.6904 34.3392 88.1647 36.5121 88.988C36.5121 88.988 35.1759 89.6224 36.5211 92.3172C36.5661 92.4071 36.6111 92.4926 36.6605 92.5871C38.2351 95.5113 34.7126 95.2099 35.086 96.7125C35.086 96.7125 34.0467 99.3353 34.4336 101.697C34.4336 101.697 26.8351 107.658 28.5222 131.502C28.5222 131.502 32.6836 155.796 32.2337 162.094C31.7838 168.392 34.2582 171.991 34.933 173.116C35.6078 174.241 52.6989 162.917 56.5993 152.421C60.4998 141.926 63.4646 137.125 66.6317 129.927C69.7989 122.729 70.9236 128.69 72.4982 131.389C72.4982 131.389 75.8723 136.226 77.8968 137.35C79.9213 138.475 80.5961 136.788 81.2709 137.463C81.9457 138.138 85.8822 143.986 88.694 139.037C91.5057 134.089 91.2808 125.653 90.381 121.604C89.4813 117.556 88.469 107.01 87.7942 105.422C87.1194 103.834 83.9702 88.7631 83.7453 86.7386C83.5203 84.7141 83.0704 81.565 83.0704 81.565C83.0704 81.565 88.3026 81.1421 89.8771 82.0418C91.4517 82.9416 90.5565 93.1089 88.0191 94.3866C85.4773 95.6688 92.9678 124.754 92.9678 124.754C92.9678 124.754 95.8606 134.233 97.4352 133.193C100.463 131.196 99.4911 124.304 101.516 113.732C103.54 103.159 105.115 90.3377 103.54 85.164C101.965 79.9904 97.8401 70.3944 97.3902 66.9438C96.9403 63.4932 95.4422 59.7951 92.4415 57.3703C92.4415 57.3703 93.1928 53.4473 90.1921 51.4948C90.1921 51.4948 88.0911 50.5951 87.4928 49.6953C86.8944 48.7955 86.8944 43.9953 82.2426 42.9471C82.2426 42.9471 79.8448 38.4482 74.4462 40.0993C74.4552 40.0948 71.0811 36.1403 67.446 38.1198Z" fill="#C65E28" stroke="#24150B" stroke-width="0.5" stroke-miterlimit="10" stroke-linecap="round" stroke-linejoin="round"/>
    <path d="M40.3316 159.237C37.9832 157.438 36.6246 154.99 36.6246 154.99C36.6246 154.99 37.7808 148.103 37.5379 147.9C37.2949 147.698 38.1227 142.569 35.2569 134.948C32.3957 127.322 35.3244 121.227 37.5379 115.9C39.7468 110.578 40.7185 104.806 40.2776 104.585C39.8412 104.365 41.6183 95.3358 41.7263 93.4778C41.8342 91.6198 40.84 90.0812 40.3271 86.5181C39.8143 82.955 43.2649 83.8953 47.5522 81.097C51.8396 78.3033 62.7718 71.1771 66.1864 68.9277C69.601 66.6783 67.662 66.1339 67.662 66.1339L67.8644 63.4661C67.8239 63.5336 67.8824 63.7225 67.8374 63.7945C66.5958 65.8685 59.7845 69.1256 56.7883 69.2741C53.7921 69.4226 41.8747 74.3533 37.7538 72.1039C33.6284 69.8544 34.7261 70.8172 34.7261 70.8172C34.7261 70.8172 33.5654 73.4355 35.2524 74.6142C35.2524 74.6142 33.7543 76.7646 35.0275 78.4157C35.0275 78.4157 34.2402 79.7159 35.2165 82.3387C35.2165 82.3387 34.0153 84.5881 35.8148 85.5644C35.8148 85.5644 34.4652 88.0387 36.6381 88.862C36.6381 88.862 35.3019 89.4963 36.6471 92.1911C36.6921 92.2766 36.7371 92.3666 36.7865 92.461C38.3116 95.3223 35.032 95.3943 35.212 96.5865C35.212 96.5865 34.1727 99.2093 34.5596 101.571C34.5596 101.571 26.9656 107.532 28.6527 131.376C28.6527 131.376 32.949 155.539 32.4992 161.837C32.0493 168.136 34.3887 171.861 35.0635 172.986C35.4279 173.593 40.651 170.277 45.9327 165.711C44.0836 163.07 41.6048 160.213 40.3316 159.237Z" fill="#BC5127"/>
    <path d="M61.773 35.4475C61.4581 35.5779 61.0262 35.4025 60.7562 35.3035C59.2896 34.7546 58.1739 33.7289 57.0897 32.6447C56.4599 32.0148 56.1539 31.1331 55.4971 30.5347C54.7953 29.8914 53.5761 27.4395 53.2567 26.8997C52.7843 26.0989 53.2612 21.816 53.6976 20.6013C54.1025 19.4766 55.0247 18.199 55.3846 17.0383C55.5871 16.3904 56.2619 15.6571 56.4869 15.0228C56.6803 14.4604 56.8782 13.8396 57.2786 13.3762C57.9805 12.5664 59.1951 12.5709 60.1309 12.9218C60.5628 13.0838 60.9272 13.3897 61.3186 13.6192C61.7145 13.8486 62.1599 14.0061 62.5783 14.2085C62.5963 14.2175 62.5828 14.204 62.6412 14.24C62.4883 13.8036 62.4973 13.6057 62.4973 13.6057C63.1181 12.3415 62.0474 10.8794 62.0474 10.8794C62.0474 10.8794 56.3654 9.07984 54.3994 9.52972C52.4334 9.97961 52.4874 12.175 52.204 14.2535C51.9205 16.3319 50.7958 17.5151 50.346 19.4856C49.8961 21.4561 48.5104 27.1696 48.5104 27.1696C48.5104 27.1696 52.1455 32.9236 53.3827 34.6691C54.6198 36.4147 58.8937 38.4392 60.9182 39.2265C62.9427 40.0138 65.2506 38.3267 63.9549 37.3684C62.6592 36.4102 62.9472 35.5599 62.8347 35.1685C62.7852 35.0021 62.7762 34.6691 62.7942 34.3947C62.5918 34.4757 62.5288 34.5972 62.3668 34.7591C62.1824 34.9391 62.0249 35.3395 61.773 35.4475Z" fill="#EDA572"/>
    <path opacity="0.5" d="M36.5526 73.5751C36.5526 73.5751 38.4286 76.0495 41.5778 75.4871C41.5778 75.4871 45.3658 77.1382 48.2136 75.2622C48.2136 75.2622 41.4293 81.4481 36.5526 77.2867C36.5526 77.2867 35.239 75.937 38.4286 76.3104C41.6138 76.6838 41.6138 76.4994 41.6138 76.4994C41.6138 76.4994 36.5931 76.5354 36.5526 73.5751Z" fill="#F58553"/>
    <path opacity="0.5" d="M67.3065 38.4887C67.3065 38.4887 67.1131 38.1738 66.6407 38.4842C66.1683 38.7901 66.8836 40.1398 66.9736 41.116C67.0681 42.0923 65.9884 42.2407 66.6407 42.6906C67.293 43.1405 68.2918 44.7151 68.6922 45.4664C69.0926 46.2177 70.6672 48.989 70.3657 50.9415C70.0643 52.8895 69.9788 61.3607 69.9653 62.265C69.9518 63.1648 69.457 68.7343 69.457 68.7343C69.457 68.7343 70.0283 74.0339 69.9653 75.3881C69.9024 76.7422 70.0103 86.9681 68.9891 89.051C68.9891 89.051 69.493 100.658 69.3625 103.236C69.232 105.814 70.4062 115.081 70.4062 115.081L71.8863 99.1239C71.8863 99.1239 71.6164 72.8372 71.8863 70.2054C72.1563 67.5736 71.9043 54.509 71.9988 51.9537C72.0933 49.3984 70.6312 42.5916 69.9563 41.8313C69.277 41.0665 67.3065 38.4887 67.3065 38.4887Z" fill="#F58553"/>
    <path opacity="0.5" d="M36.7416 79.8733C36.917 80.3907 38.1677 80.4177 38.6086 80.4897C39.8997 80.7056 41.0109 80.7146 42.2841 80.5931C43.4088 80.4897 44.439 80.0758 45.5188 79.8958C46.5535 79.7203 47.5072 79.5359 48.479 79.113C51.0793 77.9793 54.0755 76.9896 56.1405 74.9516C56.064 76.5577 54.5344 78.1233 53.3107 79.0005C51.3537 80.3997 48.6724 81.4389 46.2791 81.8483C43.7417 82.2847 41.1279 82.1812 38.6626 81.6279C38.0372 81.4884 37.4479 81.3579 36.926 80.944C36.5796 80.6696 36.1252 80.0173 36.962 80.0443" fill="#F58553"/>
    <path d="M38.3161 83.8863C40.2461 83.7783 42.302 84.0347 44.259 84.0347C46.3375 84.0347 48.182 83.3824 50.1705 82.8156C52.6358 82.1137 56.2709 80.9575 57.9669 78.8791C57.9085 79.9588 56.5003 81.3354 55.7445 82.0328C54.6198 83.0675 53.3377 83.6163 51.97 84.2642C50.6249 84.8985 49.3202 85.2089 47.8941 85.6678C46.3915 86.1447 44.9204 86.5721 43.3188 86.5856C41.7712 86.5991 40.0661 86.869 38.784 85.9872C38.3746 85.7038 36.575 83.5758 37.8617 83.3644" fill="#BC5127"/>
    <path opacity="0.5" d="M39.0675 87.7103C39.189 88.4616 40.2867 88.4976 40.9075 88.5965C42.8195 88.889 45.015 89.3568 46.9585 89.0059C48.2586 88.772 49.3069 88.5155 50.4406 87.8497C51.1559 87.4313 51.8127 86.905 52.5595 86.5361C52.0646 87.9667 50.1931 89.7392 48.8885 90.4186C47.4668 91.1609 45.2309 90.9809 43.6563 91.0124C41.6948 91.0529 39.0945 89.8157 38.9955 87.5618" fill="#F58553"/>
    <path opacity="0.5" d="M38.8785 93.8737C38.3431 94.6925 41.0469 95.3493 41.4878 95.4528C43.0894 95.8217 44.8664 95.7542 46.4995 95.5922C48.452 95.3988 50.4405 94.8274 52.2895 94.1391C53.5402 93.6712 54.9843 93.2483 56.037 92.3801C55.992 93.5138 54.7189 94.6475 53.9316 95.3538C53.1353 96.0691 52.222 96.411 51.1918 96.7034C49.1448 97.2793 47.1878 97.7562 45.0374 97.7562C43.5888 97.7562 41.3754 98.2061 40.3361 97.0004C39.5938 96.1366 39.1799 95.1828 38.874 94.1031" fill="#F58553"/>
    <path d="M38.541 97.9812C39.0764 99.0024 39.8637 99.2993 40.9839 99.4613C43.1208 99.7762 45.3388 99.6187 47.5027 99.6322C48.4654 99.6367 49.2527 99.3848 50.112 99.0384C50.9218 98.7145 51.7676 98.4985 52.5819 98.1341C54.053 97.4773 55.5511 96.6 57.0447 96.1006C56.4824 97.4413 54.8988 98.2196 53.7876 98.9979C52.6763 99.7762 51.7451 100.509 50.4224 100.964C48.2765 101.697 45.8066 102.152 43.5617 102.332C41.6182 102.489 39.7107 102.768 38.6175 100.995C38.0147 100.019 37.9382 99.0564 37.9382 97.9047" fill="#BC5127"/>
    <path opacity="0.5" d="M35.2119 99.6862C35.2119 104.707 38.6175 107.627 43.4493 108.31C46.2925 108.715 48.9873 108.261 51.4932 106.691C53.3602 105.521 54.8808 103.794 56.7343 102.588C55.83 105.346 54.6873 108.337 52.6719 110.506C50.4405 112.904 48.4115 112.323 45.3748 112.521C46.1666 113.826 47.9211 113.399 49.2303 113.399C51.3762 113.399 52.7169 113.412 54.5929 112.499C57.1302 111.266 59.3031 109.476 60.8732 107.154C60.6933 108.319 59.672 109.219 59.0512 110.168C58.3494 111.248 57.6251 112.202 56.7838 113.183C55.4611 114.721 54.152 116.021 52.231 116.867C51.0838 117.371 49.7521 117.7 48.515 117.897C46.504 118.221 44.1016 118.5 42.0636 118.347C40.5925 118.235 39.3059 117.506 38.1677 116.575C35.9272 114.744 35.5359 112.224 34.987 109.575C34.5461 107.447 35.1984 105.382 34.996 103.195C34.906 102.215 33.6463 98.9214 35.5538 99.3398L35.2119 99.6862Z" fill="#F58553"/>
    <path opacity="0.4" d="M84.4516 96.1006C84.4516 96.1006 81.3024 96.2941 80.1777 96.519C79.053 96.744 75.9848 96.519 75.9848 96.519C75.9848 96.519 75.5304 99.3668 75.3055 103.042C75.0805 106.718 75.0805 115.716 74.8556 117.362C74.6307 119.013 73.9558 119.238 73.281 116.089C72.6062 112.94 72.7906 100.892 72.8311 98.9169C72.8311 98.9169 72.1563 98.692 71.7064 98.692C71.2565 98.692 70.5007 116.912 71.1081 119.611C71.7154 122.311 73.0201 127.597 75.3819 129.509C77.7438 131.421 81.5678 133.67 83.4798 129.509C85.3918 125.347 86.5165 115.882 86.1791 113.979C85.8372 112.076 84.4516 96.1006 84.4516 96.1006Z" fill="#F58553"/>
    <path d="M62.4973 13.6011C62.4973 13.6011 62.5558 11.8871 61.1477 11.4912C59.7396 11.0953 58.4484 10.6454 57.1527 10.6454C55.8571 10.6454 54.5074 11.3787 54.0575 11.7701C53.6077 12.1615 53.3827 12.7284 53.3827 15.0318C53.3827 17.3352 53.3242 19.7016 52.312 20.2639C51.2998 20.8263 50.7914 21.1097 50.5665 23.0757C50.3415 25.0417 49.8466 28.9511 50.5665 29.599C51.2863 30.2468 51.8621 31.6234 52.4785 32.0193C53.0948 32.4152 54.5614 33.0901 55.1238 33.9313C55.6861 34.7726 57.0943 36.0143 57.0943 36.0143C57.0943 36.0143 58.7453 34.7006 58.6329 33.5759L59.6271 33.9898C59.6271 33.9898 59.4561 35.3395 59.6271 36.0143C59.798 36.6891 60.8103 38.3762 61.5976 37.8138C62.3849 37.2515 61.2602 36.5182 61.5391 36.0143C61.818 35.5104 62.0475 34.8896 62.4973 35.0021C62.9472 35.1145 64.4633 36.2977 64.8592 37.31C65.2551 38.3222 66.6363 39.4199 66.1324 40.7695C65.6285 42.1192 67.0277 43.9097 67.3066 44.7555C67.5855 45.6013 67.2436 47.7247 67.9184 47.7787C67.9184 47.7787 62.4973 49.3488 62.0475 46.816C61.5976 44.2831 60.2479 45.2414 59.5731 43.8917C58.8983 42.5421 53.3872 45.6373 51.5292 39.9553C49.6712 34.2732 47.4218 32.8696 47.4218 32.8696L44.6685 33.8279C44.6685 33.8279 45.5143 44.6835 43.6383 45.5833C41.7623 46.4831 44.1646 45.4348 39.5128 45.8082C34.8656 46.1816 34.9375 46.1816 33.8893 46.7845C32.8411 47.3828 30.9651 48.8089 29.6919 49.4838C28.4187 50.1586 26.5607 49.6322 25.1571 52.1651C23.7535 54.6979 22.5478 57.4557 22.2059 57.4782C21.549 57.5232 22.6288 56.0431 23.3576 53.0648C24.0864 50.0866 24.9906 48.5075 26.1153 47.1579C27.2401 45.8082 28.7607 44.2336 30.5017 42.1507C32.2427 40.0677 34.2717 38.5516 35.113 36.5811C35.9543 34.6107 36.3502 33.261 36.5211 31.349C36.6921 29.437 35.3379 27.6375 35.3379 27.6375C35.3379 27.6375 32.3552 19.931 36.4087 14.6449C40.4621 9.35876 42.887 8.34652 45.2713 7.89664C45.2713 7.89664 45.7977 6.77193 46.6435 6.71344C47.4893 6.65496 54.6289 5.81368 57.0493 6.71344C59.4696 7.61321 60.7608 8.59396 61.6066 9.45323C62.4389 10.308 63.676 12.8948 62.4973 13.6011Z" fill="#2F1C0F" stroke="#24150B" stroke-width="0.5" stroke-miterlimit="10" stroke-linecap="round" stroke-linejoin="round"/>
    <path d="M45.4423 23.908C44.4796 23.4716 41.8028 24.052 41.6138 26.4903C41.4249 28.9287 42.7745 30.7282 43.4493 32.0374C44.1242 33.351 45.4378 34.6197 46.45 34.1338C47.4623 33.648 47.4983 32.3343 47.6872 31.8664C47.8762 31.3985 47.5343 29.4281 47.4578 29.3156C47.4578 29.3156 46.8055 28.0874 46.738 27.3766C46.675 26.6613 46.738 24.4929 45.4423 23.908Z" fill="#F8BE89" stroke="#24150B" stroke-width="0.5" stroke-miterlimit="10" stroke-linecap="round" stroke-linejoin="round"/>
    <path d="M69.8933 38.3627C69.8933 38.3627 67.7564 37.6879 67.4775 38.3627C67.1985 39.0376 68.9981 39.8833 69.8933 42.3577C70.7931 44.832 72.3137 47.9272 72.0888 50.4016C71.8638 52.8759 71.8143 61.4822 72.1113 66.8043C72.4082 72.1264 72.4082 72.1264 72.4082 72.1264C72.4082 72.1264 72.8221 63.1647 73.1595 60.128C73.4969 57.0913 75.0715 53.1549 74.8466 49.8932C74.6216 46.6316 74.7296 41.5659 69.8933 38.3627Z" fill="#B04C26"/>
    <path d="M77.6583 39.9552C77.6583 39.9552 76.4886 39.4064 75.211 40.0812C73.9378 40.756 75.8408 43.4418 76.5156 45.9162C77.1904 48.3905 77.7888 66.5748 77.0015 70.1739C76.2142 73.7729 76.0747 76.2113 76.3132 78.0828C76.5516 79.9588 76.5516 76.8546 77.5638 73.1206C78.5761 69.3866 78.9135 65.9 79.1384 60.9513C79.3634 56.0026 80.2451 47.8282 77.6583 39.9552Z" fill="#B04C26"/>
    <path d="M91.0513 84.3992C91.0513 84.3992 90.5654 84.9345 90.5474 85.7488C90.5294 86.5631 89.8096 87.7463 86.539 92.0922C86.539 92.0922 85.3648 95.5967 85.6572 96.9194C85.9451 98.2375 89.4407 120.052 89.6657 123.426C89.8906 126.801 90.7364 128.263 90.7364 128.263C90.7364 128.263 91.8431 123.782 91.5057 116.921C91.1683 110.06 93.1613 100.626 92.9858 100.105C92.8148 99.5827 97.9885 112.404 97.2012 117.241C97.2012 117.241 99.2527 96.8834 91.4247 83.9493" fill="#B04C26"/>
    <path d="M98.5509 89.384C98.5509 89.384 103.005 104.46 102.24 108.859C102.235 108.855 105.677 94.8141 98.5509 89.384Z" fill="#B04C26"/>
    <path d="M75.6024 99.4883L74.0503 98.7055L72.8266 99.1194L73.0471 118.829L74.9006 123.098L75.6024 99.4883Z" fill="#B04C26"/>
    <path d="M68.8317 61.8781C68.8317 61.8781 71.2476 83.4635 68.9847 89.042C68.9847 89.042 69.2546 92.2722 69.4885 95.6238C69.5515 96.5191 69.556 97.6708 69.5245 98.9754C69.4435 102.556 69.1061 107.316 68.9847 111.271C68.8182 116.669 68.6877 126.238 68.6877 126.238L67.9184 120.705C67.9184 120.705 67.1761 90.6301 67.3246 89.7033C67.4731 88.7766 68.2783 83.8684 68.6248 81.4525C68.9712 79.0321 67.3246 64.339 67.3246 64.339L68.8317 61.8781Z" fill="#B04C26"/>
    <path d="M68.3953 51.2384C68.3953 51.2384 68.8497 57.3883 68.9036 58.8415C68.9531 60.2946 68.9531 60.2946 68.7912 61.7657C68.1343 62.8364 69.2096 66.9393 69.1151 67.3307C69.0206 67.7266 69.1196 70.201 69.1196 70.201C69.1196 70.201 69.9879 67.0968 69.9564 63.8396C69.9204 60.5825 69.9924 57.2849 69.9564 55.9532C69.9204 54.6216 69.295 47.5944 69.1871 47.4234C69.0791 47.2525 67.419 44.3282 67.419 44.3282C67.419 44.3282 67.3605 46.9781 67.9229 47.7654C68.7732 48.6561 68.3953 51.2384 68.3953 51.2384Z" fill="#B04C26"/>
    <path d="M80.5601 45.0165C80.5601 45.0165 80.7311 55.9531 80.5601 60.326C80.3937 64.6989 81.6309 71.4471 80.5601 74.5963C79.4939 77.7455 79.4939 80.2198 79.6064 80.7822C79.7189 81.3445 80.5601 82.7167 80.5601 82.7167L82.6566 82.1588C82.6566 82.1588 84.5506 78.4248 85.4504 77.525C86.3501 76.6252 90.624 75.2711 92.1986 75.5545C92.1986 75.5545 95.8337 74.5648 91.0379 73.5885C91.0379 73.5885 89.3868 72.2389 88.4871 72.9902C87.5873 73.7415 89.8367 68.7928 92.1626 67.965C92.1626 67.965 88.5636 66.089 86.9125 69.4631C85.2614 72.8372 88.712 63.6146 90.0617 62.9398C90.0617 62.9398 87.6638 62.0401 86.0127 65.5626C86.0127 65.5626 85.4144 64.0645 85.2614 63.3897C85.113 62.7149 84.4381 60.9918 84.2852 60.0156C84.1367 59.0393 84.0602 56.3401 82.8591 52.9659C81.6669 49.5918 81.9278 44.4182 80.5601 45.0165Z" fill="#B04C26"/>
    <path d="M63.5321 29.8959C63.3612 29.797 63.1947 29.3876 62.7449 29.8959C62.295 30.4043 61.5077 31.2186 61.0848 31.4705C60.6619 31.7225 60.1265 32.7347 59.0018 32.6222C57.8771 32.5098 57.0043 31.9024 56.415 31.5245C55.8257 31.1466 56.9639 32.3703 56.9639 32.3703C56.9639 32.3703 57.6522 34.5927 59.4967 34.1428C61.3367 33.6885 61.8451 33.7469 62.6324 33.3825C63.4197 33.0181 64.3419 33.0901 64.3419 33.0901C64.3419 33.0901 65.2912 33.4545 64.9268 31.6865C64.8143 31.1286 64.4049 30.4178 63.5321 29.8959Z" fill="#2F1C0F" stroke="#24150B" stroke-width="0.5" stroke-miterlimit="10" stroke-linecap="round" stroke-linejoin="round"/>
    <path opacity="0.5" d="M70.3118 38.6507C70.3118 38.6507 74.5137 41.0261 74.7611 48.5301C75.013 56.0342 73.11 57.3793 73.1775 59.9482C73.245 62.517 72.3317 67.9516 72.3812 71.6631C72.4307 75.3746 73.6634 84.8986 73.6634 84.8986C73.6634 84.8986 73.5284 66.0846 74.2123 63.4572C74.9006 60.8299 76.925 55.3099 76.3627 49.0205C75.8003 42.7357 74.1313 38.2773 70.3118 38.6507Z" fill="#F58553"/>
    <path opacity="0.5" d="M81.0371 41.5839C81.0371 41.5839 79.0801 39.8383 77.6539 39.9553C77.6539 39.9553 80.8391 51.4588 79.4625 59.7096C78.0858 67.956 79.197 67.8705 78.2298 70.2009C77.2625 72.5313 76.4977 78.5372 76.4977 78.5372C76.5112 79.9543 76.4977 84.5296 76.4977 84.5296C76.4977 84.5296 76.8846 84.6601 77.411 82.1183C77.9374 79.5809 77.2221 77.7814 78.5537 74.0294C79.8854 70.2818 80.9876 69.2921 80.8166 66.6738C80.6457 64.0555 80.6682 48.7235 80.5512 47.2254C80.4522 45.9837 80.8391 46.0422 81.0371 41.5839Z" fill="#F58553"/>
    <path d="M83.0659 81.3715C82.3101 82.7572 78.3467 85.7939 76.8306 86.8601C75.31 87.9308 75.184 89.6044 73.29 90.954C71.8954 91.9483 74.2977 92.7715 75.7284 92.4116C76.4482 92.2272 77.186 91.0395 77.186 91.0395C77.186 91.0395 76.0028 93.7073 73.7534 95.5248C72.6377 96.4246 71.7829 96.4741 71.7289 97.3199C71.6749 98.1656 72.7861 99.3083 74.5272 98.4671C74.5272 98.4671 76.0478 100.253 77.5099 99.0069C77.5099 99.0069 79.6468 99.7267 80.3801 98.9979C80.3801 98.9979 82.0132 99.7312 83.5878 98.2646C85.1624 96.798 87.2139 93.8288 87.8752 92.992C88.775 91.8538 92.0186 88.3942 91.4203 84.2193C91.4203 84.2193 91.6722 83.9494 89.6792 81.8439C88.4286 80.5257 83.7723 80.0759 83.0659 81.3715Z" fill="#F8BE89" stroke="#24150B" stroke-width="0.5" stroke-miterlimit="10" stroke-linecap="round" stroke-linejoin="round"/>
    <path d="M67.3561 82.4062C67.3561 82.4062 58.5699 91.6648 51.1423 91.1609C51.1423 91.1564 62.5738 93.2214 67.3561 82.4062Z" fill="#BC5127"/>
    <path d="M67.3561 88.8351C67.3561 88.8351 58.4934 103.605 55.1958 104.055C55.1958 104.055 63.1812 100.573 67.716 94.7601L67.3561 88.8351Z" fill="#BC5127"/>
    <path d="M68.3053 71.1142C68.3053 71.1142 59.4426 85.8838 56.145 86.3337C56.145 86.3337 64.1304 82.8516 68.6652 77.0391L68.3053 71.1142Z" fill="#BC5127"/>
    <path d="M67.356 99.6323C67.356 99.6323 63.1586 110.092 59.2492 112.004C59.2492 112.004 62.3174 113.016 65.4665 109.98C65.4665 109.98 60.2164 135.173 48.2225 139.82C48.2225 139.82 62.4478 134.102 67.3605 119.724C67.7159 118.676 67.356 99.6323 67.356 99.6323Z" fill="#BC5127"/>
    <path d="M67.716 67.0157C67.716 67.0157 65.6555 71.6765 61.4536 73.2241C61.4536 73.2241 65.4665 73.3141 67.716 70.6148V67.0157Z" fill="#BC5127"/>
    <path opacity="0.5" d="M80.7985 41.3859C80.7985 41.3859 82.0267 42.4656 82.1212 43.01C82.1212 43.01 84.618 43.4059 85.9002 45.7363C87.1779 48.0712 87.0654 49.2499 87.3083 49.5738C87.3083 49.5738 88.0686 50.6985 90.0661 51.5983C92.0636 52.498 92.626 55.6382 92.2885 57.2668C92.2885 57.2668 95.7571 60.4025 96.432 63.4392C96.432 63.4392 97.0978 65.4456 97.0708 65.9225C97.0438 66.3994 98.7579 73.1251 99.6576 74.2903C99.6576 74.2903 97.4622 72.6438 96.7334 70.5653C96.0046 68.4868 93.5842 61.4552 92.0636 59.7681C90.543 58.0811 89.0809 57.1813 85.8777 52.1741C82.6746 47.1669 82.3102 45.9702 81.6038 44.967C80.893 43.9637 79.4759 43.118 79.4759 43.118L80.7985 41.3859Z" fill="#F58553"/>
    <path opacity="0.5" d="M85.5628 80.1792C85.5628 80.1792 95.0328 76.0268 98.9288 82.712C98.9333 82.7165 95.5142 71.483 85.5628 80.1792Z" fill="#F58553"/>
    <path opacity="0.5" d="M85.6573 80.1298C85.6573 80.1298 95.9776 79.473 97.3497 87.0895C97.3452 87.0895 97.9841 75.3655 85.6573 80.1298Z" fill="#F58553"/>
    <path d="M44.3986 59.2868C44.3986 58.9764 44.6505 58.7289 44.9564 58.7289C45.2623 58.7289 45.5143 58.9809 45.5143 59.2868C45.5143 59.5972 45.2623 59.8446 44.9564 59.8446C44.6505 59.8446 44.3986 59.5927 44.3986 59.2868Z" fill="#2F1C0F" stroke="#24150B" stroke-width="0.5" stroke-miterlimit="10" stroke-linecap="round" stroke-linejoin="round"/>
    <path d="M41.2764 46.2762C41.2764 45.9658 41.5283 45.7183 41.8342 45.7183C42.1446 45.7183 42.3921 45.9703 42.3921 46.2762C42.3921 46.5866 42.1401 46.834 41.8342 46.834C41.5238 46.834 41.2764 46.5866 41.2764 46.2762Z" fill="#2F1C0F" stroke="#24150B" stroke-width="0.5" stroke-miterlimit="10" stroke-linecap="round" stroke-linejoin="round"/>
    <path d="M41.2764 47.3964C41.2764 47.0859 41.5283 46.8385 41.8342 46.8385C42.1446 46.8385 42.3921 47.0904 42.3921 47.3964C42.3921 47.7023 42.1401 47.9542 41.8342 47.9542C41.5238 47.9542 41.2764 47.7068 41.2764 47.3964Z" fill="#2F1C0F" stroke="#24150B" stroke-width="0.5" stroke-miterlimit="10" stroke-linecap="round" stroke-linejoin="round"/>
    <path d="M43.9577 58.1666C43.9577 57.8561 44.2096 57.6087 44.5155 57.6087C44.8214 57.6087 45.0734 57.8606 45.0734 58.1666C45.0734 58.477 44.8214 58.7244 44.5155 58.7244C44.2096 58.7244 43.9577 58.477 43.9577 58.1666Z" fill="#2F1C0F" stroke="#24150B" stroke-width="0.5" stroke-miterlimit="10" stroke-linecap="round" stroke-linejoin="round"/>
    <path d="M43.3998 57.0464C43.3998 56.736 43.6517 56.4885 43.9576 56.4885C44.268 56.4885 44.5155 56.7405 44.5155 57.0464C44.5155 57.3568 44.2636 57.6042 43.9576 57.6042C43.6517 57.6042 43.3998 57.3568 43.3998 57.0464Z" fill="#2F1C0F" stroke="#24150B" stroke-width="0.5" stroke-miterlimit="10" stroke-linecap="round" stroke-linejoin="round"/>
    <path d="M42.8375 55.8273C42.8375 55.5168 43.0894 55.2694 43.3953 55.2694C43.7012 55.2694 43.9532 55.5213 43.9532 55.8273C43.9532 56.1377 43.7012 56.3851 43.3953 56.3851C43.0894 56.3851 42.8375 56.1377 42.8375 55.8273Z" fill="#2F1C0F" stroke="#24150B" stroke-width="0.5" stroke-miterlimit="10" stroke-linecap="round" stroke-linejoin="round"/>
    <path d="M42.446 54.5315C42.446 54.2211 42.698 53.9736 43.0039 53.9736C43.3098 53.9736 43.5617 54.2256 43.5617 54.5315C43.5617 54.8419 43.3098 55.0893 43.0039 55.0893C42.698 55.0893 42.446 54.8419 42.446 54.5315Z" fill="#2F1C0F" stroke="#24150B" stroke-width="0.5" stroke-miterlimit="10" stroke-linecap="round" stroke-linejoin="round"/>
    <path d="M41.9512 53.3394C41.9512 53.029 42.2031 52.7816 42.509 52.7816C42.8149 52.7816 43.0669 53.0335 43.0669 53.3394C43.0669 53.6498 42.8149 53.8973 42.509 53.8973C42.2031 53.8973 41.9512 53.6498 41.9512 53.3394Z" fill="#2F1C0F" stroke="#24150B" stroke-width="0.5" stroke-miterlimit="10" stroke-linecap="round" stroke-linejoin="round"/>
    <path d="M41.5057 52.1157C41.5057 51.8053 41.7577 51.5579 42.0636 51.5579C42.374 51.5579 42.6214 51.8098 42.6214 52.1157C42.6214 52.4261 42.3695 52.6736 42.0636 52.6736C41.7577 52.6781 41.5057 52.4261 41.5057 52.1157Z" fill="#2F1C0F" stroke="#24150B" stroke-width="0.5" stroke-miterlimit="10" stroke-linecap="round" stroke-linejoin="round"/>
    <path d="M41.2764 50.928C41.2764 50.6176 41.5283 50.3702 41.8342 50.3702C42.1446 50.3702 42.3921 50.6221 42.3921 50.928C42.3921 51.2385 42.1401 51.4859 41.8342 51.4859C41.5238 51.4859 41.2764 51.2385 41.2764 50.928Z" fill="#2F1C0F" stroke="#24150B" stroke-width="0.5" stroke-miterlimit="10" stroke-linecap="round" stroke-linejoin="round"/>
    <path d="M41.1413 49.6323C41.1413 49.3219 41.3933 49.0745 41.6992 49.0745C42.0096 49.0745 42.257 49.3264 42.257 49.6323C42.257 49.9427 42.0051 50.1902 41.6992 50.1902C41.3933 50.1947 41.1413 49.9427 41.1413 49.6323Z" fill="#2F1C0F" stroke="#24150B" stroke-width="0.5" stroke-miterlimit="10" stroke-linecap="round" stroke-linejoin="round"/>
    <path d="M41.1413 48.5166C41.1413 48.2062 41.3933 47.9587 41.6992 47.9587C42.0096 47.9587 42.257 48.2107 42.257 48.5166C42.257 48.827 42.0051 49.0745 41.6992 49.0745C41.3933 49.0745 41.1413 48.8225 41.1413 48.5166Z" fill="#2F1C0F" stroke="#24150B" stroke-width="0.5" stroke-miterlimit="10" stroke-linecap="round" stroke-linejoin="round"/>
    <path d="M44.9609 60.5914C44.9609 60.281 45.2128 60.0336 45.5187 60.0336C45.8291 60.0336 46.0766 60.2855 46.0766 60.5914C46.0766 60.9018 45.8246 61.1493 45.5187 61.1493C45.2128 61.1493 44.9609 60.8973 44.9609 60.5914Z" fill="#2F1C0F" stroke="#24150B" stroke-width="0.5" stroke-miterlimit="10" stroke-linecap="round" stroke-linejoin="round"/>
    <path d="M45.5187 61.7656C45.5187 61.4552 45.7707 61.2078 46.0766 61.2078C46.3825 61.2078 46.6345 61.4597 46.6345 61.7656C46.6345 62.0715 46.3825 62.3235 46.0766 62.3235C45.7707 62.3235 45.5187 62.076 45.5187 61.7656Z" fill="#2F1C0F" stroke="#24150B" stroke-width="0.5" stroke-miterlimit="10" stroke-linecap="round" stroke-linejoin="round"/>
    <path d="M46.216 62.8903C46.216 62.5799 46.4679 62.3325 46.7739 62.3325C47.0843 62.3325 47.3317 62.5844 47.3317 62.8903C47.3317 63.2007 47.0798 63.4482 46.7739 63.4482C46.4679 63.4482 46.216 63.2007 46.216 62.8903Z" fill="#2F1C0F" stroke="#24150B" stroke-width="0.5" stroke-miterlimit="10" stroke-linecap="round" stroke-linejoin="round"/>
    <path d="M46.7784 64.1095C46.7784 63.7991 47.0304 63.5517 47.3363 63.5517C47.6467 63.5517 47.8941 63.8036 47.8941 64.1095C47.8941 64.42 47.6422 64.6674 47.3363 64.6674C47.0259 64.6674 46.7784 64.4155 46.7784 64.1095Z" fill="#2F1C0F" stroke="#24150B" stroke-width="0.5" stroke-miterlimit="10" stroke-linecap="round" stroke-linejoin="round"/>
    <path d="M47.3362 65.3017C47.3362 64.9913 47.5882 64.7438 47.8941 64.7438C48.2 64.7438 48.4519 64.9958 48.4519 65.3017C48.4519 65.6121 48.2 65.8595 47.8941 65.8595C47.5882 65.8595 47.3362 65.6121 47.3362 65.3017Z" fill="#2F1C0F" stroke="#24150B" stroke-width="0.5" stroke-miterlimit="10" stroke-linecap="round" stroke-linejoin="round"/>
    <path d="M48.092 66.4219C48.092 66.1115 48.3439 65.8641 48.6498 65.8641C48.9558 65.8641 49.2077 66.116 49.2077 66.4219C49.2077 66.7324 48.9558 66.9798 48.6498 66.9798C48.3439 66.9798 48.092 66.7324 48.092 66.4219Z" fill="#2F1C0F" stroke="#24150B" stroke-width="0.5" stroke-miterlimit="10" stroke-linecap="round" stroke-linejoin="round"/>
    <path d="M48.7758 67.5421C48.7758 67.2317 49.0278 66.9843 49.3337 66.9843C49.6441 66.9843 49.8916 67.2362 49.8916 67.5421C49.8916 67.8525 49.6396 68.1 49.3337 68.1C49.0233 68.1 48.7758 67.8525 48.7758 67.5421Z" fill="#2F1C0F" stroke="#24150B" stroke-width="0.5" stroke-miterlimit="10" stroke-linecap="round" stroke-linejoin="round"/>
    <path d="M49.3338 68.7524C49.3338 68.4419 49.5857 68.1945 49.8916 68.1945C50.202 68.1945 50.4495 68.4464 50.4495 68.7524C50.4495 69.0628 50.1975 69.3102 49.8916 69.3102C49.5857 69.3147 49.3338 69.0628 49.3338 68.7524Z" fill="#2F1C0F" stroke="#24150B" stroke-width="0.5" stroke-miterlimit="10" stroke-linecap="round" stroke-linejoin="round"/>
    <path d="M50.7014 70.4303C51.0094 70.4303 51.2592 70.1806 51.2592 69.8725C51.2592 69.5644 51.0094 69.3146 50.7014 69.3146C50.3933 69.3146 50.1435 69.5644 50.1435 69.8725C50.1435 70.1806 50.3933 70.4303 50.7014 70.4303Z" fill="#2F1C0F" stroke="#24150B" stroke-width="0.5" stroke-miterlimit="10" stroke-linecap="round" stroke-linejoin="round"/>
    <path d="M51.0163 70.8713C51.0163 70.5608 51.2682 70.3134 51.5742 70.3134C51.8801 70.3134 52.132 70.5653 52.132 70.8713C52.132 71.1817 51.8801 71.4291 51.5742 71.4291C51.2682 71.4291 51.0163 71.1817 51.0163 70.8713Z" fill="#2F1C0F" stroke="#24150B" stroke-width="0.5" stroke-miterlimit="10" stroke-linecap="round" stroke-linejoin="round"/>
    <path d="M51.997 71.5641C51.997 71.2537 52.249 71.0063 52.5549 71.0063C52.8653 71.0063 53.1127 71.2582 53.1127 71.5641C53.1127 71.8701 52.8608 72.122 52.5549 72.122C52.249 72.122 51.997 71.8701 51.997 71.5641Z" fill="#2F1C0F" stroke="#24150B" stroke-width="0.5" stroke-miterlimit="10" stroke-linecap="round" stroke-linejoin="round"/>
    <path d="M53.1172 71.9914C53.1172 71.681 53.3692 71.4335 53.6751 71.4335C53.9855 71.4335 54.233 71.6855 54.233 71.9914C54.233 72.3018 53.981 72.5492 53.6751 72.5492C53.3692 72.5492 53.1172 72.3018 53.1172 71.9914Z" fill="#2F1C0F" stroke="#24150B" stroke-width="0.5" stroke-miterlimit="10" stroke-linecap="round" stroke-linejoin="round"/>
    <path d="M54.3229 72.3649C54.3229 72.0545 54.5749 71.8071 54.8808 71.8071C55.1867 71.8071 55.4386 72.059 55.4386 72.3649C55.4386 72.6753 55.1867 72.9228 54.8808 72.9228C54.5749 72.9228 54.3229 72.6753 54.3229 72.3649Z" fill="#2F1C0F" stroke="#24150B" stroke-width="0.5" stroke-miterlimit="10" stroke-linecap="round" stroke-linejoin="round"/>
    <path d="M55.5466 72.5493C55.5466 72.2388 55.7985 71.9914 56.1044 71.9914C56.4148 71.9914 56.6623 72.2433 56.6623 72.5493C56.6623 72.8597 56.4103 73.1071 56.1044 73.1071C55.794 73.1116 55.5466 72.8597 55.5466 72.5493Z" fill="#2F1C0F" stroke="#24150B" stroke-width="0.5" stroke-miterlimit="10" stroke-linecap="round" stroke-linejoin="round"/>
    <path d="M56.7658 72.3649C56.7658 72.0545 57.0177 71.8071 57.3237 71.8071C57.6341 71.8071 57.8815 72.059 57.8815 72.3649C57.8815 72.6753 57.6296 72.9228 57.3237 72.9228C57.0132 72.9273 56.7658 72.6753 56.7658 72.3649Z" fill="#2F1C0F" stroke="#24150B" stroke-width="0.5" stroke-miterlimit="10" stroke-linecap="round" stroke-linejoin="round"/>
    <path d="M57.9985 72.122C57.9985 71.8116 58.2504 71.5641 58.5563 71.5641C58.8667 71.5641 59.1142 71.8161 59.1142 72.122C59.1142 72.4279 58.8623 72.6798 58.5563 72.6798C58.2459 72.6798 57.9985 72.4324 57.9985 72.122Z" fill="#2F1C0F" stroke="#24150B" stroke-width="0.5" stroke-miterlimit="10" stroke-linecap="round" stroke-linejoin="round"/>
    <path d="M59.0243 71.4335C59.0243 71.1231 59.2762 70.8757 59.5821 70.8757C59.8925 70.8757 60.14 71.1276 60.14 71.4335C60.14 71.7439 59.888 71.9914 59.5821 71.9914C59.2717 71.9914 59.0243 71.7394 59.0243 71.4335Z" fill="#2F1C0F" stroke="#24150B" stroke-width="0.5" stroke-miterlimit="10" stroke-linecap="round" stroke-linejoin="round"/>
    <path d="M60.104 70.7949C60.104 70.4844 60.3559 70.237 60.6618 70.237C60.9722 70.237 61.2197 70.4889 61.2197 70.7949C61.2197 71.1053 60.9678 71.3527 60.6618 71.3527C60.3559 71.3527 60.104 71.1053 60.104 70.7949Z" fill="#2F1C0F" stroke="#24150B" stroke-width="0.5" stroke-miterlimit="10" stroke-linecap="round" stroke-linejoin="round"/>
    <path d="M61.1162 70.2009C61.1162 69.8905 61.3682 69.643 61.6741 69.643C61.9845 69.643 62.232 69.8949 62.232 70.2009C62.232 70.5113 61.98 70.7587 61.6741 70.7587C61.3682 70.7587 61.1162 70.5113 61.1162 70.2009Z" fill="#2F1C0F" stroke="#24150B" stroke-width="0.5" stroke-miterlimit="10" stroke-linecap="round" stroke-linejoin="round"/>
    <path d="M61.845 69.1752C61.845 68.8648 62.0969 68.6174 62.4029 68.6174C62.7088 68.6174 62.9607 68.8693 62.9607 69.1752C62.9607 69.4812 62.7088 69.7331 62.4029 69.7331C62.0969 69.7331 61.845 69.4857 61.845 69.1752Z" fill="#2F1C0F" stroke="#24150B" stroke-width="0.5" stroke-miterlimit="10" stroke-linecap="round" stroke-linejoin="round"/>
    <path d="M62.1824 68.1C62.1824 67.7896 62.4343 67.5422 62.7402 67.5422C63.0506 67.5422 63.2981 67.7941 63.2981 68.1C63.2981 68.4104 63.0461 68.6579 62.7402 68.6579C62.4343 68.6624 62.1824 68.4104 62.1824 68.1Z" fill="#2F1C0F" stroke="#24150B" stroke-width="0.5" stroke-miterlimit="10" stroke-linecap="round" stroke-linejoin="round"/>
    <path d="M62.6458 66.8763C62.6458 66.5659 62.8977 66.3185 63.2037 66.3185C63.5096 66.3185 63.7615 66.5704 63.7615 66.8763C63.7615 67.1868 63.5096 67.4342 63.2037 67.4342C62.8977 67.4342 62.6458 67.1868 62.6458 66.8763Z" fill="#2F1C0F" stroke="#24150B" stroke-width="0.5" stroke-miterlimit="10" stroke-linecap="round" stroke-linejoin="round"/>
    <path d="M62.8256 65.7561C62.8256 65.4457 63.0776 65.1982 63.3835 65.1982C63.6894 65.1982 63.9413 65.4502 63.9413 65.7561C63.9413 66.0665 63.6894 66.3139 63.3835 66.3139C63.0776 66.3139 62.8256 66.0665 62.8256 65.7561Z" fill="#2F1C0F" stroke="#24150B" stroke-width="0.5" stroke-miterlimit="10" stroke-linecap="round" stroke-linejoin="round"/>
    <path d="M62.9652 64.4649C62.9652 64.1545 63.2171 63.907 63.5231 63.907C63.8335 63.907 64.0809 64.159 64.0809 64.4649C64.0809 64.7753 63.829 65.0228 63.5231 65.0228C63.2171 65.0228 62.9652 64.7753 62.9652 64.4649Z" fill="#2F1C0F" stroke="#24150B" stroke-width="0.5" stroke-miterlimit="10" stroke-linecap="round" stroke-linejoin="round"/>
    <path d="M63.1361 63.2007C63.1361 62.8903 63.388 62.6429 63.694 62.6429C64.0044 62.6429 64.2518 62.8948 64.2518 63.2007C64.2518 63.5112 63.9999 63.7586 63.694 63.7586C63.388 63.7586 63.1361 63.5067 63.1361 63.2007Z" fill="#2F1C0F" stroke="#24150B" stroke-width="0.5" stroke-miterlimit="10" stroke-linecap="round" stroke-linejoin="round"/>
    <path d="M63.3026 61.9231C63.3026 61.6127 63.5545 61.3652 63.8604 61.3652C64.1663 61.3652 64.4183 61.6172 64.4183 61.9231C64.4183 62.229 64.1663 62.4809 63.8604 62.4809C63.5545 62.4809 63.3026 62.2335 63.3026 61.9231Z" fill="#2F1C0F" stroke="#24150B" stroke-width="0.5" stroke-miterlimit="10" stroke-linecap="round" stroke-linejoin="round"/>
    <path d="M63.3026 57.0464C63.3026 56.736 63.5545 56.4885 63.8604 56.4885C64.1663 56.4885 64.4183 56.7405 64.4183 57.0464C64.4183 57.3568 64.1663 57.6042 63.8604 57.6042C63.5545 57.6042 63.3026 57.3568 63.3026 57.0464Z" fill="#2F1C0F" stroke="#24150B" stroke-width="0.5" stroke-miterlimit="10" stroke-linecap="round" stroke-linejoin="round"/>
    <path d="M63.3881 58.2791C63.3881 57.9686 63.64 57.7212 63.9459 57.7212C64.2518 57.7212 64.5038 57.9731 64.5038 58.2791C64.5038 58.5895 64.2518 58.8369 63.9459 58.8369C63.64 58.8369 63.3881 58.5895 63.3881 58.2791Z" fill="#2F1C0F" stroke="#24150B" stroke-width="0.5" stroke-miterlimit="10" stroke-linecap="round" stroke-linejoin="round"/>
    <path d="M63.4601 59.4712C63.4601 59.1608 63.712 58.9134 64.0179 58.9134C64.3283 58.9134 64.5758 59.1653 64.5758 59.4712C64.5758 59.7817 64.3238 60.0291 64.0179 60.0291C63.712 60.0291 63.4601 59.7817 63.4601 59.4712Z" fill="#2F1C0F" stroke="#24150B" stroke-width="0.5" stroke-miterlimit="10" stroke-linecap="round" stroke-linejoin="round"/>
    <path d="M63.3881 60.6904C63.3881 60.38 63.64 60.1326 63.9459 60.1326C64.2518 60.1326 64.5038 60.3845 64.5038 60.6904C64.5038 61.0008 64.2518 61.2483 63.9459 61.2483C63.64 61.2483 63.3881 61.0008 63.3881 60.6904Z" fill="#2F1C0F" stroke="#24150B" stroke-width="0.5" stroke-miterlimit="10" stroke-linecap="round" stroke-linejoin="round"/>
    <path d="M63.3026 55.8273C63.3026 55.5168 63.5545 55.2694 63.8604 55.2694C64.1663 55.2694 64.4183 55.5213 64.4183 55.8273C64.4183 56.1377 64.1663 56.3851 63.8604 56.3851C63.5545 56.3851 63.3026 56.1377 63.3026 55.8273Z" fill="#2F1C0F" stroke="#24150B" stroke-width="0.5" stroke-miterlimit="10" stroke-linecap="round" stroke-linejoin="round"/>
    <path d="M63.2486 54.5315C63.2486 54.2211 63.5005 53.9736 63.8065 53.9736C64.1124 53.9736 64.3643 54.2256 64.3643 54.5315C64.3643 54.8419 64.1124 55.0893 63.8065 55.0893C63.5005 55.0893 63.2486 54.8419 63.2486 54.5315Z" fill="#2F1C0F" stroke="#24150B" stroke-width="0.5" stroke-miterlimit="10" stroke-linecap="round" stroke-linejoin="round"/>
    <path d="M62.5512 48.0983C62.5512 47.7878 62.8031 47.5404 63.1091 47.5404C63.4195 47.5404 63.6669 47.7923 63.6669 48.0983C63.6669 48.4087 63.415 48.6561 63.1091 48.6561C62.8031 48.6561 62.5512 48.4042 62.5512 48.0983Z" fill="#2F1C0F" stroke="#24150B" stroke-width="0.5" stroke-miterlimit="10" stroke-linecap="round" stroke-linejoin="round"/>
    <path d="M62.8256 49.3578C62.8256 49.0474 63.0776 48.8 63.3835 48.8C63.6894 48.8 63.9413 49.0519 63.9413 49.3578C63.9413 49.6683 63.6894 49.9157 63.3835 49.9157C63.0776 49.9157 62.8256 49.6638 62.8256 49.3578Z" fill="#2F1C0F" stroke="#24150B" stroke-width="0.5" stroke-miterlimit="10" stroke-linecap="round" stroke-linejoin="round"/>
    <path d="M62.9832 50.676C62.9832 50.3655 63.2352 50.1181 63.5411 50.1181C63.8515 50.1181 64.099 50.37 64.099 50.676C64.099 50.9864 63.847 51.2338 63.5411 51.2338C63.2352 51.2383 62.9832 50.9864 62.9832 50.676Z" fill="#2F1C0F" stroke="#24150B" stroke-width="0.5" stroke-miterlimit="10" stroke-linecap="round" stroke-linejoin="round"/>
    <path d="M63.1136 51.9447C63.1136 51.6343 63.3656 51.3868 63.6715 51.3868C63.9819 51.3868 64.2294 51.6388 64.2294 51.9447C64.2294 52.2551 63.9774 52.5026 63.6715 52.5026C63.3611 52.5026 63.1136 52.2506 63.1136 51.9447Z" fill="#2F1C0F" stroke="#24150B" stroke-width="0.5" stroke-miterlimit="10" stroke-linecap="round" stroke-linejoin="round"/>
    <path d="M63.1901 53.2359C63.1901 52.9255 63.442 52.678 63.7479 52.678C64.0538 52.678 64.3058 52.93 64.3058 53.2359C64.3058 53.5463 64.0538 53.7938 63.7479 53.7938C63.442 53.7938 63.1901 53.5463 63.1901 53.2359Z" fill="#2F1C0F" stroke="#24150B" stroke-width="0.5" stroke-miterlimit="10" stroke-linecap="round" stroke-linejoin="round"/>
    <path d="M56.145 65.3016C56.145 65.3016 54.2914 69.7465 52.7168 69.6385C51.1423 69.5305 58.9657 68.0999 58.9657 68.0999C58.9657 68.0999 56.6713 67.2361 56.073 65.1982" fill="#EDA06B"/>
    <path d="M82.3597 91.7054C82.3597 91.7054 80.7266 98.1657 77.4515 98.836C77.4515 98.836 81.8783 97.7113 82.3597 91.7054Z" fill="#EDA06B"/>
    <path d="M84.2447 92.992C84.2447 92.992 83.156 98.4761 80.3802 98.9934C80.3802 98.9934 84.0512 99.1644 84.2447 92.992Z" fill="#EDA06B"/>
    <path d="M44.772 25.2171C44.0162 25.3296 42.3516 25.9145 42.3876 26.8907C42.4236 27.8669 42.833 29.5225 43.4763 30.6067C44.1196 31.6954 45.1589 32.7122 45.8877 32.0643C46.6165 31.421 47.4308 31.0521 46.7335 29.707C46.1081 28.5013 45.5323 29.6215 45.2174 28.6497C44.9024 27.6735 45.8022 27.6195 45.9057 27.0572C46.0136 26.4948 45.5323 25.1047 44.772 25.2171Z" fill="#EDA572"/>
    <path d="M54.9753 22.5583C54.9753 22.5583 57.8141 19.4631 59.8386 19.6611C61.863 19.859 62.7358 20.8128 62.7358 20.8128C62.7358 20.8128 62.9877 21.6586 62.5964 21.4336C62.205 21.2087 60.3469 20.2504 59.1098 20.5878C57.8726 20.9253 54.9753 22.5583 54.9753 22.5583Z" fill="#2F1C0F" stroke="#24150B" stroke-width="0.5" stroke-miterlimit="10" stroke-linecap="round" stroke-linejoin="round"/>
    <path d="M61.1342 12.1841C61.3231 12.3235 61.7685 19.9041 63.8065 19.6521" stroke="#C65E28" stroke-width="0.5" stroke-miterlimit="10" stroke-linecap="round" stroke-linejoin="round"/>
    <path d="M57.715 24.4928L58.0794 24.0025C58.0794 24.0025 59.672 22.2479 60.8147 22.2794C61.0442 22.2884 61.6875 22.5538 61.6875 22.5538L57.715 24.4928Z" fill="#DB915D"/>
    <path d="M61.6246 24.6324C61.6246 24.6324 59.7306 24.8393 58.3179 24.151C58.3179 24.151 59.6811 25.0598 61.6381 24.9428C61.8 24.8483 61.836 24.6144 61.6246 24.6324Z" fill="#271C0F"/>
    <path d="M61.6246 24.6324C61.6246 24.6324 62.3669 23.3952 61.4041 22.9003L58.3179 24.151C58.3179 24.151 59.6091 24.8843 61.6246 24.6324Z" fill="white"/>
    <path d="M61.4041 22.9003C61.4041 22.9003 61.1072 22.8868 60.9362 23.0893C60.6258 23.4582 60.3784 24.3355 61.1521 24.6594C61.3321 24.7358 61.5076 24.7179 61.6245 24.6324C61.6245 24.6324 62.3893 23.4312 61.4041 22.9003Z" fill="#271C0F"/>
    <path d="M61.7101 23.8225C61.7101 24.1374 61.5661 24.3803 61.3816 24.3624C61.1972 24.3489 61.0442 24.0789 61.0442 23.764C61.0397 23.4491 61.1882 23.2061 61.3726 23.2241C61.5571 23.2376 61.7056 23.5076 61.7101 23.8225Z" fill="black"/>
    <path d="M58.3179 24.151C58.4933 24.1105 61.4895 22.8778 61.8854 22.6979C61.8854 22.6979 62.0699 22.5539 61.6875 22.5584C61.3051 22.5584 58.0974 24.2005 58.3179 24.151Z" fill="#271C0F"/>
    <path d="M59.6945 23.9845C59.6945 23.9845 60.7517 24.07 60.8912 23.9261C61.0307 23.7821 61.0712 24.178 60.9632 24.295C60.8552 24.4164 59.717 24.196 59.6945 23.9845Z" fill="white"/>
    <path opacity="0.4" d="M58.3179 24.151C58.3179 24.151 59.7891 23.6426 60.0095 23.6741C60.2299 23.7056 60.3019 24.4164 60.122 24.4389C59.9375 24.4614 59.2267 24.4704 58.8983 24.3894C58.6239 24.3264 58.3179 24.151 58.3179 24.151Z" fill="#D8D8D8"/>
    <path d="M61.935 25.1406C61.935 25.1406 60.7878 26.3238 59.2852 25.7165C59.2807 25.7165 61.2647 26.7692 61.935 25.1406Z" fill="#F8BE89"/>
    <path d="M62.7448 28.0874C62.5198 28.0874 62.1644 28.0739 62.007 28.2674C61.863 28.4383 61.8045 28.7487 61.8765 28.9602C62.052 29.4955 62.6908 29.6215 63.1857 29.59C63.2172 29.59 63.2801 29.7205 63.3116 29.7115" stroke="#24150B" stroke-width="0.5" stroke-miterlimit="10" stroke-linecap="round" stroke-linejoin="round"/>
    <path d="M44.8079 25.2441C44.8079 25.2441 42.7025 26.1394 43.1254 27.2056C43.5483 28.2718 43.7732 30.1569 44.3086 30.5797C44.8439 31.0026 45.6492 31.9294 46.4275 31.3131L46.9539 30.9172C46.9539 30.9172 46.5175 32.6312 45.0959 32.1408C43.6742 31.6505 42.6845 28.8117 42.5495 28.0334C42.4191 27.2506 41.7397 25.775 44.8079 25.2441Z" fill="#DD9869"/>
    <path d="M83.6102 95.0209C83.4662 95.7003 83.0209 96.3076 82.652 96.888C82.3775 97.3198 82.1301 97.7562 81.7882 98.1386C81.4013 98.5705 80.8839 98.7999 80.3531 98.9709" stroke="#24150B" stroke-width="0.5" stroke-miterlimit="10" stroke-linecap="round" stroke-linejoin="round"/>
    <path d="M76.6686 91.8538C77.105 91.2914 77.4739 90.3692 78.0137 89.9553L76.6686 91.8538Z" fill="#F8BE89"/>
    <path d="M76.6686 91.8538C77.105 91.2914 77.4739 90.3692 78.0137 89.9553" stroke="#24150B" stroke-width="0.5" stroke-miterlimit="10" stroke-linecap="round" stroke-linejoin="round"/>
    <path d="M81.6668 93.7028C81.5903 93.7433 81.4958 93.9728 81.4328 94.0762C81.2709 94.3507 81.1359 94.6206 81.0054 94.913C80.7715 95.4394 80.4476 95.9747 80.0697 96.4111C79.6468 96.897 79.2824 97.4368 78.8145 97.8822C78.3646 98.3141 77.9237 98.5301 77.5099 98.9979" stroke="#24150B" stroke-width="0.5" stroke-miterlimit="10" stroke-linecap="round" stroke-linejoin="round"/>
    <path d="M58.7408 77.5834C57.4766 79.2705 55.8795 80.4852 54.188 81.7763C52.6089 82.9775 51.1018 84.3856 49.1763 85.0515C46.324 86.0412 43.3593 86.5631 40.4665 85.5688C40.2596 85.4969 40.1066 85.3754 39.8997 85.3439" stroke="#24150B" stroke-width="0.5" stroke-miterlimit="10" stroke-linecap="round" stroke-linejoin="round"/>
    <path d="M34.4292 101.463C34.4337 102.822 35.3109 104.689 36.3367 105.638C38.3072 107.469 41.0829 107.46 43.6113 107.46C47.5567 107.46 51.6732 105.917 54.8538 103.753C56.5814 102.579 58.6373 101.679 59.996 100.037" stroke="#24150B" stroke-width="0.5" stroke-miterlimit="10" stroke-linecap="round" stroke-linejoin="round"/>
    <path d="M38.6266 96.2896C38.5186 96.8654 38.9415 97.9361 39.3014 98.395C39.8682 99.1238 40.741 99.4117 41.5643 99.7582C43.5843 100.604 46.1531 100.707 48.335 100.397C50.0266 100.159 51.7316 99.1688 53.3017 98.5075C54.9168 97.8282 57.0177 97.6662 58.4304 96.6495C59.0557 96.2041 59.7215 95.6372 60.2884 95.1649" stroke="#24150B" stroke-width="0.5" stroke-miterlimit="10" stroke-linecap="round" stroke-linejoin="round"/>
    <path d="M68.4717 62.2515C68.6472 63.8306 69.0071 65.3332 69.1511 66.8943C69.295 68.5093 69.0971 70.1784 69.2231 71.7845C69.5695 76.1843 69.9608 80.5662 69.52 85.047C69.4165 86.0907 69.277 86.8915 68.9981 87.8948C68.7552 88.772 68.7057 89.6988 68.8541 90.6391C69.0926 92.1777 69.6099 93.7972 69.6729 95.3718C69.7494 97.2028 69.9024 99.0609 69.8214 100.937C69.7629 102.296 69.286 103.623 69.367 104.995C69.538 107.82 70.6177 110.929 70.5052 113.844C70.5907 113.803 70.6402 113.723 70.6447 113.615" stroke="#24150B" stroke-width="0.5" stroke-miterlimit="10" stroke-linecap="round" stroke-linejoin="round"/>
    <path d="M83.6553 103.677C85.0274 105.022 85.1669 106.574 85.7023 108.346C86.2781 110.249 86.755 112.134 87.0879 114.082C87.7132 117.749 88.2576 121.276 88.2711 125.015C88.2756 127.228 87.8662 129.262 87.0294 131.25C86.4401 132.654 85.2254 135.488 83.3224 135.168" stroke="#24150B" stroke-width="0.5" stroke-miterlimit="10" stroke-linecap="round" stroke-linejoin="round"/>
    <path d="M79.9438 104.352C81.1675 105.917 81.064 109.057 81.2665 110.978C81.4779 112.962 81.9323 115.14 81.6084 117.178C81.4014 118.487 80.7446 119.576 80.0833 120.66C79.4219 121.739 78.1893 122.774 77.8069 123.921" stroke="#24150B" stroke-width="0.5" stroke-miterlimit="10" stroke-linecap="round" stroke-linejoin="round"/>
    <path d="M67.4191 38.1828C67.3291 38.8171 67.725 39.438 67.9634 40.0048C68.2378 40.6527 68.4313 41.3005 68.6922 41.9708C69.2231 43.3385 69.7674 44.6116 70.2083 45.9793C70.9281 48.2422 71.8819 50.667 72.0709 53.0064C72.5117 58.4995 72.1203 64.0151 72.3633 69.5351C72.4443 71.3886 72.8941 73.1342 72.8941 75.0012C72.8941 75.9909 72.5927 77.597 72.9841 78.5103C73.0966 78.5598 73.0966 78.4788 73.1956 78.4473" stroke="#24150B" stroke-width="0.5" stroke-miterlimit="10" stroke-linecap="round" stroke-linejoin="round"/>
    <path d="M74.77 43.4284C74.7655 44.3822 75.3099 45.3134 75.4674 46.2447C75.6338 47.2209 75.7553 48.2062 75.9262 49.1914C76.2457 51.0494 76.5381 52.9614 76.772 54.8419C77.1184 57.6132 77.4693 60.272 77.4693 63.0703C77.4693 67.8525 76.4931 72.5628 76.4931 77.3225C76.4931 79.0141 76.4526 80.7102 76.6281 82.3747C76.7045 83.117 76.6281 84.8176 77.0869 85.371C77.2669 85.191 77.3479 84.9301 77.3164 84.6691" stroke="#24150B" stroke-width="0.5" stroke-miterlimit="10" stroke-linecap="round" stroke-linejoin="round"/>
    <path d="M81.4419 51.2293C81.4419 54.9633 81.4149 58.6659 81.9457 62.3504C82.3866 65.3916 83.2459 68.4508 83.3944 71.5325C83.4798 73.305 83.3629 75.0011 82.8095 76.6702C82.3551 78.0378 81.4329 79.3919 81.4374 80.8631C81.3474 80.9081 81.2754 80.8766 81.2169 80.7731" stroke="#24150B" stroke-width="0.5" stroke-miterlimit="10" stroke-linecap="round" stroke-linejoin="round"/>
    <path d="M83.9928 76.9446C84.5147 76.6387 84.7396 76.0808 85.212 75.7614C85.9858 75.2395 87.115 75.0596 88.0237 74.8841C88.757 74.7402 90.6466 74.2408 91.1909 74.9966" stroke="#24150B" stroke-width="0.5" stroke-miterlimit="10" stroke-linecap="round" stroke-linejoin="round"/>
    <path d="M85.6392 74.0204C85.2208 73.2421 87.5062 71.2896 88.262 71.0961" stroke="#24150B" stroke-width="0.5" stroke-miterlimit="10" stroke-linecap="round" stroke-linejoin="round"/>
    <path d="M87.5917 94.0582C87.3713 96.681 87.7627 103.281 87.8166 105.931C87.8661 108.319 88.6714 110.384 89.3642 112.589C89.7421 113.799 90.12 114.933 90.4305 116.075C90.6644 116.935 90.8039 118.689 91.4202 119.198" stroke="#24150B" stroke-width="0.5" stroke-miterlimit="10" stroke-linecap="round" stroke-linejoin="round"/>
    <path d="M85.3424 80.1702C87.3399 79.4369 88.9684 78.7666 91.3078 79.0455C94.0926 79.3739 95.7392 81.8753 96.8144 84.2192" stroke="#24150B" stroke-width="0.5" stroke-miterlimit="10" stroke-linecap="round" stroke-linejoin="round"/>
    <path d="M92.653 89.9553C94.0296 90.2432 95.2353 93.4598 95.4692 94.706C95.7392 96.1501 95.8291 97.6392 96.0136 99.0879C96.468 102.601 96.3645 106.214 96.3645 109.809C96.3645 112.8 96.135 115.913 96.5309 118.86C96.7334 120.358 96.9133 121.874 97.1293 123.373C97.2418 124.164 96.8953 125.64 97.4892 126.063" stroke="#24150B" stroke-width="0.5" stroke-miterlimit="10" stroke-linecap="round" stroke-linejoin="round"/>
    <path d="M94.1151 86.6935C94.322 88.1377 96.378 88.565 97.1563 89.7392C97.4577 90.1891 97.7276 90.7515 97.9705 91.2823C98.6904 92.8569 99.0008 94.2876 99.5406 95.8891C100.125 97.6257 100.328 99.2858 100.413 101.09C100.476 102.421 100.206 104.392 100.638 105.589" stroke="#24150B" stroke-width="0.5" stroke-miterlimit="10" stroke-linecap="round" stroke-linejoin="round"/>
    <path d="M87.0294 50.5906C86.9664 53.3304 87.5243 56.5785 87.0294 59.6197C86.7145 61.5407 86.0801 63.6867 85.0049 65.3242" stroke="#24150B" stroke-width="0.5" stroke-miterlimit="10" stroke-linecap="round" stroke-linejoin="round"/>
    <path d="M28.7291 97.0768C29.026 97.1533 29.6963 98.0261 29.8763 98.296C30.1507 98.7144 30.1912 99.1418 30.1912 99.6277" stroke="#24150B" stroke-width="0.5" stroke-miterlimit="10" stroke-linecap="round" stroke-linejoin="round"/>
    <path d="M45.4423 8.5625C44.3401 9.12935 43.3008 9.79968 42.2706 10.4925C40.5116 11.6802 38.7345 12.9489 37.7088 14.8654C36.5976 16.9438 35.8958 19.3327 35.9318 21.6991C35.9678 24.1149 37.052 26.1844 37.6143 28.4788C37.8483 29.4325 37.9517 30.5393 37.7268 31.5065C37.2769 33.4545 37.2724 37.2965 34.897 38.6281C32.5216 39.9598 27.6809 46.717 27.0781 47.8102C26.4797 48.9035 25.1661 50.541 25.1661 50.541C25.1661 50.541 26.7497 49.6368 28.4097 47.8102C30.0743 45.9792 31.4239 44.3327 33.9748 42.0832C36.5256 39.8338 38.775 35.182 39.3734 31.8844C39.7018 30.0849 39.4948 28.2404 39.0854 26.4723C38.7165 24.8617 38.0552 23.3456 37.6503 21.7486C37.3714 20.6508 37.2049 19.4632 37.5063 18.3519C37.8438 17.1103 38.7435 16.062 39.5173 15.0678C40.4846 13.8261 41.5013 12.6204 42.554 11.4552C42.8644 11.1133 43.1839 10.7174 43.5573 10.443C44.1781 9.98863 45.4423 8.5625 45.4423 8.5625Z" fill="#391F12"/>
    <path d="M40.615 28.2494C40.615 28.2494 41.1009 32.2578 40.615 33.2341C40.1291 34.2103 38.649 37.5035 37.9247 38.6282C37.2004 39.7574 35.7023 43.1315 34.915 43.8063C34.1277 44.4811 32.0267 46.6136 32.0267 46.6901C32.0267 46.7665 30.9785 48.4716 30.6006 48.4986C30.2227 48.5256 32.5126 47.1939 33.4124 46.6046C34.3122 46.0152 37.2724 44.8905 37.9112 43.1675C38.55 41.4444 38.9999 40.6481 39.8997 38.6282C40.7995 36.6082 41.5418 35.8029 41.5013 33.45C41.4653 31.0971 40.615 28.2494 40.615 28.2494Z" fill="#391F12"/>
    <path d="M42.8194 32.0869C42.8194 32.0869 43.9711 33.5535 43.9756 34.7457C43.9801 35.9378 43.8542 39.5099 43.5662 40.7471C43.2783 41.9843 43.2963 43.9593 42.8239 44.4496C42.3516 44.94 40.1876 45.6103 39.9627 45.5698C39.7377 45.5293 38.2171 45.4979 37.7403 45.5698C37.2634 45.6418 40.0077 45.5293 41.2763 43.8693C42.545 42.2092 42.563 39.2715 42.626 37.5619C42.689 35.8569 43.0129 32.5367 42.8194 32.0869Z" fill="#391F12"/>
    <path d="M48.056 9.76367C48.056 9.76367 39.0583 14.8249 40.6329 25.595L41.1413 27.1426C41.1413 27.1381 38.2711 18.5364 48.056 9.76367Z" fill="#391F12"/>
    <path d="M48.0561 14.0015C48.0561 14.0015 42.9724 16.8583 43.8632 22.9317L44.1511 23.8045C44.1511 23.8045 42.527 18.9502 48.0561 14.0015Z" fill="#391F12"/>
    <path d="M52.1996 12.1841C52.1996 12.1841 52.9104 15.6887 52.1996 17.0383C51.4887 18.388 49.2663 20.7408 48.8974 22.2839C48.5285 23.827 48.7805 25.0822 48.8974 25.5771C49.0144 26.0765 47.9887 25.3027 48.0561 23.1117C48.1281 20.9208 50.7554 18.9683 51.6552 16.9438C52.555 14.9194 52.0286 14.375 51.7857 13.5517C51.5922 12.8949 52.1996 12.1841 52.1996 12.1841Z" fill="#391F12"/>
    <path d="M49.6487 15.9226C49.6487 15.9226 46.639 19.7376 46.738 20.8623C46.837 21.987 46.6705 22.8868 46.7335 23.8046C46.7965 24.7223 46.576 24.3489 46.4231 23.3547C46.2701 22.3604 46.0002 20.4124 46.7335 19.2113C47.4713 18.0101 49.6442 15.7247 49.6442 15.7247" fill="#391F12"/>
    <path d="M49.0997 32.6807C49.0997 32.6807 52.8967 38.5382 52.7843 39.42C52.6718 40.3017 53.657 42.974 55.3441 42.9156C57.0312 42.8571 59.3301 42.6051 59.699 43.1675C60.0679 43.7298 60.7022 43.9143 61.0441 44.1887C61.386 44.4631 62.4253 45.1875 62.3983 45.5699C62.3713 45.9523 62.9561 46.6541 63.1136 46.834C63.271 47.0185 64.5937 47.7158 65.354 47.3919C66.1143 47.0725 63.8199 47.3604 63.3925 46.5416C62.9651 45.7228 62.5287 45.6373 62.1148 44.5981C61.7009 43.5589 60.9721 43.0505 60.1263 42.6591C59.2806 42.2632 56.6938 42.3487 55.6815 41.8718C54.6693 41.395 53.5176 40.5492 53.1802 38.8351C52.8428 37.1211 49.86 33.0901 49.86 33.0901L49.0997 32.6807Z" fill="#391F12"/>
    <path d="M91.2763 84.3137C91.2763 84.3137 91.5507 83.9943 89.6072 81.9248C88.388 80.6292 83.8127 80.2378 83.1244 81.5109C82.3866 82.8741 78.4411 85.8478 76.9565 86.896C75.4719 87.9488 75.2065 89.4559 73.5734 90.936C71.9178 91.8492 74.3337 92.704 75.9083 92.2226C76.0612 92.1776 76.7271 91.4353 76.88 91.3229C76.6776 91.2374 76.1152 91.7233 75.7913 91.6963C75.3234 91.6558 75.1075 91.4219 75.0985 90.9495C75.0805 90.3196 75.4899 89.8158 75.8363 89.3254C76.1332 88.9115 76.4076 88.4616 76.7495 88.0837C78.1532 86.5631 79.9527 85.4114 81.7343 84.3902C82.4271 83.9898 83.3448 80.9666 85.2703 81.178C90.4125 81.7404 90.5205 84.3182 90.5025 85.2135C90.4935 85.7623 90.0256 87.2964 89.8816 87.8273C89.6207 88.8035 89.0089 89.1949 88.5095 90.0767C88.1136 90.774 87.6907 91.4488 87.2768 92.1372C86.7909 92.9469 86.2646 93.8107 85.9182 94.6835C85.7652 95.0749 85.6707 95.4888 85.5762 95.9117C86.548 94.679 87.4253 93.4283 87.8122 92.9335C88.6939 91.8222 91.8656 88.4166 91.2763 84.3137Z" fill="#EDA06B"/>
    <path d="M61.971 36.5317C61.971 36.5317 61.917 35.4835 62.5513 35.7085C63.1857 35.9334 63.7075 35.9694 64.1034 36.7567C64.4993 37.544 65.4036 38.4437 65.3991 38.8396C65.3946 39.2355 65.4576 40.1353 65.5026 40.9586C65.5476 41.7819 66.4608 44.0493 66.5283 44.4542C66.5958 44.8591 67.0457 47.104 67.0457 47.104C67.0457 47.104 66.7802 46.5821 66.2359 45.5924C65.6915 44.6026 64.9087 42.2003 64.7963 41.0396C64.6838 39.8789 65.1022 39.339 63.8065 38.0703C62.5109 36.7927 61.971 36.5317 61.971 36.5317Z" fill="#391F12"/>
    <path d="M53.5132 34.2418C53.5132 34.2418 54.6964 38.1648 55.5647 38.8396C56.433 39.5144 58.8039 39.5729 59.1953 40.2747C59.5867 40.9766 61.3232 41.4264 61.6921 42.1328C62.061 42.8346 63.9235 43.8828 63.946 44.4542C63.973 45.0255 64.6748 45.9883 64.6748 45.9883C64.6748 45.9883 65.858 46.2042 64.4229 44.3372C62.9878 42.4702 62.8213 42.0473 61.4132 41.0935C60.005 40.1353 60.4279 40.3602 58.7994 39.5459C57.1708 38.7317 56.8874 39.7799 56.0416 38.1873C55.1958 36.5947 54.521 35.8614 54.1566 35.1866C53.7922 34.5118 53.5132 34.2418 53.5132 34.2418Z" fill="#391F12"/>
    <path d="M49.0997 7.73924C49.0997 7.73924 56.8692 5.48982 61.377 10.2136C61.377 10.2136 57.5215 6.69101 49.0997 7.73924Z" fill="#391F12"/>
    <path d="M58.7587 35.0696C58.5518 35.5734 58.2998 36.0683 58.0299 36.5362C57.796 36.9321 57.8005 36.7701 58.1514 36.9051C58.3763 36.9951 58.6463 37.175 58.8082 37.328C58.9927 37.4989 59.0647 37.7464 59.3571 37.7194C59.3076 37.1615 59.0287 36.6757 58.9477 36.1583C58.9027 35.8659 58.9837 35.1776 58.6463 35.0696" fill="#391F12"/>
    <path d="M63.3116 30.3278C63.3116 30.3278 65.0032 31.8259 64.7242 32.3163C64.4408 32.8022 64.3373 32.8247 64.3373 32.8247C64.3373 32.8247 64.4903 32.7662 64.0359 32.3748C63.5815 31.9789 63.0192 31.0611 63.0192 31.0071C63.0192 30.9531 62.8482 30.1614 62.8482 30.1614C62.8482 30.1614 62.9337 30.1389 63.3116 30.3278Z" fill="#391F12"/>
    <path d="M62.6502 29.4325C62.6502 29.4325 63.2531 29.0816 63.5365 29.707C63.5365 29.707 62.9876 29.5405 62.6502 29.5225" fill="#C47944"/>
    <path d="M74.6577 101.369C74.6577 106.619 74.7162 111.878 74.7162 117.124C74.7162 117.645 74.9051 121.523 76.1243 121.218" stroke="#24150B" stroke-width="0.5" stroke-miterlimit="10" stroke-linecap="round" stroke-linejoin="round"/>
    <path d="M79.8043 91.6288C79.8088 91.8493 79.7323 92.0337 79.6648 92.2362C79.5344 92.6276 79.4264 93.019 79.2689 93.3969C78.999 94.0267 78.6256 94.634 78.2117 95.1739C77.7303 95.7947 77.1545 96.3031 76.5382 96.789C76.1063 97.1309 75.6834 97.4773 75.256 97.8237C74.9681 98.0577 74.6487 98.2601 74.3787 98.521" stroke="#24150B" stroke-width="0.5" stroke-miterlimit="10" stroke-linecap="round" stroke-linejoin="round"/>
    <path d="M74.3742 97.6528C74.2887 97.6483 74.1717 97.4189 74.0997 97.3424C74.0368 97.2794 73.9558 97.2029 73.8748 97.167C73.7488 97.1085 73.6004 97.086 73.4879 97.167C73.3754 97.2434 73.281 97.3694 73.182 97.4549C72.9795 97.6348 72.7276 97.7743 72.5072 97.9273C72.3497 98.0397 72.1832 98.1657 72.2102 98.3906" stroke="#24150B" stroke-width="0.5" stroke-miterlimit="10" stroke-linecap="round" stroke-linejoin="round"/>
    <path d="M76.9745 98.2285C76.817 98.233 76.6461 98.188 76.4931 98.1701C76.3132 98.1476 76.1197 98.1926 75.9578 98.2915C75.7778 98.3995 75.6114 98.5165 75.4719 98.6739C75.3819 98.7774 75.2739 98.9439 75.1615 99.0113" stroke="#24150B" stroke-width="0.5" stroke-miterlimit="10" stroke-linecap="round" stroke-linejoin="round"/>
    <path d="M80.2767 98.3276C79.9528 98.2331 79.3994 98.1296 79.089 98.3276C78.9406 98.422 78.9136 98.629 78.8056 98.7639C78.7066 98.8899 78.5852 99.0384 78.5582 99.2048" stroke="#24150B" stroke-width="0.5" stroke-miterlimit="10" stroke-linecap="round" stroke-linejoin="round"/>
    <path d="M82.5486 98.6335C82.4406 98.683 82.1841 98.3366 81.9862 98.4851C81.8782 98.5661 81.7747 98.5885 81.6668 98.665C81.4823 98.7955 81.3924 98.9799 81.2439 99.1554" stroke="#24150B" stroke-width="0.5" stroke-miterlimit="10" stroke-linecap="round" stroke-linejoin="round"/>
    <path d="M74.3743 89.9553C74.5722 89.9688 74.7252 90.3916 74.6577 90.5896C74.5677 90.8415 74.3383 90.9495 74.1583 91.1385C73.8749 91.4354 73.2811 91.5613 72.8762 91.5613" fill="#F8BE89"/>
    <path d="M74.3743 89.9553C74.5722 89.9688 74.7252 90.3916 74.6577 90.5896C74.5677 90.8415 74.3383 90.9495 74.1583 91.1385C73.8749 91.4354 73.2811 91.5613 72.8762 91.5613" stroke="#24150B" stroke-width="0.5" stroke-miterlimit="10" stroke-linecap="round" stroke-linejoin="round"/>
    <path d="M76.5426 94.508C76.5561 94.5035 76.5471 94.4855 76.5696 94.49C76.7181 94.787 77.0825 95.0344 77.4244 95.0119" stroke="#24150B" stroke-width="0.5" stroke-miterlimit="10" stroke-linecap="round" stroke-linejoin="round"/>
    <path d="M78.8191 95.7452C78.9855 95.8711 79.188 96.0736 79.4084 96.0826" stroke="#24150B" stroke-width="0.5" stroke-miterlimit="10" stroke-linecap="round" stroke-linejoin="round"/>
    <path d="M81.082 96.645C81.1947 96.8118 81.3615 96.8569 81.5058 96.9696" stroke="#24150B" stroke-width="0.5" stroke-miterlimit="10" stroke-linecap="round" stroke-linejoin="round"/>
    <path d="M83.1784 97.4503C83.3181 97.5269 83.3948 97.7253 83.5887 97.7027" stroke="#24150B" stroke-width="0.5" stroke-miterlimit="10" stroke-linecap="round" stroke-linejoin="round"/>
    <path d="M76.0343 87.6069C76.1244 87.6655 76.2868 87.9135 76.2868 88.0172" stroke="#24150B" stroke-width="0.5" stroke-miterlimit="10" stroke-linecap="round" stroke-linejoin="round"/>
    <path d="M76.2188 87.4539C76.4212 87.4719 76.5157 87.7733 76.5157 87.9443" stroke="#24150B" stroke-width="0.5" stroke-miterlimit="10" stroke-linecap="round" stroke-linejoin="round"/>
    <g opacity="0.8">
      <g opacity="0.8">
        <path opacity="0.8" d="M26.9431 56.3761C25.3325 58.36 23.5375 60.479 23.0426 63.0658C22.7682 64.4964 22.8042 66.4264 24.2978 67.1822C25.5395 67.8121 26.7857 67.0068 27.258 65.7876C27.7079 64.6314 27.4515 63.3312 27.1951 62.1705C26.7587 60.2001 26.4213 58.576 27.1951 56.619C27.276 56.4165 26.9476 56.3311 26.8711 56.529C26.3853 57.7662 26.2053 58.8909 26.3988 60.2046C26.6462 61.9051 28.2118 65.2522 26.4123 66.5389C23.8794 68.3519 23.2226 65.4457 23.2496 64.159C23.2721 63.0703 23.65 61.9726 24.1179 61.0053C24.9007 59.3948 26.0614 58.0001 27.1861 56.619C27.3165 56.448 27.0781 56.2096 26.9431 56.3761Z" fill="#BA7547"/>
      </g>
    </g>
    <g opacity="0.8">
      <g opacity="0.8">
        <path opacity="0.8" d="M25.5709 59.7141C25.3594 60.4834 25.4899 61.1672 25.6968 61.923C25.8453 62.4584 26.0253 63.0073 26.0163 63.5651C25.9983 64.5279 25.3594 65.6076 24.2842 65.4951C24.0683 65.4726 24.0683 65.81 24.2842 65.8325C25.3099 65.9405 26.0028 65.2297 26.2637 64.2759C26.6821 62.7373 25.4719 61.3292 25.8948 59.7996C25.9533 59.5927 25.6294 59.5027 25.5709 59.7141Z" fill="#BA7547"/>
      </g>
    </g>
  </g>
</svg>
