<svg width="23" height="18" viewBox="0 0 23 18" fill="none" xmlns="http://www.w3.org/2000/svg">
<path d="M20.5 0.905518C19.39 0.555518 18.17 0.405518 17 0.405518C15.05 0.405518 12.95 0.805518 11.5 1.90552C10.05 0.805518 7.95 0.405518 6 0.405518C4.05 0.405518 1.95 0.805518 0.5 1.90552V16.5555C0.5 16.8055 0.75 17.0555 1 17.0555C1.1 17.0555 1.15 17.0055 1.25 17.0055C2.6 16.3555 4.55 15.9055 6 15.9055C7.95 15.9055 10.05 16.3055 11.5 17.4055C12.85 16.5555 15.3 15.9055 17 15.9055C18.65 15.9055 20.35 16.2055 21.75 16.9555C21.85 17.0055 21.9 17.0055 22 17.0055C22.25 17.0055 22.5 16.7555 22.5 16.5055V1.90552C21.9 1.45552 21.25 1.15552 20.5 0.905518ZM20.5 14.4055C19.4 14.0555 18.2 13.9055 17 13.9055C15.3 13.9055 12.85 14.5555 11.5 15.4055V3.90552C12.85 3.05552 15.3 2.40552 17 2.40552C18.2 2.40552 19.4 2.55552 20.5 2.90552V14.4055Z" fill="#873A17"/>
</svg>
